<mxfile host="Electron" agent="Mozilla/5.0 (Windows NT 10.0; Win64; x64) AppleWebKit/537.36 (KHTML, like Gecko) draw.io/24.7.8 Chrome/128.0.6613.36 Electron/32.0.1 Safari/537.36" version="24.7.8">
  <diagram name="Page-1" id="YpxKMSdSADX_WDXOxVal">
    <mxGraphModel dx="2040" dy="1308" grid="1" gridSize="10" guides="1" tooltips="1" connect="1" arrows="1" fold="1" page="1" pageScale="1" pageWidth="800" pageHeight="443" math="0" shadow="0">
      <root>
        <mxCell id="0" />
        <mxCell id="1" parent="0" />
        <mxCell id="Q5ADVEXTwDyle6d0Oa31-1" value="" style="shape=image;verticalLabelPosition=bottom;labelBackgroundColor=default;verticalAlign=top;aspect=fixed;imageAspect=0;image=data:image/png,iVBORw0KGgoAAAANSUhEUgAABAAAAAMACAYAAAC6uhUNAAAAAXNSR0IArs4c6QAAAARnQU1BAACxjwv8YQUAAAAJcEhZcwAADsMAAA7DAcdvqGQAAP+lSURBVHhe7L0J3CRnVe/fF9AwF5jrjKwhCkYTGVEIjH8GLlGDEhE1XK6ZXJcEGBXjYEiChGsQI0xQMIQ9AaIQA7LdENkuuMAVZSAsiuxLEsIaAgQwCLIFQax/ner61Zx+3qe27uququ7vzKc+3V3LU89zzvcsz6nlney47UMTFmQAAzAAAzAAAzAAAzCwKQz8t9v85nE7bvObB1iQAQz0y8B/u/VDH7FuOhj6mCab4ugZJ0kNDMAADMAADMAADMBAxoBN/rkIxkVAGOifgdv85sG1s8WBj4kCAIbfv+GjA3QAAzAAAzAAAzCwSgYoAMDbKnnjXOW8DXyyPFdxYuBjGkQB4Gf2Pm0wTmhIfZkLuIiDWccxtZHNkMY/pL60kWHZvus2Hj/OdR5bqM+xjHXo/Rx6/7qw+Vgb6zzudRrbkMfSS98oAAwm916Wb6LdkdztM/DJ8lwcDXxMgygA3O/XLhiMExpSX+YCLlIAWMcxtZHNkMY/pL60kWHZvus2Hj/OdR5bqM+xjHXo/Rx6/7qw+Vgb6zzudRrbkMcS9u3E37wkuext1ycHP5F0trz6nV9O9p/zmkP5JgWAweTey/JNtLv+BYD7nXxJ8vS/uj75i3cknS3Pev2Xk1/9Xecr5rl7wxUATjvtz5JrPvypJPn6VztbPv/JzyTn/cnL57bhQRQAfnHfRXMPoGvjHlJfuhrbOo6pjWyGNP4h9aWNDMv2Xbfx+HGu89hCfY5lrEPv59D714XNx9pY53Gv09iGPBbftzve+azkrz/0reT/fSRZynLc/3jGNOekADCY3HtZvol217sA8H13Oiu58OC3kovemixlucfP5b5igQLAD9/5Eck3P3JlklyTOrQlLHsf+MS57HgQBYAHnvq8uTq/DMMeUl+6Gt86jqmNbIY0/iH1pY0My/Zdt/H4ca7z2EJ9jmWsQ+/n0PvXhc3H2ljnca/T2IY8Ft+3E099UfJXH06WtjzyyQcpAMwzoeGYwcxVluXLe2t3ztvl73vKi5KnHUyWtpx8Tu4r5mE/H9Mjf/38JHnXm5e2XPLHF8/F5SAKAP/r4S+Yq/PLAHVIfelqfOs4pjayGdL4h9SXNjIs23fdxuPHuc5jC/U5lrEOvZ9D718XNh9rY53HvU5jG/JYfN/OfNLB5FVXJEtbnvryj1EAmGdCwzGDmassy5f31u6cBYBf/v2DyRP/LlnacvpFua+Yh/18TJc8+mlJ8vrLlrb883Pmu4g+iALAyY98yWCMakh96coQ13FMbWQzpPEPqS9tZFi277qNx49znccW6nMsYx16P4fevy5sPtbGOo97ncY25LH4vj32+R9IXvaBZGnLc95wPQWAeSY0HDOYucqyfHlv7c5ZAHjI+R9I/vBvkqUtZ74w9xXzsJ+P6Q2PfUKSvOSCpS3XXPjUubgcRAHgIY9+2VydXwaoQ+pLV+NbxzG1kc2Qxj+kvrSRYdm+6zYeP851Hluoz7GMdej9HHr/urD5WBvrPO51GtuQx+L79rgXXpW8+L3J0pbnvfXrFADmmdBwzGDmKov68ke/Kan9d/AxTd8fcEmS3oWf/Wt+TND2nAWAk59yVfKo1yRLW854We4r5mE/H9Plv3d2kjz7D5e2fPlpfzAXl4MoADz0ca+cq/OLGkDs+CH1pavxreOY2shmSOMfUl/ayLBs33Ubjx/nOo8t1OdYxjr0fg69f13Y/KbETY1znXQ65LH4vv3BC65KLnlXstQl0y8vARxM7r0s30S78Un8uhQATjrvquThr0iWuszNkAoApz0sfUbhtKUu8/RxEAWA/U9Y8E8tzFOZKTlmSH2ZR6GxY9ZxTG1kM6TxD6kvbWRYtu+6jcePc53HFupzLGMdej+H3r8ubH7TYsw66XTIY/F9+5P0T3r9afonvZa5UABoenV3oPvd7reT23z/70SW/cktfX5fut/DklvfLhjbln3DtvbHz/l9p+aFlFOTWxd9mj32lrd/WHBs0Lb1OTv/HP1aYA70U7/xuORxr7wqv35/VfLKx6W/g+XX71PHwKE7AN77yunx9cd0cwfArz7n+uQ3L02WuswdN/MCwDUPf1CSPPrkpS7z9LG+APDA1yXXRG4UyW7zsG3XvC45weDz31vCeMaT/7a+ClnSj2ue/0dbj432KwVUfa3oX31f/ii5JBXI1ttczAA+l1zywDpD0XbXn3ll1/C4+jGV6c/G9L7k0S312YwFk6OXV1v5NZXzQ5P68U91Gvu3ha+GMi8zxtq+xDj33C54/ma66VK207Zmq81zMNWWwQ72r9WV/F4KzhZOHvO+xW6H66D/bQJCb2NtyfPy+7mYX15+/1J7ytkq/NWbLqmPn0vmqdG4iz505OtbstPGHvy+tWOL9sPHzhKmSvOnxRisGmftWEpzuQa5wIL68H37o/97fXLh25OlLhQAmsf5eW1nqceVTJanE203ia7cz03Cbzed3M8UBbJ1kQm5fFnQ9i2/Ly1I3P63Mn+cfS8KA9PfWwoOgV/OjgnPF+nDdIyRAsIcfr5pAeCE539uJkWenQNFCgBPmeZASdN50ZyPAPzSBdcnJ78oWeoyN8cqAPz6/0iS034hvqTvOsn+ff5VwfZHpOvybR94Zvnxebvz9LFZAaDBxHmRicUjn/l39QlMm+AS27fh8Y36YglYmHTF1lUZY8P+VCq1YRuNxlSbxHQcLMLzpfK75k3vSw7GCjpzODUvt0bj1zkaynQeY7NjavsSOX/meJvYYBM5dTy+2vHcdlpcmZkgZxOY4RcB6semwtnnDhVCcx08+k22boHn4ZrossN9ehtrSx6X3s8Fi9pL799tt07ErLgWLYR3yEedv2s0bvWnK1/fkp26MZRtrx1bXews62fb9R3os3YsPRYAfN/+8FXXJ09N/673MhcKAB3ndB3w2cpGy66Wh5Pv0v2mV+unk/LfSm5dMkHPJtvf99uzdxVkY50eown/jttae2HhQZN027eikGDt2UQ/3We2AOD76PUVnntBXRZF5SvyOwB+L/kpp8+yxwUOxZ2gAFDcUdAiB5qzAPDzT7s++aXnJ0tdWnHp7UAFgJPukyQPvnf58p58ov83v3Von7/59HTle55UfWze7jx9XKwAUJUs+SuZNZOXsy9q8HcW64K9O59NJGfvTEgnlrrC20VfSpKwoiIWG7utswmuKfRNrzt0xdn6E5kMF6U2119fgcsMr04mOYjzyzdINmeuTrsJ3MzY0qtRrl9h1bCY+FkSWEz2dTeAfQYTQ3+1K7wSngvpmue/rvJOhUbjryoA+PGldy3MsOX70GCSXtuXqE7d3RIz22fvXDhUkZ3q7WDxkpdAV1VM5Vfr/YTCnH/Zi13mG89DU+YvSZf8aqbrT3GukKm8kCC7mOlPUy6r2ogkL7Vjc8nyJemE/9DdP9MreJd4uZX4wy02nfWjRK9mC41klRcmJKwuuGwx1lZjCmNIzdWCLnWytZ9O7s4vmx6bXsnoqn/hpH7GLqr02cBfzhbfKnyFdN6Ao0bjLtg2Wwl8fcaBi9PpOb2NR5ly7JTJqzT+dJmfVBYA4kxtuWuyaKNi/1J9lMWBrZOCRnqqK2iU9WPmuBquavzto19xffIn6Z/Nrlp+8Xffnkz+6+O2LHtOem3tsdYuBYAFJ42rnvCH56soAGSTaV0hrywA5JPybJ+SK+qlt+W7c2QT+LANXxCYfr9NdoU/cpU/Kx6k5w/PVdWvLuVfVQAofOU0j7zziX+QPO6ityTXZ3HhquTPs8cDXAHgLdqWF6bv83v5IwV/kPzPu1YwN2cB4KfPvz65/3OTpS7zTK5z/3LQPq/5+d1J8j/vXLE8Po+yn0rfZpju96gX57/fUnPcoTbn6WOzAkAxG82/6Op3aQFg9vZuC8JVVygaV6XDfhRJwuxt+TNXTNXHhpPlRn3JJ0kzE/4iKSsZe2ZEbpJQKrvZ2yOLxCa2f5djmplEeUFr8hiRseegbGzOSXkOZiaV2WRvehvrLCslssgnSJL/NMkrv6LcVKeZAcVk6nUXJGozfWgw0artS4lOoxOAYN9HP0a3Ak+d8Uzf6my2jMcaxurGk+mm6hblqkltBVOHxjo/l4faiAelurHN8OILWvn3Q4xX+ITYI1Rlem0qq8w+DvmaOv/b6M4UbxtVY23IUSH7ZfhntbloP3OfGLWjkuSrM2ZK48PURxZz8pk7plr4y8ImK3xFC44ajVsMxXx9IOvsMYc622jImhKjQ3bQzj5qx1Y3YW7Szyb7lOmjNA5s9Wu1Ywkn9zM5l88FIv5lSwGgJAY1sJ1HvewLyeP/4TuVy2Nf9+/JzW//5C0FgN+5+DO1x1rbFADWuQDgJuNVjwDoyn529T12ld9kFLsKH7kCX1UACB8VCG7hz+4ysEcHthQAqvrVof4qCgBbi6jeKVyfvOWixyWPOPEvir8CUGz9THpxs5j8N3gnwJwFgGOf8IXkp5/9naUu80yuZwoAP3lUkvzM7auXp6ZVSfv3T3+QLrkUn1pzjGtznj42KwCUTWwqJ7HBbL1iEjD/c2m5AYQBeIHJcqO+BBPFrZPWyNib9NHarXqUYGaSngbjhgWARmNqk8QUSUKeEFSNLQ/2W2V0aMK+pRgg3kplEd4GW/18YqPx190BECajDcYcM8javrQpABRV1/DdExXyifW7wHVrglc3eawdT92jMVWT2hm/owpzMNboeEq4LJVXPJDWjm3GDxx6btdu/7e7AQ5xfag6Xoh6pnimtZJ/yVhby8r5oZrnxLsba3D3QVGYq9Bf1s1m709Zej8rJt5N7rjqrn+HJqlVNqhbM7MiRZmtVdnIlrvZgmfXy4r/wSSu0birCudZbCu/UymTfeinZsZVLa9GMbpkYlo7tjaxs8lEv3VeVWJbkfHUjqWsCD7DSYk/21IA8EX5+ncI+L6d+eLPJOe87oba5R6//NqZAsAP3+fFtceoXQoAHU4gu7wa3bStyjsAwgJAzcsC2xYAYueuvAMglLUrKthxRSEieAlgZb861N/cBYAk+WD20r+XJf8YuUA73WYFgofVP+Y9ZwFgz7mfSX7iGTcsdZlncj1TALj7bZLkHjerXy795CEpXvrz9fu7Nufp4xILAM2f8W30ZtqqyW6TyXXDyXKjvmy5lTF8mV1k7E36WFUA8AmSvnc5pjZJTJgk1E2Gw8R05nckmdDV644KAM11WnEHQEcFgNq+RPVQ9giAK4CZ2ygmzO4lUhmrLvkKk0sl3UECPk2YLwle1Lg14Mw3nunkOLsrqPGktmSsTe3KJxWaTNTcsVE7tsAOphN/XwjQFbCS5Ddm01X9bCyr+mQ7DBadjbXtmKS/JfmyUp2U9XPBAkBncizuhqq3wWLi36YA0MRXRB51K0syGo3b3Sbqc8UtLxSOxZeYnwqYKfVZW+TSzj7qxxZrr8LnzntnQ50+Gvi1+rGUxMAtBYC6HKciBpVM8HzffufPP5qc/eov1i4Pf8G1yU2+5/FFEeCXzvnn2mPULgWADieQTSftXe5X9whA2aQ61ofKW+2DZ/vt+NjEvFUB4NA7B2ZeDjjARwCKOwA+++bkoshfCJj+xYC/TN4pp379W5KL9A4A+/67j0zu3ETvcxYA7vEHH03u/aQvLnWZZ3LtCwBX/+iO5Ia73qR+efDFyX9mcvxk8u0HN9jftTlPH5dUAJi9LbfuJUWN/jZtZYLY3SMAjfrir2rb+wZmrq6VjL3xRGX2Ns7iFmqXxBS3vDdMmhuNqa4AELvtPnZbeZi8RZJSfzUmenWrOKZEFi0fAWg0/rZ3AMT60OARgNq+RPQQfaRli0PdeuWu9hGAGFNeDuaHaq4c146n7iWAM4UHdztyJdt+rDWPAJTqpH4SUD+2IFm2W87tHRH5bdmzjwAcuh12pvjhboeOP8YSTCSCK+rRyVPAZp3/tcDR2VirmCqYjU+O6u42WUk/FywAdCZH+dHQBoMiUBb0i0cdWvjLxo8ARLiNJHNNxl3p66viYxlTsWNi8triw7rOT7b+ZaBSn13GV5P1jey62q810VP8Tpdynxt9TDEv9rR5fMb37bcu+mDyuy+7ttHyg8dekhUAbnWnCxrtr3YpAKxvAWDmDfxVhYLCl7V7CWD4hv/p5KvqJYCxOwDs/QP+zwYGdylkf0Ggol/BXxmYZwJYHNPoHQDpE//5Ff2tfzbwlcl78wLA9M8AXpS8ZfqSgOT6t1zU7E8CzlkA2P17H0zu+UfXLnWZW7b5mN53p1sk1//IpGb5ueQb6SsAin+fujj5Uu0xh9qcp49LKgAEt4HWTIwe8uiX1d8eoup2eJuJr6bn27a+BND+VGF+pbmLvgSTpC0vSPN9jVX7i6uy+VXbMJEpjDG4qqvxZVdm0yuo/mWHFRW2xvLdIpsgmZjRQc3tmllbZX9eT3dMlCUr7op3VBazLx1Jspcrlt9x0mj8rQsAs4x3posY5+HLD/Pf4bNZ7V8CeOjui+nV/tm3iVe9/E/OpplsQw5mdXXoDbPvSy5J7zyITWrLx1p2y/nWK1mVbUTsp9HYZmx3dgK25dEW+S5/9TW06bR4UNXPJrIq3k2w5XzlCV93Y40zVTqmGfnNPpsdC2jL7mfxMiP3EsDshW1hYbPE33bXv+k5Yza45ZlMP8Et85dlvju/sht9YagvQszcYbSVo/px1/j6x7g/KbxF1iV+KlIknJVXLP7ksScWoxfR6Za7G8Lb3yOxvrTY5HKVsiKH00cbv1avpyZ3AJTkd1t8YcmLaBvI+def8Y7k9L+4qtFy0oG3ZgWA++7/20b7q10KAOtZANjyJ/IaFQDyq/qN/gxgs0n5bBFi9oWB022Rdw5EHy3Y+qcIt/ypwyZX2Kv2qSoA5HEonHplLqh4B80hHz0tAKTLSz+UH3JV8somdwHMWQA45hHvSP6/P7xqy3LGC69N3vnxrzdebP9YO7Zunsm1vwPgLUfdIvn4D08ql0+/eHr7/7de/HOJ/153nLbP08f6AsCiYDU4/uRHvmR+ATdov41ghtSXNv2u2ncdxzQ73uqrHisZf92z7jmnK+lL3a2ijWym/gq56WA14+knUVnnsYX+YixjHXo/u+1fMxtcLE50c45uxz2vvXczlrHaRhMOVqen9rrwfXvQk96U7P+zdzdevu/uz05+61nvbLy/tU0BYF47G8hx2WS55tl+y3WaFgCKq/i+zdhfBij703y6C0DHzx47nbTHtxW2W/oXB8KxlvzFgka5XUR/NQWArBid/llO/y+b/Bcv+Tv0DgAVAH49/esAumBhdwHUvgdgzgLAXU97U7L77HdvWQ5c5p6nj1UvgnW2f6wdW9fEt0b3ycf0tz94i+Q9R03Kl8e9cdqb9Kr/ldl+P5d8Lr8b4EuPqzjOtTlPHwdRAPhfD3/B/AKeF/iS44bUl3kUGjtmHcfUpgCwnPFXX9Uu091y+hI69PbJ10x/82DQ5G+Lr2Y8/SQc6zy2kM+xjHXo/eysfy1scLE4saCvyONoZ+OeN54vUV69j21emUSOW91Y2nPl+/Yrj39d8hvPvLzx8pCnvKnxvmqXAkA/cXUxf0Wflyq/YkL/e8lPRfzHT/1GfnU/eBfAocn96cmv59usAJD1tabNYjxzFgB+9NTXJcf87uVblp957D8lD332+xsvtn+sHVs3t8zzMV32A7dIDh45KVkelfxLNvv/ZPLJk9w+J12cfD1b/8bkitJjD+0/Tx8HUQB44KnPm1/AHQZHE+CQ+jKPQmPHrOOY2shmSOMfUl/ayLBs33Ubjx/nOo8t1OdYxjr0fg69f13Y/KbFmHXS6ZDH4vt24jmvSh50/uuXulAAYDK9LH842nYbTNbDIsDslf1IASCdV+mYyrsA5iwA/Mivvyq5y2mvX+oytz7zMV3y/bdIXnOHSWR5VPLZ/E6Er/7Fz23ZfvAvdBfDG5N3RY8/1OY8fRxEAeAX9100mALAkPoyj0Jjx6zjmNrIZkjjH1Jf2siwbN91G48f5zqPLdTnWMY69H4OvX9d2PymxZh10umQx+L7dv/Tnp/8yuNftdSFAgAFgGX5Q9qdg605CwBH731+cuffetVSl7n1mY/pj29/6+TFR0yWuszTx0EUAO73axcMpgAwpL7Mo9DYMes4pjayGdL4h9SXNjIs23fdxuPHuc5jC/U5lrEOvZ9D718XNr9pMWaddDrksfi+/fRvPCs58Q9evLTlhN+9hHcAdHz37LJ8C+3OMZkeo27nLAAcecKzkjs95MVLW47+ldxXzCPTfEyPOvx2ybMPnyxtedLh2+aaQw+iAPAze582V+eX4RiG1JeuxreOY2ojmyGNf0h9aSPDsn3XbTx+nOs8tlCfYxnr0Ps59P51YfOxNtZ53Os0tiGPxfft2F97cnLCWc9d2nL8/mdRAJhnQsMxg5mrLMuX99bunAWAO97vycnRv/rcpS0/+D9zXzEP+/mYTr3tEcmf3GaytOXRt7nFXFwOogDwEyc8aa7OLwPUIfWlq/Gt45jayGZI4x9SX9rIsGzfdRuPH+c6jy3U51jGOvR+Dr1/Xdh8rI11Hvc6jW3IY/F9O+bnzkl+7uFPX9pyr5PSN5hbQn+b3zywLJug3Q25cj3PxJBjts755iwA3P6/n5P80IlPX9pyh5/JfcU8OsvH9NO3+tFk/87J0pYH3vKIuebQgygA3Ot+T5ir88twsEPqS1fjW8cxtZHNkMY/pL60kWHZvus2Hj/OdR5bqM+xjHXo/Rx6/7qw+Vgb6zzudRrbkMfi+/YDdz0z+ZmHPmFpy52OPYsCwDwTGo4ZzFxlWb68t3bnLADc+k5nJj9wwhOWttz2brmvmIf9fEx3/N7jk5+62WRpyw/v/P/m4nIQBYAfv8+BuTq/DFCH1JeuxreOY2ojmyGNf0h9aSPDsn3XbTx+nOs8tlCfYxnr0Ps59P51YfOxNtZ53Os0tiGPJezbXe57RnKvkx7Z+XK3n39Ecsvb/xYFgHkmNBwzmLnKsnx5b+3OWQCw/t7uHmckR/z0IztfDr/3I5Kdh+e+Yh723Zhu+V+PSG51k0nnyy1v+r3Jjls/eC4uB1EA6A24eRTKMXOBho65HQ4GYAAGYAAGYGAwDPAIAPkcOf0wGFigADAYfxKyNPAxUQDA+Idh/OgBPcAADMAADMAADKyKAQoAsLYq1jhPNWsDnyzPVWQY+JgoAGCUBAAYgAEYgAEYgAEY2CwGKABslr6x7+Hqe+CT5bUsAOzdf2nCggxgAAZgAAZgAAZgAAY2hYGf2XtRsvu4J7IgAxjomYF7HH/+2ulg6GOatHX0l527N3nPOZPk4FksyAAGYAAGYAAGYAAGYAAGYAAGYAAGhsaAzdljc/25CgA2OIoAQD40yOkPTMIADMAADMAADMAADMAADGw6A5qrd1oAMKG+MV2e/Ij7JE/7/RM7W57+h7/WWVvWL9pbTDfID/m1sW94gRd4KWdg6PbxjAMPIf4ukM8MXb/0D/+Mfx6vf8Z+sd829vuSA/cp7tbvvABw4IRJcsF5ZyRHHXlEZwvtLSZL5If82tgjvMALvJQzsM728Y9POCxJXjKpXK54ynctFNvXWX4xu2G8+FP86Wb6U/zBEcwHF5wLLyN+6A6IpRUAJpNJ0tViAuiqLWuH9hbTDfJDfm3sEV7gBV7KGRiSfRy3q3ryb8WBB/44PMPzOHiO6WlI9kb/yMfb+BJ4gZcueKEAQIFi7qIKAZQEuI0Tghd4gZfxTJjemL4cqOwugPc8cTGWKcAjvza+AF7gBV6qGSC/WsxGNlF+FAAoAFAAaMjAJjqItkG3an/kR4BqwxO89MtL1V0Ai179Z0K3mG6RH/Jr40vhBV7ghQKKZ8DyKwoADSd/TYyHhHUxJ4v8kF8TO9M+8AIv8LLcOwpidwF0cfWfCclitov8kF8b3wcv8AIvFABGXQA449QT575aHYN/09q78Lwzkd8CBZ+ueUEfiwVl9DEs+aGP9dNH7C6ALq7+WzzumpdNa4/4MSx7Qx/oo80kG381LF42TR+juwOgjXGx71bj6vqKKTJezIGhj8Xk1zV/6AN9dM3UOrTn7wLo6ur/Osil7zHgr/BXfTM45PNjH9jHkPnsu28UABa4Gty38uY5Pw4RhzgPN5tyDPaBfWwK623G6e8C6Orqf5vzs2/cLvFX+CtsY7mPQCHf7mwMf9WdLLvgkgIABYBOHwnoAspNagOHODyHuEn8DX2s2Mdw7MPuAvjCC25FvBhQzoB9DMc+zJeiD/Qx9JjaZ/+wj+HZx6heAtgnvOtw7q6fcVkHmfQ5BvQxLIeIPtBHn/5gyOe2uwD+6pm/QAFgQAUA/BX+asg+o+++YR/YR98MDvn83AEwoGA+ZFDo27AcKfpAHzAAA6tmgCs4MLdq5jgfzMEADMBA9wyspACwc8f2JFy2bTuMKwkUH2AABmAABmBgwAxYrFb8toRB34nh3SdkJLnIFAZgAAZgoEsGfAz3c/GVFAAOnL0vCZfjjj2GpK+HpO/kk45H7j3IvcyY0cewHD36QB9dBt51aMtiteK3JQz6Tgzv31bwV/3rwNs4+kAf6+DzlzUG7KMf+/Ax3M/FV1IAWBZMtNsepj27d1EAGFABAH20Z3iZdo8+0Mcy+Rp72zwCgH2MneFl9p/4gX0sk6+xt419DMs+KAAMaDI4duOm/8MybvSBPmAABrpkgAIAPHXJE23BEwzAAAz0wwAFAAoA3BEAAzAAAzAAA7UMUADoJ1EjQUbuMAADMAADXTJAAYCkrzbp6xI42sKBwQAMwMA4GaAAME69YW/oDQZgAAZgwDNAAYACAAUAGIABGIABGKhlgAIACSSTCBiAARiAgfEzQAGApK826cPQx2/o6BAdwgAMLMoABQAYWpQhjochGIABGOifAQoAFAAoAMAADMAADMBALQMUAPpP2kic0QEMwAAMwMCiDFAAIOmrTfoWhYzjcVQwAAMwMH4GKACMX4fYITqEARiAARigAEABgAIADMAADMAADNQyQAGApJGJAwzAAAzAwPgZoABA0leb9GHo4zd0dIgOYQAGFmWAAgAMLcoQx8MQDMAADPTPAAUACgAUAGAABmAABmCglgEKAP0nbSTO6AAGYAAGYGBRBlZSALj/ffck4XLUkUfUJhuLDo7jMRAYgAEYgAEYmJ8Bi9WK35Yw6DsxfH6ZwiOygwEYgAEYWAUDPob7uTgFgA276sMVnGE5HPSBPlYRAMZ6Duyjf/ugANC/DsrsF/sYlm7QB/oYa6xdRb+xj37so9cCwCrA4hz9gIXckTsMwAAMbAYDJHCboWfsGT3DAAzAwHozsJI7AIBovSFCv+gXBmAABtafAQoA669j7BgdwwAMwMD6M0ABYMMeAcCo19+o0TE6hgEYWAYDFADgahlc0SZcwQAMwMBqGaAAQAGAlzHCAAzAAAzAQC0DFABWm6CRECNvGIABGICBZTBAAYCkrzbpWwZ4tIlDgwEYgIFxMUABYFz6wr7QFwzAAAzAQIwBCgAUACgAwAAMwAAMwEAtAxQASCSZTMAADMAADIyfAQoAJH21SR+GPn5DR4foEAZgYFEGKADA0KIMcTwMwQAMwED/DFAAoABAAQAGYAAGYAAGahmgANB/0kbijA5gAAZgAAYWZYACAElfbdK3KGQcj6OCARiAgfEzQAFg/DrEDtEhDMAADMAABQAKABQAYAAGYAAGYKCWAQoAJI1MHGAABmAABsbPAAUAkr7apA9DH7+ho0N0CAMwsCgDFABgaFGGOB6GYAAGYKB/BlZSADhw9r4kXI479hgmnj0UH/bs3oXce5B7mbNDH/07Qa8b9IE+SExmGbBYrfhtCYO+E8P7txX8Vf86IH4MSwfoA30Qw8tjuJ+Lr6QAsHPH9iRctm07jIloDxPRk086Hrn3IPcyh4Q+hhWs0Af6IHmYZcBiteK3JQz6Tgzv31bwV/3rwPsL9IE+iB/lDGAf/diHj+F+Lr6SAgAG0Y/SkTtyhwEYgAEY6IoBHgGApa5Yoh1YggEYgIH+GKAAMKCrwRhCf4aA7JE9DMAADFQzQAEAG8FGYAAGYAAGxs8ABQAKADwSAAMwAAMwAAO1DFAAGH/SR+KODmEABmAABigAkPTVJn04ChwFDMAADMAABQAYwA/AAAzAAAyMnwEKABQAKADAAAzAAAzAQC0DFADGn/SRuKNDGIABGIABCgAkfbVJH44CRwEDMAADMEABAAbwAzAAAzAAA+NngAIABQAKADAAAzAAAzBQywAFgPEnfSTu6BAGYAAGYIACAElfbdKHo8BRwAAMwAAMUACAAfwADMAADMDA+BmgAEABgAIADMAADMAADNQyQAFg/EkfiTs6hAEYgAEYoABA0leb9OEocBQwAAMwAAMUAGAAPwADMAADMDB+BlZSANize1cSLrc//FZMPCk+wAAMwAAMwMCAGbBYrfhtCYO+E8PHnwCSxKNDGIABGFhvBnwM93PxFRQATk9OPun4Lctd7nwkSV8PSd+Bs/ch9x7kXuZg0cewHC/6QB8kQ7MMWKxWDLeEQd+J4f3bCv6qfx14f4E+0Afxo5wB7KMf+/Ax3M/HLzjv9OTgWZNs2bv/0i3LJLayat1l5+4tGjxwwiThlsF+FF7mhHbu2E4BYEAFAPSBfZAwlDOAfQzLPojnw9IH9oE+iB/Ej7EwgL8alr9awR0AZzDhHNCEcyyOgn4Oy1GgD/QBAzBAAQAG8AMwAAMwAAPjZ4ACAJNzCjQwAAMwAAMwUMsABYDxJ30k7ugQBmAABmCAAgBJX23Sh6PAUcAADMAADFAAgAH8AAzAAAzAwPgZoABAAYACAAzAAAzAAAzUMkABYPxJH4k7OoQBGIABGKAAQNJXm/ThKHAUMAADMAADFABgAD8AAzAAAzAwfgYoAFAAoAAAAzAAAzAAA7UMUAAYf9JH4o4OYQAGYAAGKACQ9NUmfTgKHAUMwAAMwAAFABjAD8AADMAADIyfAQoAFAAoAMAADMAADMBALQMUAMaf9JG4o0MYgAEYgAEKACR9tUkfjgJHAQMwAAMwQAEABvADMAADMAAD42eAAgAFAAoAMAADMAADMFDLAAWA8Sd9JO7oEAZgAAZgYCUFgPMP7E/C5ZyzHpScceqJxbJn967a5MOAPerIIxrt1xTuTWvvPve+G/JbINHvmhf0sZgTRh/Dkh/6WB99WEy2GG2xWvH7wvPOLL4rhjeN3bGY3DUvm9Ye8WNY9oY+0EfTuccmzmewj9XYh2K35tg+hvu5+EoKAKb0cLn7XY/OJvNadu7Y3mhiagNqY2B1+25ae6b8Opm02b5p8ut6vOhjMYeIPoYlP/SxPvqwmGzx2WK14rcVAPRdMbxp7I7Fla552bT2iB/Dsjf0gT7In8sZwD5WYx+K3Zpf+xju5+IWzw+eNcmWvfsv3bJMYiur1l127t6iwQMnTBJuGVxM4W2cCfsiaxiAARiAgWUxQDyHrWWxRbuwBQMwAAOrY2AldwCg0NUpFFkjaxiAARiAgWUwQAEArpbBFW3CFQzAAAyslgEKAAs8Dw6sq4UVeSNvGIABGOiPAQoA/cke7pE9DMAADMBAVwxQAKAA0Ok7AboCk3ZwcjAAAzAwLAYoAAxLH9gH+oABGIABGJiHAQoAFAAoAMAADMAADMBALQMUAEg050k0OQZuYAAGYGBYDFAAIOmrTfow2mEZLfpAHzAAA30wQAEA7vrgjnPCHQzAAAx0ywAFAAoAFABgAAZgAAZgoJYBCgDdJmAktMgTBmAABmCgDwYoAJD01SZ9fYDJOXGIMAADMDAsBigADEsf2Af6gAEYgAEYmIcBCgAUACgAwAAMwAAMwEAtAxQASDTnSTQ5Bm5gAAZgYFgMUAAg6atN+jDaYRkt+kAfMAADfTBAAQDu+uCOc8IdDMAADHTLwEoKADt3bE/CZdu2w5h4UnyAARiAARiAgQEzYLFa8dsSBn0nhnebjJHcIk8YgAEYgIGuGfAx3M/FV1IAOHD2viRcjjv2GJK+HpK+k086Hrn3IPcyg0Yfw3L26AN9dB18x96exWrFb0sY9J0Y3r+t4K/614G3b/SBPsbu75fZf+yjH/vwMdzPxVdSAFgmULTdDqg9u3dRABhQAQB9tON32faOPtDHshkbc/s8AoB9jJnfZfed+IF9LJuxMbePfQzLPigADGgyOGbDpu/DMmz0gT5gAAa6ZoACAEx1zRTtwRQMwAAMrJ4BCgAUALgjAAZgAAZgAAZqGaAAsPokjcQYmcMADMAADHTNAAUAkr7apK9r6GgPRwYDMAAD42OAAsD4dIadoTMYgAEYgIGQAQoAFAAoAMAADMAADMBALQMUAEgimUjAAAzAAAyMnwEKACR9tUkfhj5+Q0eH6BAGYGBRBigAwNCiDHE8DMEADMBA/wxQAKAAQAEABmAABmAABmoZoADQf9JG4owOYAAGYAAGFmWAAgBJX23StyhkHI+jggEYgIHxM0ABYPw6xA7RIQzAAAzAAAUACgAUAGAABmAABmCglgEKACSNTBxgAAZgAAbGzwAFAJK+2qQPQx+/oaNDdAgDMLAoAxQAYGhRhjgehmAABmCgfwYoAFAAoAAAAzAAAzAAA7UMUADoP2kjcUYHMAADMAADizKwkgLA/e+7JwmXo448ojbZWHRwHI+BwAAMwAAMwMD8DFisVvy2hEHfieHzyxQekR0MwAAMwMAqGPAx3M/FKQBs2FUfruAMy+GgD/SxigAw1nNgH/3bBwWA/nVQZr/Yx7B0gz7Qx1hj7Sr6jX30Yx+9FgBWARbn6Acs5I7cYQAGYGAzGCCB2ww9Y8/oGQZgAAbWm4GV3AEAROsNEfpFvzAAAzCw/gxQAFh/HWPH6BgGYAAG1p8BCgAb9ggARr3+Ro2O0TEMwMAyGKAAAFfL4Io24QoGYAAGVssABQAKALyMEQZgAAZgAAZqGaAAsNoEjYQYecMADMAADCyDAQoAJH21Sd8ywKNNHBoMwAAMjIsBCgDj0hf2hb5gAAZgAAZiDFAAoABAAQAGYAAGYAAGahmgAEAiyWQCBmAABmBg/AxQACDpq036MPTxGzo6RIcwAAOLMkABAIYWZYjjYQgGYAAG+meAAgAFAAoAMAADMAADMFDLAAWA/pM2Emd0AAMwAAMwsCgDFABI+mqTvkUh43gcFQzAAAyMnwEKAOPXIXaIDmEABmAABigAUACgAAADMAADMAADtQxQACBpZOIAAzAAAzAwfgYoAJD01SZ9GPr4DR0dokMYgIFFGaAAAEOLMsTxMAQDMAAD/TOwkgLAgbP3JeFy3LHHMPHsofiwZ/cu5N6D3MucHfro3wl63aAP9EFiMsuAxWrFb0sY9J0Y3r+t4K/61wHxY1g6QB/ogxheHsP9XHwlBYCdO7Yn4bJt22FMRHuYiJ580vHIvQe5lzkk9DGsYIU+0AfJwywDFqsVvy1h0HdieP+2gr/qXwfeX6AP9EH8KGcA++jHPnwM93PxlRQAMIh+lI7ckTsMwAAMwEBXDPAIACx1xRLtwBIMwAAM9McABYABXQ3GEPozBGSP7GEABmCgmgEKANgINgIDMAADMDB+BigAUADgkQAYgAEYgAEYqGWAAsD4kz4Sd3QIAzAAAzBAAYCkrzbpw1HgKGAABmAABigAwAB+AAZgAAZgYPwMUACgAEABAAZgAAZgAAZqGaAAMP6kj8QdHcIADMAADFAAIOmrTfpwFDgKGIABGIABCgAwgB+AARiAARgYPwMUACgAUACAARiAARiAgVoGKACMP+kjcUeHMAADMAADFABI+mqTPhwFjgIGYAAGYIACAAzgB2AABmAABsbPAAUACgAUAGAABmAABmCglgEKAONP+kjc0SEMwAAMwAAFAJK+2qQPR4GjgAEYgAEYoAAAA/gBGIABGICB8TOwkgLAnt27knC5/eG3YuJJ8QEGYAAGYAAGBsyAxWrFb0sY9J0YPv4EkCQeHcIADMDAejPgY7ifi6+gAHB6cvJJx29Z7nLnI0n6ekj6Dpy9D7n3IPcyB4s+huV40Qf6IBmaZcBitWK4JQz6Tgzv31bwV/3rwPsL9IE+iB/lDGAf/diHj+F+Pn7BeacnB8+aZMve/ZduWSaxlVXrLjt3b9HggRMmCbcM9qPwMie0c8d2CgADKgCgD+yDhKGcAexjWPZBPB+WPrAP9EH8IH6MhQH81bD81QruADiDCeeAJpxjcRT0c1iOAn2gDxiAAQoAMIAfgAEYgAEYGD8DFACYnFOggQEYgAEYgIFaBigAjD/pI3FHhzAAAzAAAxQASPpqkz4cBY4CBmAABmCAAgAM4AdgAAZgAAbGzwAFAAoAFABgAAZgAAZgoJYBCgDjT/pI3NEhDMAADMAABQCSvtqkD0eBo4ABGIABGKAAAAP4ARiAARiAgfEzQAGAAgAFABiAARiAARioZYACwPiTPhJ3dAgDMAADMEABgKSvNunDUeAoYAAGYAAGKADAAH4ABmAABmBg/AxQAKAAQAEABmAABmAABmoZoAAw/qSPxB0dwgAMwAAMUAAg6atN+nAUOAoYgAEYgAEKADCAH4ABGIABGBg/AxQAKABQAIABGIABGICBWgYoAIw/6SNxR4cwAAMwAAMrKQCcf2B/Ei7nnPWg5IxTTyyWPbt31SYfBuxRRx7RaL+mcG9ae/e5992Q3wKJfte8oI/FnDD6GJb80Mf66MNissVoi9WK3xeed2bxXTG8aeyOxeSuedm09ogfw7I39IE+ms49NnE+g32sxj4UuzXH9jHcz8VXUgAwpYfL3e96dDaZ17Jzx/ZGE1MbUBsDq9t309oz5dfJpM32TZNf1+NFH4s5RPQxLPmhj/XRh8Vki88WqxW/rQCg74rhTWN3LK50zcumtUf8GJa9oQ/0Qf5czgD2sRr7UOzW/NrHcD8Xt3h+8KxJtuzdf+mWZRJbWbXusnP3Fg0eOGGScMvgYgpv40zYF1nDAAzAAAwsiwHiOWwtiy3ahS0YgAEYWB0DK7kDAIWuTqHIGlnDAAzAAAwsgwEKAHC1DK5oE65gAAZgYLUMUABY4HlwYF0trMgbecMADMBAfwxQAOhP9nCP7GEABmAABrpigAIABYBO3wnQFZi0g5ODARiAgWExQAFgWPrAPtAHDMAADMDAPAxQAKAAQAEABmAABmAABmoZoABAojlPoskxcAMDMAADw2KAAgBJX23Sh9EOy2jRB/qAARjogwEKAHDXB3ecE+5gAAZgoFsGKABQAKAAAAMwAAMwAAO1DFAA6DYBI6FFnjAAAzAAA30wQAGApK826esDTM6JQ4QBGICBYTFAAWBY+sA+0AcMwAAMwMA8DFAAoABAAQAGYAAGYAAGahmgAECiOU+iyTFwAwMwAAPDYoACAElfbdKH0Q7LaNEH+oABGOiDAQoAcNcHd5wT7mAABmCgWwZWUgDYuWN7Ei7bth3GxJPiAwzAAAzAAAwMmAGL1YrfljDoOzG822SM5BZ5wgAMwAAMdM2Aj+F+Lr6SAsCBs/cl4XLcsceQ9PWQ9J180vHIvQe5lxk0+hiWs0cf6KPr4Dv29ixWK35bwqDvxPD+bQV/1b8OvH2jD/Qxdn+/zP5jH/3Yh4/hfi6+kgLAMoGi7XZA7dm9iwLAgAoA6KMdv8u2d/SBPpbN2Jjb5xEA7GPM/C6778QP7GPZjI25fexjWPZBAWBAk8ExGzZ9H5Zhow/0AQMw0DUDFABgqmumaA+mYAAGYGD1DFAAoADAHQEwAAMwAAMwUMsABYDVJ2kkxsgcBmAABmCgawYoAJD01SZ9XUNHezgyGIABGBgfAxQAxqcz7AydwQAMwAAMhAxQAKAAQAEABmAABmAABmoZoABAEslEAgZgAAZgYPwMUAAg6atN+jD08Rs6OkSHMAADizJAAQCGFmWI42EIBmAABvpngAIABQAKADAAAzAAAzBQywAFgP6TNhJndAADMAADMLAoAxQASPpqk75FIeN4HBUMwAAMjJ8BCgDj1yF2iA5hAAZgAAYoAFAAoAAAAzAAAzAAA7UMUAAgaWTiAAMwAAMwMH4GKACQ9NUmfRj6+A0dHaJDGICBRRmgAABDizLE8TAEAzAAA/0zQAGAAgAFABiAARiAARioZYACQP9JG4kzOoABGIABGFiUgZUUAO5/3z1JuBx15BG1ycaig+N4DAQGYAAGYAAG5mfAYrXityUM+k4Mn1+m8IjsYAAGYAAGVsGAj+F+Lk4BYMOu+nAFZ1gOB32gj1UEgLGeA/vo3z4oAPSvgzL7xT6GpRv0gT7GGmtX0W/sox/76LUAsAqwOEc/YCF35A4DMAADm8EACdxm6Bl7Rs8wAAMwsN4MrOQOACBab4jQL/qFARiAgfVngALA+usYO0bHMAADMLD+DFAA2LBHADDq9TdqdIyOYQAGlsEABQC4WgZXtAlXMAADMLBaBigAUADgZYwwAAMwAAMwUMsABYDVJmgkxMgbBmAABmBgGQxQACDpq036lgEebeLQYAAGYGBcDFAAGJe+sC/0BQMwAAMwEGOAAgAFAAoAMAADMAADMFDLAAUAEkkmEzAAAzAAA+NngAIASV9t0oehj9/Q0SE6hAEYWJQBCgAwtChDHA9DMAADMNA/AxQAKABQAIABGIABGICBWgYoAPSftJE4owMYgAEYgIFFGaAAQNJXm/QtChnH46hgAAZgYPwMUAAYvw6xQ3QIAzAAAzBAAYACAAUAGIABGIABGKhlgAIASSMTBxiAARiAgfEzQAGApK826cPQx2/o6BAdwgAMLMoABQAYWpQhjochGIABGOifgZUUAA6cvS8Jl+OOPYaJZw/Fhz27dyH3HuRe5uzQR/9O0OsGfaAPEpNZBixWK35bwqDvxPD+bQV/1b8OiB/D0gH6QB/E8PIY7ufiKykA7NyxPQmXbdsOYyLaw0T05JOOR+49yL3MIaGPYQUr9IE+SB5mGbBYrfhtCYO+E8P7txX8Vf868P4CfaAP4kc5A9hHP/bhY7ifi6+kAIBB9KN05I7cYQAGYAAGumKARwBgqSuWaAeWYAAGYKA/BigADOhqMIbQnyEge2QPAzAAA9UMUADARrARGIABGICB8TNAAYACAI8EwAAMwAAMwEAtAxQAxp/0kbijQxiAARiAAQoAJH21SR+OAkcBAzAAAzBAAQAG8AMwAAMwAAPjZ4ACAAUACgAwAAMwAAMwUMsABYDxJ30k7ugQBmAABmCAAgBJX23Sh6PAUcAADMAADFAAgAH8AAzAAAzAwPgZoABAAYACAAzAAAzAAAzUMkABYPxJH4k7OoQBGIABGKAAQNJXm/ThKHAUMAADMAADFABgAD8AAzAAAzAwfgYoAFAAoAAAAzAAAzAAA7UMUAAYf9JH4o4OYQAGYAAGKACQ9NUmfTgKHAUMwAAMwAAFABjAD8AADMAADIyfgZUUAPbs3pWEy+0PvxUTT4oPMAADMAADMDBgBixWK35bwqDvxPDxJ4Ak8egQBmAABtabAR/D/Vx8BQWA05OTTzp+y3KXOx9J0tdD0nfg7H3IvQe5lzlY9DEsx4s+0AfJ0CwDFqsVwy1h0HdieP+2gr/qXwfeX6AP9EH8KGcA++jHPnwM9/PxC847PTl41iRb9u6/dMsyia2sWnfZuXuLBg+cMEm4ZbAfhZc5oZ07tlMAGFABAH1gHyQM5QxgH8OyD+L5sPSBfaAP4gfxYywM4K+G5a9WcAfAGUw4BzThHIujoJ/DchToA33AAAxQAIAB/AAMwAAMwMD4GaAAwOScAg0MwAAMwAAM1DJAAWD8SR+JOzqEARiAARigAEDSV5v04ShwFDAAAzAAAxQAYAA/AAMwAAMwMH4GKABQAKAAAAMwAAMwAAO1DFAAGH/SR+KODmEABmAABigAkPTVJn04ChwFDMAADMAABQAYwA/AAAzAAAyMnwEKABQAKADAAAzAAAzAQC0DFADGn/SRuKNDGIABGIABCgAkfbVJH44CRwEDMAADMEABAAbwAzAAAzAAA+NngAIABQAKADAAAzAAAzBQywAFgPEnfSTu6BAGYAAGYIACAElfbdKHo8BRwAAMwAAMUACAAfwADMAADMDA+BmgAEABgAIADMAADMAADNQyQAFg/EkfiTs6hAEYgAEYWEkB4PwD+5NwOeesByVnnHpisezZvas2+TBgjzryiEb7NYV709q7z73vhvwWSPS75gV9LOaE0cew5Ic+1kcfFpMtRlusVvy+8Lwzi++K4U1jdywmd83LprVH/BiWvaEP9NF07rGJ8xnsYzX2oditObaP4X4uvpICgCk9XO5+16OzybyWnTu2N5qY2oDaGFjdvpvWnim/TiZttm+a/LoeL/pYzCGij2HJD32sjz4sJlt8tlit+G0FAH1XDG8au2NxpWteNq094sew7A19oA/y53IGsI/V2Idit+bXPob7ubjF84NnTbJl7/5LtyyT2MqqdZedu7do8MAJk4RbBhdTeBtnwr7IGgZgAAZgYFkMEM9ha1ls0S5swQAMwMDqGFjJHQAodHUKRdbIGgZgAAZgYBkMUACAq2VwRZtwBQMwAAOrZYACwALPgwPramFF3sgbBmAABvpjgAJAf7KHe2QPAzAAAzDQFQMUACgAdPpOgK7ApB2cHAzAAAwMiwEKAMPSB/aBPmAABmAABuZhgAIABQAKADAAAzAAAzBQywAFABLNeRJNjoEbGIABGBgWAxQASPpqkz6MdlhGiz7QBwzAQB8MUACAuz6445xwBwMwAAPdMkABgAIABQAYgAEYgAEYqGWAAkC3CRgJLfKEARiAARjogwEKACR9tUlfH2ByThwiDMAADAyLAQoAw9IH9oE+YAAGYAAG5mGAAgAFAAoAMAADMAADMFDLAAUAEs15Ek2OgRsYgAEYGBYDFABI+mqTPox2WEaLPtAHDMBAHwxQAIC7PrjjnHAHAzAAA90ysJICwM4d25Nw2bbtMCaeFB9gAAZgAAZgYMAMWKxW/LaEQd+J4d0mYyS3yBMGYAAGYKBrBnwM93PxlRQADpy9LwmX4449hqSvh6Tv5JOOR+49yL3MoNHHsJw9+kAfXQffsbdnsVrx2xIGfSeG928r+Kv+deDtG32gj7H7+2X2H/voxz58DPdz8ZUUAJYJFG23A2rP7l0UAAZUAEAf7fhdtr2jD/SxbMbG3D6PAGAfY+Z32X0nfmAfy2ZszO1jH8OyDwoAA5oMjtmw6fuwDBt9oA8YgIGuGaAAAFNdM0V7MAUDMAADq2eAAgAFAO4IgAEYgAEYgIFaBigArD5JIzFG5jAAAzAAA10zQAGApK826esaOtrDkcEADMDA+BigADA+nWFn6AwGYAAGYCBkgAIABQAKADAAAzAAAzBQywAFAJJIJhIwAAMwAAPjZ4ACAElfbdKHoY/f0NEhOoQBGFiUAQoAMLQoQxwPQzAAAzDQPwMUACgAUACAARiAARiAgVoGKAD0n7SROKMDGIABGICBRRmgAEDSV5v0LQoZx+OoYAAGYGD8DFAAGL8OsUN0CAMwAAMwQAGAAgAFABiAARiAARioZYACAEkjEwcYgAEYgIHxM0ABgKSvNunD0Mdv6OgQHcIADCzKAAUAGFqUIY6HIRiAARjonwEKABQAKADAAAzAAAzAQC0DFAD6T9pInNEBDMAADMDAogyspABw//vuScLlqCOPqE02Fh0cx2MgMAADMAADMDA/AxarFb8tYdB3Yvj8MoVHZAcDMAADMLAKBnwM93NxCgAbdtWHKzjDcjjoA32sIgCM9RzYR//2QQGgfx2U2S/2MSzdoA/0MdZYu4p+Yx/92EevBYBVgMU5+gELuSN3GIABGNgMBkjgNkPP2DN6hgEYgIH1ZmAldwAA0XpDhH7RLwzAAAysPwMUANZfx9gxOoYBGICB9WeAAsCGPQKAUa+/UaNjdAwDMLAMBigAwNUyuKJNuIIBGICB1TJAAYACAC9jhAEYgAEYgIFaBigArDZBIyFG3jAAAzAAA8tggAIASV9t0rcM8GgThwYDMAAD42KAAsC49IV9oS8YgAEYgIEYAxQAKABQAIABGIABGICBWgYoAJBIMpmAARiAARgYPwMUAEj6apM+DH38ho4O0SEMwMCiDFAAgKFFGeJ4GIIBGICB/hmgAEABgAIADMAADMAADNQyQAGg/6SNxBkdwAAMwAAMLMoABQCSvtqkb1HIOB5HBQMwAAPjZ4ACwPh1iB2iQxiAARiAAQoAFAAoAMAADMAADMBALQMUAEgamTjAAAzAAAyMnwEKACR9tUkfhj5+Q0eH6BAGYGBRBigAwNCiDHE8DMEADMBA/wyspABw4Ox9Sbgcd+wxTDx7KD7s2b0Lufcg9zJnhz76d4JeN+gDfZCYzDJgsVrx2xIGfSeG928r+Kv+dUD8GJYO0Af6IIaXx3A/F19JAWDnju1JuGzbdhgT0R4moiefdDxy70HuZQ4JfQwrWKEP9EHyMMuAxWrFb0sY9J0Y3r+t4K/614H3F+gDfRA/yhnAPvqxDx/D/Vx8JQUADKIfpSN35A4DMAADMNAVAzwCAEtdsUQ7sAQDMAAD/TFAAWBAV4MxhP4MAdkjexiAARioZoACADaCjcAADMAADIyfAQoAFAB4JAAGYAAGYAAGahmgADD+pI/EHR3CAAzAAAxQACDpq036cBQ4ChiAARiAAQoAMIAfgAEYgAEYGD8DFAAoAFAAgAEYgAEYgIFaBigAjD/pI3FHhzAAAzAAAxQASPpqkz4cBY4CBmAABmCAAgAM4AdgAAZgAAbGzwAFAAoAFABgAAZgAAZgoJYBCgDjT/pI3NEhDMAADMAABQCSvtqkD0eBo4ABGIABGKAAAAP4ARiAARiAgfEzQAGAAgAFABiAARiAARioZYACwPiTPhJ3dAgDMAADMEABgKSvNunDUeAoYAAGYAAGKADAAH4ABmAABmBg/AyspACwZ/euJFxuf/itmHhSfIABGIABGICBATNgsVrx2xIGfSeGjz8BJIlHhzAAAzCw3gz4GO7n4isoAJyenHzS8VuWu9z5SJK+HpK+A2fvQ+49yL3MwaKPYTle9IE+SIZmGbBYrRhuCYO+E8P7txX8Vf868P4CfaAP4kc5A9hHP/bhY7ifj19w3unJwbMm2bJ3/6VblklsZdW6y87dWzR44IRJwi2D/Si8zAnt3LGdAsCACgDoA/sgYShnAPsYln0Qz4elD+wDfRA/iB9jYQB/NSx/tYI7AM5gwjmgCedYHAX9HJajQB/oAwZggAIADOAHYAAGYAAGxs8ABQAm5xRoYAAGYAAGYKCWAQoA40/6SNzRIQzAAAzAAAUAkr7apA9HgaOAARiAARigAAAD+AEYgAEYgIHxM0ABgAIABQAYgAEYgAEYqGWAAsD4kz4Sd3QIAzAAAzBAAYCkrzbpw1HgKGAABmAABigAwAB+AAZgAAZgYPwMUACgAEABAAZgAAZgAAZqGaAAMP6kj8QdHcIADMAADFAAIOmrTfpwFDgKGIABGIABCgAwgB+AARiAARgYPwMUACgAUACAARiAARiAgVoGKACMP+kjcUeHMAADMAADFABI+mqTPhwFjgIGYAAGYIACAAzgB2AABmAABsbPAAUACgAUAGAABmAABmCglgEKAONP+kjc0SEMwAAMwMBKCgDnH9ifhMs5Zz0oOePUE4tlz+5dtcmHAXvUkUc02q8p3JvW3n3ufTfkt0Ci3zUv6GMxJ4w+hiU/9LE++rCYbDHaYrXi94XnnVl8VwxvGrtjMblrXjatPeLHsOwNfaCPpnOPTZzPYB+rsQ/Fbs2xfQz3c/GVFABM6eFy97senU3mtezcsb3RxNQG1MbA6vbdtPZM+XUyabN90+TX9XjRx2IOEX0MS37oY330YTHZ4rPFasVvKwDou2J409gdiytd87Jp7RE/hmVv6AN9kD+XM4B9rMY+FLs1v/Yx3M/FLZ4fPGuSLXv3X7plmcRWVq277Ny9RYMHTpgk3DK4mMLbOBP2RdYwAAMwAAPLYoB4DlvLYot2YQsGYAAGVsfASu4AQKGrUyiyRtYwAAMwAAPLYIACAFwtgyvahCsYgAEYWC0DFAAWeB4cWFcLK/JG3jAAAzDQHwMUAPqTPdwjexiAARiAga4YoABAAaDTdwJ0BSbt4ORgAAZgYFgMUAAYlj6wD/QBAzAAAzAwDwMUACgAUACAARiAARiAgVoGKACQaM6TaHIM3MAADMDAsBigAEDSV5v0YbTDMlr0gT5gAAb6YIACANz1wR3nhDsYgAEY6JYBCgAUACgAwAAMwAAMwEAtAxQAuk3ASGiRJwzAAAzAQB8MUAAg6atN+voAk3PiEGEABmBgWAxQABiWPrAP9AEDMAADMDAPAxQAKABQAIABGIABGICBWgYoAJBozpNocgzcwAAMwMCwGKAAQNJXm/RhtMMyWvSBPmAABvpggAIA3PXBHeeEOxiAARjoloGVFAB27tiehMu2bYcx8aT4AAMwAAMwAAMDZsBiteK3JQz6TgzvNhkjuUWeMAADMAADXTPgY7ifi6+kAHDg7H1JuBx37DEkfT0kfSefdDxy70HuZQaNPobl7NEH+ug6+I69PYvVit+WMOg7Mbx/W8Ff9a8Db9/oA32M3d8vs//YRz/24WO4n4uvpACwTKBoux1Qe3bvogAwoAIA+mjH77LtHX2gj2UzNub2eQQA+xgzv8vuO/ED+1g2Y2NuH/sYln1QABjQZHDMhk3fh2XY6AN9wAAMdM0ABQCY6pop2oMpGIABGFg9AxQAKABwRwAMwAAMwAAM1DJAAWD1SRqJMTKHARiAARjomgEKACR9tUlf19DRHo4MBmAABsbHAAWA8ekMO0NnMAADMAADIQMUACgAUACAARiAARiAgVoGKACQRDKRgAEYgAEYGD8DFABI+mqTPgx9/IaODtEhDMDAogxQAIChRRnieBiCARiAgf4ZoABAAYACAAzAAAzAAAzUMkABoP+kjcQZHcAADMAADCzKAAUAkr7apG9RyDgeRwUDMAAD42eAAsD4dYgdokMYgAEYgAEKABQAKADAAAzAAAzAQC0DFABIGpk4wAAMwAAMjJ8BCgAkfbVJH4Y+fkNHh+gQBmBgUQYoAMDQogxxPAzBAAzAQP8MUACgAEABAAZgAAZgAAZqGaAA0H/SRuKMDmAABmAABhZlYCUFgPvfd08SLkcdeURtsrHo4DgeA4EBGIABGICB+RmwWK34bQmDvhPD55cpPCI7GIABGICBVTDgY7ifi1MA2LCrPlzBGZbDQR/oYxUBYKznwD76tw8KAP3roMx+sY9h6QZ9oI+xxtpV9Bv76Mc+ei0ArAIsztEPWMgducMADMDAZjBAArcZesae0TMMwAAMrDcDK7kDAIjWGyL0i35hAAZgYP0ZoACw/jrGjtExDMAADKw/AxQANuwRAIx6/Y0aHaNjGICBZTBAAQCulsEVbcIVDMAADKyWAQoAFAB4GSMMwAAMwAAM1DJAAWC1CRoJMfKGARiAARhYBgMUAEj6apO+ZYBHmzg0GIABGBgXAxQAxqUv7At9wQAMwAAMxBigAEABgAIADMAADMAADNQyQAGARJLJBAzAAAzAwPgZoABA0leb9GHo4zd0dIgOYQAGFmWAAgAMLcoQx8MQDMAADPTPAAUACgAUAGAABmAABmCglgEKAP0nbSTO6AAGYAAGYGBRBigAkPTVJn2LQsbxOCoYgAEYGD8DFADGr0PsEB3CAAzAAAxQAKAAQAEABmAABmAABmoZoABA0sjEAQZgAAZgYPwMUAAg6atN+jD08Rs6OkSHMAADizJAAQCGFmWI42EIBmAABvpnYCUFgANn70vC5bhjj2Hi2UPxYc/uXci9B7mXOTv00b8T9LpBH+iDxGSWAYvVit+WMOg7Mbx/W8Ff9a8D4sewdIA+0AcxvDyG+7n4SgoAO3dsT8Jl27bDmIj2MBE9+aTjkXsPci9zSOhjWMEKfaAPkodZBixWK35bwqDvxPD+bQV/1b8OvL9AH+iD+FHOAPbRj334GO7n4ispAGAQ/SgduSN3GIABGICBrhjgEQBY6ool2oElGIABGOiPAQoAA7oajCH0ZwjIHtnDAAzAQDUDFACwEWwEBmAABmBg/AxQAKAAwCMBMAADMAADMFDLAAWA8Sd9JO7oEAZgAAZggAIASV9t0oejwFHAAAzAAAxQAIAB/AAMwAAMwMD4GaAAQAGAAgAMwAAMwAAM1DJAAWD8SR+JOzqEARiAARigAEDSV5v04ShwFDAAAzAAAxQAYAA/AAMwAAMwMH4GKABQAKAAAAMwAAMwAAO1DFAAGH/SR+KODmEABmAABigAkPTVJn04ChwFDMAADMAABQAYwA/AAAzAAAyMnwEKABQAKADAAAzAAAzAQC0DFADGn/SRuKNDGIABGIABCgAkfbVJH44CRwEDMAADMEABAAbwAzAAAzAAA+NnYCUFgD27dyXhcvvDb8XEk+IDDMAADMAADAyYAYvVit+WMOg7MXz8CSBJPDqEARiAgfVmwMdwPxdfQQHg9OTkk47fstzlzkeS9PWQ9B04ex9y70HuZQ4WfQzL8aIP9EEyNMuAxWrFcEsY9J0Y3r+t4K/614H3F+gDfRA/yhnAPvqxDx/D/Xz8gvNOTw6eNcmWvfsv3bJMYiur1l127t6iwQMnTBJuGexH4WVOaOeO7RQABlQAQB/YBwlDOQPYx7Dsg3g+LH1gH+iD+EH8GAsD+Kth+asV3AFwBhPOAU04x+Io6OewHAX6QB8wAAMUAGAAPwADMAADMDB+BigAMDmnQAMDMAADMAADtQxQABh/0kfijg5hAAZgAAYoAJD01SZ9OAocBQzAAAzAAAUAGMAPwAAMwAAMjJ8BCgAUACgAwAAMwAAMwEAtAxQAxp/0kbijQxiAARiAAQoAJH21SR+OAkcBAzAAAzBAAQAG8AMwAAMwAAPjZ4ACwIYVAI468ggm/APSOfoYlhNFH+iDxKacAQoA2Af2Uc4A8QP7wD6wj7EwQAFgQJPBVUBDAjesAIU+0Mcq7H6s58A+sI+xsruKfmMf2McqOBvrObAP7GOs7K6i36MrAHRdYd209rp2iJsmv67Hiz4WC1DoY1jyQx/oo03i0jUvm9Ye8WNY9oY+0Af+b3V3kG2av+96vKMrAHTtYGlvMYeN/JBfm4AHL/ACL6tLkLA37A17w97EAP4Af4A/wB94f3DwrEliy979l25ZJrGVVesuO3dv1pgtB06YJDgcHA4OB4dDArKYH0B+yK+NH4UXeIGXegbIT+tlVMUR8kN+bfwMvAyPl6UXAJ75xNOTcHnqH/1Ocv6B/cVyzlkPSs449cTaxQBqsl/TfWivXuZVskR+yK+prdl+8AIv8FLOwBDtw2KzYrX1T9+bxmzixyF9D1G/Xj/0D/+Mfx6Xf8Z+F7PZdZSfj9kWr22+HZuHr+QRgP/1gPsk4fLzx98zuc+971Ysd7/r0Yk931C3XHjembX71LXht9Nevcyr5In8kB/2Vs4A9oF9jN0+LDYrVhvP+t40ZhM/DtkA/gB/MHZ/QP68GMPID/m18QHz8OJjtsVrm2/H5uEWj5Z+B0CbW0Tq9uUWkuHdQlKnszbb0S/6hRceGeEW9sX8APJDfm38KLzAC7zUM0B+Wi8jHhk5JKMx8DKqAoDdrjGPoyo7ZtPas4oP8pvfiXXNC/qYXxfGMfoYlvzQB/poE1+65mXT2iN+DMve0Af6wP+VM4B9DMs+VvIIQBuDYN/FAKmTX9cVqbrzsb1an+hjuby35Q99oI+2zGzS/tgH9rFJvLcdK/aBfbRlZpP2xz6GZx+jugNgk4xlGWPt+grJMvq4SW2ij2E5RPSBPjbJ/7QdKwkc9tGWmU3an/iBfWwS723Hin0Myz64AyC9jbgtxOyPzGAABmAABjaNAQoAML9pzDNemIcBGFhHBigAUACgAAIDMAADMAADtQxQACARXsdEmDHBNQzAwKYxQAGApK826ds0o2C8BAIYgAEY2MoABQDsAruAARiAARgYPwMUACgAUACAARiAARiAgVoGKACMP+kjcUeHMAADMAADFABI+mqTPhwFjgIGYAAGYIACAAzgB2AABmAABsbPAAUACgAUAGAABmAABmCglgEKAONP+kjc0SEMwAAMwMBKCgA7d2xPwmXbtsNqkw0ABVAYgAEYgAEY6I8Bi9WK35Yw6DsxvD+dYA/IHgZgAAZgoAkDPob7ufhKCgAHzt6XhMtxxx5DAaCHK04nn3Q8cu9B7mVGij6G5cDRB/poElA3aR+L1YrfljDoOzG8f1vBX/WvA+8L0Af62KTY0Has2Ec/9uFjuJ+Lr6QA0BYS9l8eJHt276IAMKACAPpYHuvz+BH0gT7m4WZTjuERAOxjU1ifZ5zED+xjHm425RjsY1j2QQFgQJPBTXECjHNYTgB9oA8YgIEmDFAAgJMmnLAPnMAADMDAsBmgAEABgDsCYAAGYAAGYKCWAQoAw07oSLjRDwzAAAzAQBMGKACQ9NUmfU1AYh8cDgzAAAysNwMUANZbv9gv+oUBGICBzWCAAgAFAAoAMAADMAADMFDLAAWAzUgMmQCgZxiAARhYbwYoAJD01SZ9OIH1dgLoF/3CAAw0YSBWADj6aGTXRHbsAycwAAMwAANDYYACAAUACgAwAAMwAAMwUMtArADwT+8goRtKQkc/YBEGYAAGYKAJAxQASPpqk74mILEPDgcGYAAG1puBWAHg3e9Z7zHDNPqFARiAARhYNwYoAFAAoAAAAzAAAzAAA7UM+ALAox41TQg/8EESw3VLDBkPTMMADMDAejNAAYCkrzbpwwmstxNAv+gXBmCgCQO+AKAr/1dcieyayI594AQGYAAGYGAoDFAAoABAAQAGYAAGYAAGahlQAeDIIyfJe947Se5wx0ly5VUkdENJ6OgHLMIADMAADDRhYCUFgPvfd08SLkcdeURtstFkAOwD6DAAAzAAAzCwHAYsVit+W8Jg31/zij3JWy8/Irn8LZPk459YznnRJ3KFARiAARiAgcUY8DHcz8UpAGzYVR/+jvNihtS1I0If6KNrptapPeyjf/uIFQBe99ppAcAeA7jqw/33cZ2YbzMW7GNY7KEP9NHGfjdtX+yjH/votQCwaZAz3n4gR+7IHQZgAAaWx4AlcI985CS57nOT5BOfnCSfTJdPfGx550OXyBYGYAAGYAAGumdgJXcAoLjuFYdMkSkMwAAMwMAqGbCEwV7696UvpUWA6/LPa9HBKnXAueANBmAABmBgUQYoAGzYIwCLAsPxOB0YgAEY2EwGLGG4+iOT5MtpAeDzn59+fu7TmykLbAC9wwAMwAAMjJUBCgAUAHgZIwzAAAzAAAzUMmAJw9e+Nkm+8dV0+cb081//lQRwrAkg/YZdGIABGNhMBigAkPTVJn04h810DugdvcMADHgGLGG44YZJckM68denPQ4AJ8gABmAABmAABsbDAAUACgAkbzAAAzAAAzBQy4AKAN/+90ny7W+nRYCvT98DQNKHDGAABmAABmBgPAxQACDpI3mDARiAARiAgVoGVAD4Tjr5/853pncBfPGL40l4SE7RFQzAAAzAAAxMEgoAJH21SR+GgrOEARiAARjwjwB885vTAoD9NQDYQAYwAAMwAAMwMB4GKABQACB5gwEYgAEYgIFaBooCQDrx/8//pABAsjueZBddoSsYgAEYOMQABQCSvtqkD4PBacIADMAADGQFgPSvAHzlK5PkW/YywPT7dfwZQGIoeRQMwAAMwMCoGKAAALCjApZJCJMQGIABGOiHgawAkL/4L/tLAOly3bX99AUGkDsMwAAMwAAMzMfASgoAB87el4TLcccew8Szh+LDnt27kHsPci9zUOhjPse1LIePPtDHstgaa7sWqxW/LWG45Nn7kj9/1r7krQePSf71egoAfeoVf4W/6pO/oZ8b+8A+hs7oKvrnY7ifi6+kALBzx/YkXLZtO4yJaA8T0ZNPOh659yD3MiNHH8MKUOgDfawiII/pHBarFb8tYfjoR7Yn73rX9uT9HzgsueJKCgB96hJ/hb/qk7+hnxv7wD6Gzugq+udjuJ+Lr6QAsIoBco5hGTr6QB8wAAMwsF4MWMJgb/23ib8WHgFYLx1js+gTBmAABtafAQoAA7oajMGtv8GhY3QMAzAwVgYsYbjyqklywgmHlve/B32OVZ/0G3ZhAAZgYDMZoABAAYBHAmAABmAABmCglgFLGN4dTPjfdvlmJk8kzegdBmAABmBgrAxQACDpq036xgo3/cYxwwAMwEB3DFAA6E6WcIksYQAGYAAG+mKAAgAFAAoAMAADMAADMFDLAAUAktW+klXOC3swAAMw0B0DFABI+mqTPgyuO4NDlsgSBmBgrAxQAIDdsbJLv2EXBmAABg4xQAGAAgAFABiAARiAARioZYACAAk0CTQMwAAMwMD4GaAAQNJXm/Rh6OM3dHSIDmEABhZlgAIADC3KEMfDEAzAAAz0zwAFAAoAFABgAAZgAAZgoJYBSxhe8tLZxIW/AtB/IkcyjQ5gAAZgAAbaMEABgKSvNulrAxT74oBgAAZgYD0ZsIThRjeiAADf68k3ekWvMAADm8LASgoAe3bvSsLl9offioknxQcYgAEYgAEYGDADFqsVvy1h0HfFcO4AIGHelISZccI6DMDA2BjwMdzPxVdQADg9Ofmk47csd7nzkSR9PSR9B87eh9x7kHuZw0Afwwom6AN9jC24L7u/FqsVwy1h0HfFcAoA/dkM/qo/2cfsDn2gj2X74zG3j330Yx8+hvv5+AXnnZ4cPGuSLXv3X7plmcRWVq277Ny9RYMHTpgkljCMGdh16/vOHdvRx4AKAOijH4dYZtfoA32sm8/vcjyxeE4BoD+bwV/1J/uYXaEP9NGlv123trCPYdnHCu4AoACwbkbMeIZlxOgDfcAADKyCAQoAcLYKzjgHnMEADMDAchmgADCgq8HAvlzYkS/yhQEYgIH5GaAAML/s4A7ZwQAMwAAMDIUBCgAUAHgkAAZgAAZgAAZqGaAAQPI6lOSVfsAiDMAADMzPAAUAkr7apA8Dm9/AkB2ygwEYWBcGKADA8rqwzDhgGQZgYJMZoABAAYACAAzAAAzAAAzUMkABgIR5kxNmxg7/MAAD68IABQCSvtqkb11gZxw4bhiAARiYnwEKAPPLDu6QHQzAAAzAwFAYoABAAYACAAzAAAzAAAzUMkABgOR1KMkr/YBFGIABGJifAQoAJH21SR8GNr+BITtkBwMwsC4MUACA5XVhmXHAMgzAwCYzQAGAAgAFABiAARiAARioZYACAAnzJifMjB3+YQAG1oUBCgAkfbVJ37rAzjhw3DAAAzAwPwMUAOaXHdwhOxiAARiAgaEwsJICwPkH9ifhcs5ZD0rOOPXEYtmze1ejiehRRx7RaL+mAt609u5z77shvwWKPl3zgj4WCwboY1jyQx/row+LyRajLVYrfl943pnFd8Xw17yiWeyOxeSuedm09ogfw7I39IE+ms49bD/81bB4WRd9KHZrju1juJ+Lr6QAYE4xXO5+16Mz+LXs3LG90cTUBtTGwOr23bT2TPl1MmmzfdPk1/V40cdiAQB9DEt+6GN99GEx2eKzxWrFbysA6Lti+Bvf0Cx2x+JK17xsWnvEj2HZG/pAH+TP5QxgH6uxD8Vuza99DPdzcYvnB8+aZMve/ZduWSaxlVXrLjt3b9HggRMmSeyWwTYGwr6LAYP8kB8MwAAMwEAXDPAIABx1wRFtwBEMwAAM9MvASu4AQMn9Khn5I38YgAEYgIFFGaAAAEOLMsTxMAQDMAAD/TNAAWCB58EBuH+A0QE6gAEYgIHVMEABYDVyhmfkDAMwAAMwsEwGKABQAOj0nQDLhJW2cYYwAAMw0B8DFAD6kz3cI3sYgAEYgIGuGKAAQAGAAgAMwAAMwAAM1DJAAYDks6vkk3ZgCQZgAAb6Y4ACAElfbdKHgfZnoMge2cMADAyFAQoAsDgUFukHLMIADMDA/AxQAKAAQAEABmAABmAABmoZoAAwf7JFoorsYAAGYAAGhsIABQCSvtqkbyiw0g8cJwzAAAz0xwAFgP5kD/fIHgZgAAZgoCsGKABQAKAAAAMwAAMwAAO1DFAAIPnsKvmkHViCARiAgf4YoABA0leb9GGg/Rkoskf2MAADQ2GAAgAsDoVF+gGLMAADMDA/AyspAOzcsT0Jl23bDmPiSfEBBmAABmAABgbMgMVqxW9LGPRdMfxtl8+fgJC8ITsYgAEYgAEYWB4DPob7ufhKCgAHzt6XhMtxxx5D0tdD0nfySccj9x7kXubc0MfynN48AQV9oI95uFnnYyxWK35bwqDviuEUAPqzGfxVf7KP2Tz6QB/rHAsWHRv20Y99+Bju5+IrKQAsCg3HdwfNnt27KAAMqACAPrpjuws/gT7QRxccrWsbPAKAfawr212Mi/iBfXTB0bq2gX0Myz4oAAxoMriuRs+4hmX06AN9wAAMzMMABQC4mYcbjoEbGIABGBgWAxQAKABwRwAMwAAMwAAM1DJAAWBYCRwJNfqAARiAARiYhwEKACR9tUnfPGBxDA4JBmAABtaLAQoA66VP7BN9wgAMwMBmMkABgAIABQAYgAEYgAEYqGWAAsBmJopMENA7DMAADKwXAxQASPpqkz6Mfr2MHn2iTxiAgXkYoAAAN/NwwzFwAwMwAAPDYoACAAUACgAwAAMwAAMwUMsABYBhJXAk1OgDBmAABmBgHgYoAJD01SZ984DFMTgkGIABGFgvBigArJc+sU/0CQMwAAObyQAFAAoAFABgAAZgAAZgoJYBCgCbmSgyQUDvMAADMLBeDFAAIOmrTfow+vUyevSJPmEABuZhgAIA3MzDDcfADQzAAAwMiwEKABQAKADAAAzAAAzAQC0DFACGlcCRUKMPGIABGICBeRhYSQHg/vfdk4TLUUceUZtszDMgjsEQYAAGYAAGYKAbBixWK35bwqDviuFvu7yb86Av5AgDMAADMAAD3TLgY7ifi1MA2LCrPrErOBhbt8bWRp7ooz/Zx/SEPtBHG/vdhH0pAAzLJjxz+Kth6QZ9oI9NiAnzjhH76Mc+ei0AzAsLx/UDC3JH7jAAAzAAAyEDPAIAE/gFGIABGICB8TOwkjsAAGX8oKBDdAgDMAADm80ABYDN1j/2j/5hAAZgYD0YoACwYY8AYLjrYbjoET3CAAysmgEKADC3auY4H8zBAAzAQPcMUACgAMDLGGEABmAABmCglgEKAN0nYSS2yBQGYAAGYGDVDFAAIOmrTfpWDSXnwxHCAAzAwPAYoAAwPJ1gJ+gEBmAABmCgLQMUACgAUACAARiAARiAgVoGKACQZLZNMtkfZmAABmBgeAxQACDpq036MNzhGS46QScwAAOrZoACAMytmjnOB3MwAAMw0D0DFAAoAFAAgAEYgAEYgIFaBigAdJ+EkdgiUxiAARiAgVUzQAGApK826Vs1lJwPRwgDMAADw2OAAsDwdIKdoBMYgAEYgIG2DFAAoABAAQAGYAAGYAAGahmgAECS2TbJZH+YgQEYgIHhMUABgKSvNunDcIdnuOgEncAADKyaAQoAMLdq5jgfzMEADMBA9wyspABw4Ox9Sbgcd+wxTDx7KD7s2b0Lufcg9zLnhT66d2qLBAr0gT4W4Wcdj7VYrfhtCYO+K4a/7fJhMbOOOiB+jIMx4sew9IQ+0McmxYOysfoY7ufiKykA7NyxPQmXbdsOYyLaw0T05JOOR+49yL3MMNHHsAIU+kAfJAyzDFisVvy2hEHfFcMpAPRnM/ir/mQf8xPoA30QP8oZwD76sQ8fw/1cfCUFAAyiH6Ujd+QOAzAAAzDQFQM8AgBLXbFEO7AEAzAAA/0xQAFgQFeDMYT+DAHZI3sYgAEYqGaAAgA2go3AAAzAAAyMnwEKABQAeCQABmAABmAABmoZoAAw/qSPxB0dwgAMwAAMUAAg6atN+nAUOAoYgAEYgAEKADCAH4ABGIABGBg/AxQAKABQAIABGIABGICBWgYoAIw/6SNxR4cwAAMwAAMUAEj6apM+HAWOAgZgAAZggAIADOAHYAAGYAAGxs8ABQAKABQAYAAGYAAGYKCWAQoA40/6SNzRIQzAAAzAAAUAkr7apA9HgaOAARiAARigAAAD+AEYgAEYgIHxM0ABgAIABQAYgAEYgAEYqGWAAsD4kz4Sd3QIAzAAAzBAAYCkrzbpw1HgKGAABmAABigAwAB+AAZgAAZgYPwMrKQAsGf3riRcbn/4rZh4UnyAARiAARiAgQEzYLFa8dsSBn1XDH/b5eNPhEhm0SEMwAAMwMA6MuBjuJ+Lr6AAcHpy8knHb1nucucjSfp6SPoOnL0Pufcg9zKngj6GFXDQB/pYxwRgkTFZrFYMt4RB3xXDKQD0ZzP4q/5kH7Mp9IE+FvG1634s9tGPffgY7ufjF5x3enLwrEm27N1/6ZZlEltZte6yc/cWDR44YZLEbhlcd8iHPL6dO7ZTABhQAQB99OMQy2wUfaCPIfvvvvvGIwDYR98MDvn8xA/sY8h89t037GNY9rGCOwDOYMI5oAln3w6A8w/LAaAP9AEDMNCEgR/4gXhBnzsA4KcJP+wDJzAAAzAwHAYoADA5p0ADAzAAAzAAA5UM/MPfUQAgeR1O8oou0AUMwAAMTJJjjpkkb3pTexYoAJD0kfjDAAzAAAzAQCUDdqWfRwDaJ1kkqMgMBmAABmCgawZue9tJctllk+SrX50kSdJevhQASPpI/GEABmAABmCAAgAM4AdgAAZgAAYGzMBNbzpJDhyYJF//+iT59renk38KAANWWNeVH9prX+1CZsgMBmAABuZjgDsA5pMbvCE3GIABGICBLhg45ZRJ8sUvTif/mvhTAGDyT8UOBmAABmAABpbCAAUAEtguEljagCMYgAEYaMfAHe84Sd7//knyzW9unfirAPDGN06SNsunrzki+dJHJ9nCnwEkcVxK4oihtzN05IW8YAAGhsYABQCYHBqT9AcmYQAGNoWBn/u5SfKpT02Sr30tXgQ47rhJ0mZ5xUt/KXnvcybZQgGAAgAFABiAARiAARjYwgAFABLtTUm0GSeswwAMDJGBm9xkkpxxxvTFf+HdAG37y0sASfRI9mEABmAABmCAlwDCAH4ABmAABmBg4Ax8z/dMkuc+d5LccMMk+c53eAkgwA4c2LbVKfanAgsDMAAD/TNgtxVyB0D/esAW0AEMwAAMwIAYuNOdJsmb3zzgAsD5B/Yn4XLOWQ9Kzjj1xGLZs3tXown8UUce0Wi/pgayae3d5953Q34LFEq65gV9LObI0cew5Ic+1kcfFpMtRlusvuip+5PnPGV/cuF5ZxaxXDH8Na9oFrtjMblrXjatPeLHsOwNfaCPpnMP2w9/NSxexqyPX/zFQ7JU7NYc22J1bB6+kkcAzCmGy93venQGv5adO7Y3mpjagNoYWN2+m9aeQVAnkzbbN01+XY8XfSwWANDHsOSHPtZHHxaTLT5brP6rV98tefXL7pYVABTLFcPf+IZmsTsWV7rmZdPaI34My97QB/ogfy5nAPtYjX0odmt+bbE6Ng+3eH7wrEm28BLABa4MtzF69l3MCJAf8oMBGICB1THw7vfwCAC8rY43ZI2sYQAGYGC5DKzkDgCUuFwlIl/kCwMwAAMwsCwGKADA1rLYol3YggEYgIHVM0ABgKv+nT4SgBGv3oiROTKHARhYJgPvfR93ACxTvrSN/cIADMAADKySAQoAFAAoAMAADMAADMBAKQNXXEkBYJWJGediIgADMAADMLBMBigAkPSR+MMADMAADMAABQAYwA/AAAzAAAxsAAMUADZAycusINE2FUoYgAEYWG8G7A6A9713kljCEOr6bZev99hhG/3CAAzAAAysGwMUACgAUOmDARiAARiAgco7AKwIQAGAJHjdkmDGA9MwAAObyAAFAJI+En8YgAEYgAEYqCwAXH01BYBNTBIZM5MjGIABGFg/BigAkPSR+MMADMAADMBAZQHgumspAJAEr18SjE7RKQzAwCYyQAGApI/EHwZgAAZgAAYoAMAAfgAGYAAGYGADGFhJAWDnju1JuGzbdhiAbQBgm1hVY8xUk2EABtaFAYvVV35we/LJT2zP3gGgWK4YzksAYX1dWGccsAwDMLBuDFisjs3DV1IAOHD2viRcjjv2GAoAPRQATj7peOTeg9zLHAr6GFawQR/oY92C/6LjsVh98YX7kkuevS8rACiWK4ZTAOjPZvBX/ck+ZlfoA30s6m/X+Xjsox/7sFgdm4evpACwzkCPbWx7du+iADCgAgD66Mchltkt+kAfY/Ppq+jvxz8xSf7ty7wDYBWybnMO/BX+qg0vm7Yv9oF9bBrzbcZLAWBAk8E2imPfYTk29IE+YAAG1pUBKwDc8FUKAOuqX8aF74IBGICBzWKAAgAFAO4IgAEYgAEYgIFSBigAbFZiyEQAfcMADMDAejNAAYCkj8QfBmAABmAABkoZuPaa9A6Ar3MHAAnxeifE6Bf9wgAMbAoDFABI+kj8YQAGYAAGYKCUgeuupQCwKUkh42QCBAMwAAPrzwAFAJI+En8YgAEYgAEYqC4AfI07AEiK1z8pRsfoGAZgYBMYoABA0kfiDwMwAAMwAAPVBYAbKABsQlLIGJn8wAAMwMD6M0ABgKSPxB8GYAAGYAAGuAMABvADMAADMAADG8AABYANUDKVvPWv5KFjdAwDMLAsBq77DO8AWJZsaRe7hQEYgAEYWDUDFAAoAFDpgwEYgAEYgIHyOwA+mxYAvsEjAKtO0DgfkwIYgAEYgIFlMEABgKSPxB8GYAAGYAAGqh8B+CoFgGUkYbRJcg8DMAADMLBqBlZSALj/ffck4XLUkUeQcJJwwgAMwAAMwMCAGbBY/Ya/3pO85e/3JJYwKJYrhr/tchK3VSdunA/mYAAGYAAGmjBgsTo2D6cAMODEq4li2+5jCm97DPsvz8mgj+XJdh5u0Qf6mIebdT5GBYA3vYECwND0jL/CXw2NySH1B/vAPobEY1996bUA0NegOe+wjB99oA8YgAEYGB8D1107Sb70JR4BgN3xsYvO0BkMwAAMbGVgJXcAIHiMDwZgAAZgAAbGyYAVAK6/ngIA/I6TX/SG3mAABmBglgEKABv2CAAGgBOEARiAARhow4AVAK67jgJAG5mxLzYGAzAAAzAwVAYoAFAA4J0AMAADMAADMFD5VwAoAJDIDjWRpV+wCQMwAAPtGKAAQNJH4g8DMAADMAADpQy8952T5CMf5Q4AEsx2CSbyQl4wAAMwMEwGKACQ9JH4wwAMwAAMwEApA/an/q64kgIAiewwE1n0gl5gAAZgoB0DFABI+kj8YQAGYAAGYKCyAHDRn1IAIMFsl2AiL+QFAzAAA8NkgAIASR+JPwzAAAzAAAxUFgAsiYv9XW27O4AEDxnAAAzAAAzAwHgYoABA0kfyBgMwAAMwAAMUAGAAPwADMAADMLABDFAA2AAlU5EbT0UOXaErGICBoTGgq/zcAQCbQ2OT/sAkDMAADLRngAIABQAqfTAAAzAAAzBQysC7/3maXFAAaJ9kkZgiMxiAARiAgaExsJICwIGz9yXhctyxx5Bw9pBw7tm9C7n3IPcyw0cfwwoK6AN9DC1I990fi9XPe+Y0hlvCoFiuGM47APqzGfxVf7KP2SX6QB99++shnx/76Mc+LFbH5uErKQDs3LE9CZdt2w5jItrDRPTkk45H7j3Ivcwpo49+HCL6GJbc0cdw9WGx+l3vmMZwSxgUyxXDKQD0pzviR3+yj/ks9IE+hjwB77tv2Ec/9mGxOjYPX0kBoG/oOH8/0CF35A4DMAAD42fgig/wCAAcj59jdIgOYQAGYOBQPD941iSxZe/+S7csk9jKqnWXnbs3a8yWAyfEnxlE+BggDMAADMAADIyDAQoA49AT9oSeYAAGYAAGmjDAHQADuh28icLYB8OGARiAARhYJQNXfIg7AFYpb86FfcMADMAADCyTAQoAFAB4JwAMwAAMwAAMlDJwxZUUAJaZiNE2iT4MwAAMwMAqGaAAQNJH4g8DMAADMAADFABgAD8AAzAAAzCwAQxQANgAJa+yosS5qGDCAAzAwHox8LGPcwcATK8X0+gTfcIADGwyAxQAKABQ6YMBGIABGICBUgY+fDUFgE1OFBk7EyUYgAEYWC8GKACQ9JH4wwAMwAAMwACPAMAAfgAGYAAGYGADGKAAsAFKpmq3XlU79Ik+YQAGVskALwGEt1XyxrngDQZgAAaWywAFAAoAVPpgAAZgAAZggDsAYAA/AAMwAAMwsAEMrKQAsGf3riRcbn/4rQBsAwCjgrfcCh7yRb4wAAPLZMBi9cG/n8ZwSxgUyxXD33Y58l+m/GkbvmAABmAABuZlwGJ1bB6+ggLA6cnJJx2/ZbnLnY+kANBDAeDA2fuQew9yLzNc9DEsp44+0Me8QXZdj7NY/aqXTWO4JQyK54rhFAD6sxn8VX+yj9k7+kAf6xoHuhgX9tGPfVisjs3DLzjv9OTgWZNs2bv/0i3LJLayat1l5+4tGjxwwiRLGLoAhza6AWfnju3oY0AFAPTRDddd+Qf0gT66Ymmd2vn4J/grAEPUJ/4KfzVELofSJ+wD+xgKi0PsxwruAKAAMETF06dhOUb0gT5gAAaGygAFANgcKpv0CzZhAAZgoD0DFAAGdDUYgNsDjMyQGQzAAAwslwEKAMuVL/wiXxiAARiAgVUyQAGAAgCPBMAADMAADMBAKQMUAEhMV5mYci54gwEYgIHlMkABgKSPxB8GYAAGYAAGKADAAH4ABmAABmBgAxigALABSqaKttwqGvJFvjAAA+vMAHcAwPc6883Y4BsGYGDTGKAAQAGASh8MwAAMwAAMlDLwsY/zVwA2LTlkvEyIYAAGYGB9GaAAQNJH4g8DMAADMAADpQxceRUFABLh9U2E0S26hQEY2DQGKACQ9JH4wwAMwAAMwEApA1dcSQFg05JDxsuECAZgAAbWlwEKACR9JP4wAAMwAAMwQAEABvADMAADMAADG8AABYANUDIVvPWt4KFbdAsDMLBsBrgDAMaWzRjtwxgMwAAMrI6BlRQAzj+wPwmXc856UHLGqScWy57duxpVnI468ohG+zWFaNPau8+974b8Fij6dM0L+ljM2aGPYckPfayPPiwmW4y2WH3RU6cx/MLzzixiuWL4a17RLHbHYnLXvGxae8SPYdkb+kAfTeceth/+ali8rIs+FLs1x7ZYHZuHr6QAYE4xXO5+16Mz+LXs3LG90cTUBtTGwOr23bT2DII6mbTZvmny63q86GOxAIA+hiU/9LE++rCYbPHZYvXrXzON4VYAUCxXDH/jG5rF7lhc6ZqXTWuP+DEse0Mf6IP8uZwB7GM19qHYrfm1xerYPNzi+cGzJtmyd/+lW5ZJbGXVusvO3Vs0eOCESWIVhjYGwb6LAYL8kB8MwAAMwECXDFzxAV4C2KU8aQv7hAEYgAEY6JOBldwB0OcAOTcGBgMwAAMwAAPzM0ABYH7ZwR2ygwEYgAEYGBoDFAAWeB58aMqkPzgYGIABGICBrhm46gruAOhaprSHncIADMAADPTFAAUACgA8ogEDMAADMAADpQx87OMUAPpK0jgvEwQYgAEYgIGuGaAAQNJH4g8DMAADMAADpQxceRUFgK6TL9ojoYcBGIABGOiLAQoAJH0k/jAAAzAAAzAQZeC8J02SK66kANBXksZ5mSDAAAzAAAx0zQAFAJI+En8YgAEYgAEYiDLw7vdQAOg68aI9knkYgAEYgIE+GaAAQNJH4g8DMAADMAADUQbe+75JcvXV5XcAvOPtJHF9JnGcG/5gAAZgAAbaMkABgKSPxB8GYAAGYAAGogzY7f/XXVteANCfCGybfLA/CSsMwAAMwAAM9MMABQCSPhJ/GIABGIABGKAAAAP4ARiAARiAgQ1gYCUFgJ07tifhsm3bYQC2AYBR2eunsofckTsMwEAXDHz0o4clH716GsMtYVAsVwznDgA464Iz2oAjGIABGOieAYvVsXn4SgoAB87el4TLccceQwGghwLAyScdj9x7kHuZU0Mf3Tu7RQII+kAfi/Czjse++R+OSf78WdMYbgmDYrliOAWA/mwGf9Wf7GO2jj7QxzrGgK7GhH30Yx8Wq2Pz8JUUALqCh3YWh2fP7l0UAAZUAEAfizPdpV9AH+ijS57Woa3Pf36S2GJjsYQhHBMFgP5sBn/Vn+xjto0+0Mc6+PxljQH7GJZ9UAAY0GRwWUZHu8MyOvSBPmAABsbCwJe+NElsoQAAs2Nhln7CKgzAAAxUM0ABgAIAdwTAAAzAAAzAQJQBm/xzBwDJNMk0DMAADMDA+jBAAYCkj8QfBmAABmAABqIMfO3fJsn111fcAfCh9UmISG7RJQzAAAzAwCYwQAGApI/EHwZgAAZgAAZKCwCVjwBQAMB2sB0YgAEYgIFRMUABAGBHBewmVOUYI9VnGICBoTDw5S/zDoCh6IJ+4BdgAAZgAAa6YIACAAUACgAwAAMwAAMwEGXghq9SAOgi2aINknYYgAEYgIGhMEABgKSPxB8GYAAGYAAGogz8W3oHAC8BJGkdStJKP2ARBmAABhZngAIASR+JPwzAAAzAAAyU/hWAypcAfmDxRIRkDhnCAAzAAAzAwOoYoABA0kfiDwMwAAMwAANRBq7/l/SvAKSLJWaWMIQJ2hUUALAdbAcGYAAGYGBUDFAAANhRAUt1cHXVQWSNrGFgsxm4wx0nyXXXTpfSAsAHN1tG2Aj6hwEYgAEYGBsDKykA3P++e5JwOerII5h4UnyAARiAARiAgYEycPlbJsn733lE8oa/nsZwSxgUyxXDr7iSxG9siR/9hVkYgAEY2AwGLFbH5uEUAAaaeC3LMGO3cC7rXLRb71zQR72MVskR+kAfq+Rt6Od693umBYDX/1VFAYA7AHorYOGv8FdD9yF99g/7wD765G8o5+61ADAUIdCPYTkD9IE+YAAGYGBYDDzykZPEFtPLR66eJP/y+Uly7TUVjwB8aFj9hyf0AQMwAAMwAAPVDKzkDgCUgCHCAAzAAAzAwPAZsFv6dVu/Pfv/pS9Nkms+UVEA4BGA3u4AwJ6Gb0/oCB3BAAwMkQEKABv2CMAQIaRPOEcYgAEYGAYDNvm/6qppXz736WkBQAWB6F8BoABAAYA8CgZgAAZgYFQMUAAA2FEByyRhGJME9IAeYGA9GbDJ/mc/NR3bv/4rBQA4X0/O0St6hQEY2GQGKABQAKAAAAMwAAMwAAMZA1YA0J/9s6v/n0/fAfBTP8UjAJucKDJ2JkowAAMwsF4MUAAg6SPxhwEYgAEYgIHkt/dPkk98bFoAOO3hk+SrX01fAvgvh5Ke2CMAtj+JITKAARiAARiAgfEwQAGApI/kDQZgAAZgAAYS+7N/Nvm3xe4EuOGGSfLFmgKA7hYg8RtP4oeu0BUMwAAMbDYDFABI+kj8YQAGYGBtGdi5c7ODfJsk7z3vnb74z5Yr0xcBfvObhx4HsHZidwBQAICvNoyxL7zAAAzAQP8MUAAg8V/bxB8H07+DQQfooG8G/uZv0UFTHXzoiumL/2z5zGcmyX/+JwWAprJjP+wMBmAABmBgLAxQAKAAQAEABmAABtaWAbutfSwBue9+2m3/9uI/W667bpJ861uT5KMfqX4HgN/ed/85P6zDAAzAAAzAQD0DFABI/EmOYQAGYGBtGfAFgF//9fqg2GSfdU0urk4n+1/9t+liRQB7B4AVBTTe2CMAdsy6yoNxoVsYgAEYgIF1ZGAlBYADZ+9LwuW4Y48haehh0rFn9y7k3oPcy5wH+hhWYEEf66cPXwBocjdAk33WMRmwMX38E+mkP33zf7akk/+vf32S/NmzjynityUMiuWK4XbMuspj6OPCXw2LPfSBPobuM/rsH/bRj31YrI7Nw1dSANi5Y3sSLtu2HUbS0MNE9OSTjkfuPci9zOmG+rjZzfpxEH0GhSGdG/sYFn9d6GMZBYAu7bTLtha1pbAAYHcBWKxW/LaEQd8VwykA1NvMsnTchX0sygzHH9I/+qi3hVXygj7Qxyp5G+q5fAz3c/GVFACGKhT6NSzngD4myatejU7gAAa6ZGAZBYAu7bTLthaV22c/lV75/8Z0sRcAWgHAtxl7BMCOWfS86378kHS87rJmfNgjDMAADNQzQAFgQFeDAbYe2HWX0SbffrzuumV8/dj3MgoAXdppl20tytg1n0wn/1+bLvYCwE+kv+sKAPwZwHquh6TjRRnh+Hp9IyNkBAMwMHQGKABQAODqzZIZ+LWT444wtp5EkaAx9KAxtv4towDw/g9MOX3wg5vx6m1d33Ws9a/MR6xa1p+6Jp38p8/96x0A/gWA1pfYHQCrKAAMRT7z6gO/3sxO5pUvxyFfGIABGGjHAAWAJU/+ALIdkOsor7LkL7aeRBFe1tEG+hzTMgoAmhiHE+Syccb6oGNt21Ds/jP2CIC9/O8r0xcAvuQlw7gDYCjymZfjsfd/3nFzHPEMBmAABobJAAUACgDcAdCAge/6rvkNuIsCwCLnx/nOrztkN17ZyWZkf/Y7ZouhbTWZrNnk3Y7TpzixdVpsnb7H+tCkAFBm9134g1gb2UsA0wKAPfsfPv8/7x0AOk/46eUTfvfytO8mv9jx3j6rZNWFvOb1BWXczdveJh/Xpx43We6MfbxxEN2huzIGKAA0mPxhQBjQpS+bXwZdFAAWOT/8zq87ZDde2clmZH/2O2aLoW01LQDYcTaJ98fbdy3Gjr5/6IqpHO23vjcpAJTZfRf+INaG7gD4RnoHQFcFAJ1HL8IL5eXXh33yOtT3tjLx+ujDnsu466MvYz9nF9yPXQb0f7wxCd2huyExQAGAAgB3ADRgoMmkoMywuygALHL+ITkc+kIAXBUDshn/2eSxmya2ZpN320+fGpNu5w/P6Sf74eMDVY8AtPEdbeUaa/ua9B0AX0kn/1/5t0nyhc9tZTX2DoCPfbSaaZ3Hy8DLq6oQEtNdW5n0/YhF3+dvy8WQ929im0PuP30j/sEADAyFAQoADSZ/Q1EW/Vi949i7d3rOpomH9peu7HfThDW2b9vzxxgJ+wRHq+cIma9e5nUFgDLbKrPXX/7lSaJjygoA73v/JLHlqrRAYPtn3z88ST589XT89tuOtXZs4qx9bH2Mkaa+Yx6+wratL59K3wGg2/9jL/eLFQBsPA8+5ZBsrB3rj2RlY7N1GrfOa+vsu+Rgd0bYYsdpkVxsP323T9tuLwa0xb5LjuqH/X7g/5huN12oD/PIadFjllUA2DS/XhVLF9URx6/ePyNzZA4D/TJAAYACAHcAVDAQTiLqHFaYVLe5uhfbt+3520wi6sbC9n6dM/JfTP51BYAy2yqbdPur/WUFAFtvi91Kr+/XXTdJ7Nl606fW2Tlsgq3fZS8TXGUBwPpgff3iFyfJ9denxYC8z57DsgKAjaXsSr8fo/dxkqHkYDKyRfvYZ9mdE7bN71/IOu+H/X7b5dN9vJz7sKllFQCaFqX7GPMyzrksOS6jr7S5mO9GfsgPBpbPAAUACgAUACgAwAB+YO0Y6LMAYBPPsRYAbMKsiXiYhFEAaJ+ULWviSgGgvS6YVCAzGIABGJgysJICwJ7du5Jwuf3ht1q7hBOo1s+xlF0lfOGLpmPVp3Tf5A4AHdNk33nuAAhflvXBD23tJ6yuH6vodFanbQsAoV2Gtm0TerMlk/O1n5wkH0lv4b/209Pb5uULPvqx6Tq7A8D2sd92Vd1+m13aNh1jE237/oUvTPeV/rxv8T7C96fJ5C/sf8hH2IaNz67+hwUAi9WK35Yw6LtiuPX9a1+e3jHw1389HY99mnz++jXTsdk6W0xWtt8b3jD9/bn0PQNfTO82MDl8Jf3LA7bYcbbe9svaStuw4/Rdx/1Lepwttk1ytH7YsXbOT6bHW3tqX/1a9YvkKAB042u9HD3bq9YnfrYbfSJH5AgDq2HAx3A/F1+oAPCos85LXvjHpySvf8rxyRuf9lPJG57208n7n/mjybsfO0kOnjVJDpxgFYbTk5NPOn7Lcpc7H0kBoIerjgfO3ofcW8i97jbh2CTeO7W62/q9Pur2beosw5eMhS8qa9rOJu6HfawmIDVlaxF9tC0AxPb3/dQVfVunSbJN7m2xdXa8PeufrUsn9zP75Lf7a3/7/FT6wj37tGfu/fP2vh/ev5R9L5NlXZEgVgCwvtgz+TYOPctvsVox3BIGfVcMt3HYSwOzMWs8+WMPkkPxXoFcNjYZ17ps/Ol6a+OGr07vPrDtdqxk4+Xkj9Ox2m7H+2OK365fZY9bNGWyzX6P/N1J8k//2PwdMm3aNv0tYh9tzjWEfX189OyuUp91ctgkfdTJYgjb0cf6xPMh8DTWPvgY7ufjNj+3ubote/dfumWZxFae+cinJR/90yOT5CWT0uXrfz5JLt43vcVgrEJbx37v3LF9kPo44QHDclThFX0lHOqnfocv72pzVf9975skXh92bFl7Wt9ETp9Ir3798knp1Ud7yVj+WfaSsXVkfJExDdU+FhnTmI9dRB9LLQB8ZpJck155tqvLttgL567+yCQx28smr+l2e4u+7ZNd/U6/a5uuhut4vXE/9C1hQXBZBQCd1yb91hdf6AjZicVz+8sBX/96KofPT2Vhf0XA7iTIxvcv0/XZXxbI1/v99BcHbH/7fkPaTvYegrQdk1l2jLVr29O++bZm2nTH+2Osvex33i+TvV7IuAq7sPcQ2FJXjJmnL+bTF7GPec7Z5zFjKABskj76ZKHpudHHsPJq9DEsfbS+A+D5j39w8q0Xfdd04v/ydDmYLulEJklvdcw+7betT7d/J71N+p1/+uPJTW48rEE3dR7stzq9LSNB6kJ/ZVcFtT68+tCmAPCh4M3fdmxZe7E/oVU2vuIKWH4VUi/B6kIetLE6m0DWi8l6qQWA/Mr/N2zSml51vuIDW69o6+r0v/7r7DZ/NdyO1VXqpv01Lpr4y7p9wvPZlXfri72Jv+yqaqwAYI83/Od/To/Nlhumi03kb/jG7LpsW7Bf9tv2y4+z3yZXk1Oxf+w47W/H+uN1Trcu01P629rUCxlXYV/LLAAM6cr3KmQ5hgLAKuTAORaLC8gP+cHAHO8AeNMzfmI68X9purw7Xf4jXZLIkiYDSZpEJJdOCwFvPGdCEaDFbeebCGddstqXTJZZAIgVCygAEJz6Yn3dztt0Ql1n45LLzCMAeQEgm6TWFAB0e3rs1vUhFgBihUjJIFYAyAoHkQl6VgAIJ/tlBQBXOFBBpHEBIFZQCNZJTxQAxutfKQCMV3frFlsYDyyuAwON7wB4+h+eMZ38vyJd0tv6ohP/sBiQ3rKXvHZaBHjULwDMOgCzrDEMuQDwvIsPXXHTS8D8HQC23RaTjW3Xd12pC8emNmL7VhUArF0dW6WHr6dXu/79m5Pkq+nk5Kvpd1uuTe8GWJbuaBfZDpGBcGJvtuNtMbTlD6Z35Hgb028b21+8cPpiObMj+26T26+mk0yztezKcnqV326D1/LV9GV0ts320fdsW7pO+9ht7dmV63TJbqFPb09/9oWzvqbstv8yf2l9ky7qfKq2yw/pDoB5CgDf+c6hsWTf04m+jf076UWCbEnXFUuwzsY/s0+6/dvfni7ZMelvay/aVr49PN7va8daW5Lzv6W6WgavPg6ofbsD4P3pnV1N/LaPG/57WV837Q4Ak6HZpOKsL8wtQ5+0uRw7Qa7IFQaGwUCjAsBvn/mc5GsvvNm0AJC+rTc2+bcAe2X6FuEt29Jga3cMfDtNTI65w+yg73vfSXLb2w5DEADZrx7qktW+9KOrDuEt//r9/vTWX39lInzhnt8WJiyxfasKAFWJuZfPV9PCW5bw6qpa/lxtXzLkvP3a1qbKPywAhPYWPlbz/vQRNm9j+m3ys331krvsu13d1tVs3Ypun6mt2WI2WNifFQHst/bP98muSuffs890P5swviN9aZzO2bYA4P1HnU/1Ps2+qwDwoAe3ewTA3n3wDStk2Bg02c5lool89pkWJWd+55N8HZNt90u+PfNladv+WDvflrZq2s/kn8t5GTYR8/WmT3s8pMlkvUzXFAAO2YPZpGyDAgBxZRl2TJtwtSkMNCoA2Bv+s8n/28uv/O9LX/hnS/TOgLRqq0cBvGAPHEj/jE96N8Ev/iLAbQpwZeOsS1b7ko+9aMn6Zp/3u9+hF0ipv357WdJu+9qxdQUAa8sSRb9vmKSH22NysYnFt76VLmnCq097+VVfMuS8yL4PBmR3oQ3JvjQpk21rAmcvibN9Qru/Lv+Tffan/cyezLZu+Np00pt9twmm/U6X7IV2+bbsd3pHQLHdCnN+n/wYW2cTxnf+09YCgPojOWpstl6L/I/Gpxd/en8S+hb7beOxq6vXpHc4WBEinGB53cUeATB5ZcUMjTef/BcyUYHE3+bvZea357Lx7xIo5OYKLcXjAb74ErRfvFPA75PLumseTY4mb5Pjz//8IR/uCwB+fXh+O153CUjXXlex/jYpKixjnF232bQ9X8DzY+9DDk37zH7EPhiAgaEyUFsA+NXfeVFywwtvOi0ApNXzcIL/ifT5v+OOm17JLy0A2LsC7L0BaRtH7DwEgxUA1N6F6a2PN70poAwVlGX3a6gFACUd+tQLpGIT86oCgB+fEpbYFcnYXQG+3XB7WQHgP9NbY+3FXFosYV62DmkfGQ+JgdjdO+HdOt62tM1sXN+93fs/cfev6e372Yvv8lv4/fds4ulfTOdfhOdfUKeX1Gnf9FMTxtCXhFeX/djK7kCKvTg0vMpsv21cNma7w8FelmfnthcBxnQZKwBYAcEeZ7Cr8lps/CYT/bZHHL6S+iC/j93er8chbP3X07skssUelUg//bHZHQZ5+7bdXqyYtWmPYdj+VlBx7RePVqTr/TltX/vdNae6c8Tk6H20LwBU+W7dgWH9Crkt62sfE98+43RZAaCM1a51THvd2w0yRaYw0B8DtQWAc84+cOiN/5EX/l100SSxyfvzn19RALDj/mZaADjl3vECgBUCPpDeKnfMMf0JAxD7k32fiUWV3sdaAPhmmvh+M70lVgsFgP7Yxq/0I/tlFgA+l94NYLall9z571teiOdfSKfvJev6LgB8OS8Uvue9zQsAtq/9icMvp3c5aDG5mEz0+3Ppn/S76sOz+9g2W2+L/56tS+Xrj7Xv1ma4n7Wp/X370otvR8faZ9c2SQGge5mGOiorAJSx2rWOaW/5OkbGyBgGVsdAbQHgWY972LQAYH/eL/bG/3xdbQHAXghofwv5g+lfBXjjdLG7B8I2LXl6xCOmAnj2c1YnCJ2v6Tltv6b7AnS9HpsWAGIyb6uH5z2vvj/SmSUddmumPnUHwCfTq17hlXn99i98yl5clC++Teuzbr3163UerTO5WH8/lSbYSjJjL5TyPOrFZP4W2DYFAMmzrVxXzXmTfg59DKuW2bLON0Q5y+7Mbqx/si17Zl2/7dNsS/vaNvuzdvptx2idXeXOXuyXTiCv+2x+S394pV9X9W2CH17h93cG+ONcUcBeGGfPjPv+mv3bGKwf0p/1z37bYr4oe5Ff7ie8b7J19ts+rU1ts3bsWDvOxvWF9FE8uwNAfqLMH8fuANDVa/9XDnQLv/+ThybL2F9C8HdW2PdsSftisrb9rX/+Lf623dbZp97HoD91qvZVANCYfD/a+MKYvcT8jsnROLL4IJ5sv0yf6d0Uts76avK39dKHff6fF0/1YMfaNulFOi2zLYsfamdZdh22a7p+wV9Mz9s2R/PjKPteV4w3mdj5TZYau7eLVcmhz/M08bVN9mkyhq7aKTtXk/ab7NNkLOzTPO8dgqw2We/h2LuUhW+rtgBw0eNOnRYA0hcTLVQAqCgehO1agL7nPZv9reMuQQ1vs6xqu82+XfZxXdtqWgCI7df0WD/RbipHSzT8ogLAp64pLwCEzyfqeH9+Jc11+2rSb4msfbeXDsZu/fQ8filN5s2G7C3cltjb98+myXLTMUuebeXatP2u9mvSz6GPoStZ9N3OEOUsu5Nt6Ldu8dcVRU0e7bduhQ9t3uxdk1CbXF73mfxlfzZ5T28rN1v7Ujoptc/iJYDp+vBFf9pevPwvLQrohYFmt9kL49JFdu/H4P9+vfoa9jd7UWG6GA86VuPLbvfPt9l23a5eTI7TbfZOHtv20Ic2vwPA2n34w/PJb9qG+Rqb8Fq7n0p/22Ln2r9/+t22Z/uk323ylk2a3Xe7APDxdHJr8tDx//L59JhU5tpPbZo/tDYecUbefqqnTFfpsV9Ij7k6vUPA9rXj7Ty22PdF7CXmd6wfJluvj0yHub+WDqxv0q337dKnjwte97H+ho8bLDKmpseGcauN3ft9y77XFQAkpzK7aDqOMe/XROZN9mkig67aKTtXk/ab7NNkLOyzmN9btfw2We/h2LuUhW+rtgDwlHN+d1oA+NsFCwDp21uTN0ySix49fWeABXm7ayCc/F9++SS54x2n+3QxaGunKbjvTftoy0//dPwYtaW+VfWv6rx1farb3mQ8sTbCdfOcx46pO87Lqaqvvh3J0q8zPei3fbfF9KM2ta2JHtSWfX4kTRilY7VbJi9LNOzWUiUc16QJnB1jL8yyY6ytD6R3tWhSrn3VR9ueLR891G/bx8ahBM72VVvaX8fbfrbOXkB2hd2JkN+NEMrV9rNt9/vZQ28r19+8titl6m9MH9Kpl6d9t/Ykn7Lj/PpQ72V2FOqvSdvhMbLB0E+EfMa4qjpfFbt13MdkUSUfbfuJYyeJLTG51J2zbnuZ/dXZsbePkI/YscZfWV9CmTbxQ7aPt/8mzIRjlc1a32SjZntmC7bOvtv6z+dXkosCQGprZq/222zP9rfl3+w29PwlcmaPVgjI1tnkP53s6mqzftvn59PJpq5G+/2zdqxYkBYAVFjIbDydMH7kqqntWf/s/NYP66/1QWO0dVm/Un9kx6m/WQEg/W37FQWA9PfHPz5t07ZJrnasrbcx2GLbzFdU+eyyOwDsGE1oVWDRFXpfAPWFCxVg/GROftQ+fWHGf/fFERV3CrnkBRRNxv0ku/ieyyccZxWnfpsxo/HKFkw/Jr9CH6Y389Wmz9x/m47EXqav9M6AYptxlurD2rZPHzdsnens+OOni+KFtWXt+JioMTXJYbxNlcVdW2/nlD3amKwQY+e1c5hMtT30daE8vS/2fY7Fb/Xf90v2YPLJbDPtgx1rvy3u1fkfP95QPk2PrbKNWIyKtevPXeeHpWt/3lBeoX+2fav8cZMx6LwhW3XxJqa3qvM1yfGr+lAVr+eJGb69Jrqxcxj//oWdXh+ym6o43GZbE06r+l2Xk1lfqvhcJD8KfUyMbb+PZ6NJv6s48+3WMVzXTuz4uhyniY7Lxq5Y09a2ysbcqgDwyEc+eVoAuDRd0pf6lN0FUPsIwKum7wB4xZPvn5x/YH9y8YUPSv72tbuK9v7jP/5Lcs45k+QmNzkUXGPO4agjj2g8oZfgqhTq2/NXfWLHqD9KOqr6V+XY6pye3952vOp37By27j73vlvjvxNdJoO6/nk5NXX+OuaNf39Iv0oQrY2YbpqcR+35ZFPJpG+3TF7hFYf3v+eI4k+C2TFKNJW4+km9ta8rcj6x/pgl4/nVxtf/1VQfastfwVP/9OfHtE3n8rJVwvz+dx6RfDadBHwmTdLsNlm7TfTTaWJqtzWXcRfyrN92vrdePh1vlT2EzOk8seM8z/PYSGiDpl/fjvpe1qcyHtXGX736kD7CfevsNpakxcYbtmPPfdsSs91w39AftOlT2D87tsy/+IlYGR8hf2XthXYa9rnK9qSPKr9WplPvM2SX//xPRxQTS7NDW28vlNO+2RXc/DZ02ZTszr+Z3vb5RjqB/9hVR2S3qlsbZmPZy+ny3/Yiu+zleOl+tmQvtrNJv/22F9rlnzrG2nzrwWn/wqvJ6ovGWvRNt8zrdng7Np/E2z5mv/bbzuH/jGHmb9L1VnxQnzRunWPP7l3JGaeemJxz1oOymG3LheedWXy39bb9spfuyth93euncjSfY9/fk57jjQcPLbaP/bbtttj3V71i6l/sux2jF7rZ70+nEzsdb99tm+1r+2m9fbdFff6rVx+RvPHvp7p4+9sP7Wu/dVxZkSPGqezDb/MvgpVtZPpwuih8dX5ngLaZf57ZN9eXdFPwlzOgFzT6womPF2/++7tF/XOdzy7zmTZeH3dtP3/HjPUzuwMm581vL/MvMbn6/sXsX9v9NuuHyc8/+iGOdYdc0zil9kP9LuLz7VjLr8IYFbYZjr3Kh1v/6vxl6J+VN8TabZNP2vEhR3XxKKa3pjmg7RfrX1UfQrbCc3l9VPUjli+EuURZ/2Szvg2vkzJbzPyhy3ebsFfGitaLl7L9qvriY4u+x/Ir+Z8m/Q19guYfZZyEfinWJ99mU57L2g3HUNdejAkvj5DHJu3FcpuYzZvMYv4gxrXF7hc+98QsPtti823F8IueOo3lttTeAbB3/6XJdX9+22kRIHX6cxUA7Pn/9PhvvOBGyf1+8q6Zk3z93xydXPDM7Vl7n772JsnPHn+zmUlGmaBtME0MOSbU2HG+PZ8wVgWSmMPV/mqvyqlXbQuNq+14q8Zt5zWlN5VNmQx8/2P9q3PKVcAbtN7o1VZMN03Oo/aU1Chx9hMcn/CEDkuJl85/6QtOXLgAcKVd4csLAGaM0nlRLEiTLC+DNgWAS59/YvZuDbta8sk0abbq+fvsamd6zqrg4e1N3+28L754Ot4qe4gFT1sXO87zMo+NhMmV6Td07jFn39TmvD7aBriQHfsdG2/YlzYFgNDe6sZV5iul4zL/4u0j9Hcx3ywbauIPYsEtJmtrU/qYx2d5n6ECwEsvObEoAJgd2np7iZz2rS0A5BN4m4TYC/Mue+GJyefzl9aZjVlb2W/7TItwZoO2ny322z71MrtsfXrlXcdk9va8af+6KgCY/Vpf7RxbCgDpeawAoD6FxcedO7ZnCcfd73p0FrNtsQKAvtt62/5DP7g98w+3utWhuxXs+21uM0lufetDi+1jv3WnnX0/67Spf7Hvdoxe6Ga/zW/pePtu22xf20/r7bst4uNRaXu3Tn+bLuz82td+67t/DCJms97HhPHcti1SADD/nMUgFQtiBQBN/vNtYlePMPh48adP299pAcDG22UBwNoL47T9nrcAYPLrsgBQl6+19a+WX4UxKvRtbQoAXn5lPjCWj5blNG3yyVBPYW4axjcf85vKLdwv1r9FCgBeH2WxsMwHxOJcrH+LFAB8vtsk36jK4aSPWL99PlknBy/vWH4V46BsXShbzT+6KgA05TmWE8bkUNdemWxjPi5mH1U6ruqjbDHmD2LjsNhtxRuLz7bYfFtx2y6q+Hh+8KxJYovN9cNlYiuee+5vTgsAr06Xb8eLAHbLmt2+v6VAYHcNpBV6O/4d+YtjrMP2Mhf7M4AGws1vPkme9vRpELdPW2zA9veFbd2znn1omwardTomto+gtG3h/uFxtv1T6VWCL6Z/39k+7bf6ou/WZ1tnn9Y3+9Q2taf+aV+/Xn0Ijwv7Z2PXue1T59B+klV4zmddkO6bLuqjtr/gBYfW+XOFL5PzOlBfw3Pr5Vjql28vlJPJSNv/7LnTPrzgzw+t0/nVX9vX3iZt/bXvxobasO+mF1vUxifSq0jhMTqfl7Xtb8fb/telifAX7dnStB3rk12J+lQ6CZBOfP/s3NkV9DRxt31ssSt6GSdpG1l76cvAsu05M/qudmw/28eOU9/Ultq18du5bL8sCU8/JV87v47PPq3vaT+8XkzPxu1X0kLbV9IrffY3ylVgkMOyY6y/0rHXb8iz7Wf9sfa8PfhzmuwkM9moncvGbZ/Snz+PtxU7RroVF9amZ0jtShb+nP7lirI1caTffn/PomSg88kf2bnlc0wGoY/w5/E2KL1K5/Jf6r9nUefyY7UCwJXp1U2NU3Zhx4W+Qv5F/sHvG9pqyIjal1+UTMIAYvsZP3a8XlRp5zGZSKahPI1/224ykBzUrvyZxqJAJ7lZW97PyR68/avd7CVg+TliPtLHkGyildq7sZ89Z54uZnOyIftttmJ/Pi7zLflvs9XMzs3ec/vNXvqnF/eln3aMf7Gc7irSxC57SV1qy3Ze/4y9f5ndzPE2IUz3/6jdLp7bufXVvlvf5Afky9U39VVjsP7aOpON7ZP5u/S3bbdt2s/8rLWtF+3Z2LKxuuJjLLGIPQLg9yubeISJoE92yiaDYUIUm5DE+mjrwkmD/21j9HFC7Pl4Yuv0W8zbp7FqzGi7ydH2059CnJF16ovtmX87n/SUyTjXSbYu15c+rW3P3FfSu0kyDtJj7NMW+U7FBTu32YSPybJf+Rlt97YovytfKrtSPMzGmI7v02bb6ae1aX0zVqxf1ie708z6nNllGrd1PpNTFsvTfsm+FX+yFya6GCYfJr9hbWi7fIbpS7ZbxOBUftZmZmspy9JXVS4mn2rt+1ivmBX6TO8jvXz9d+/35d8VA6xdH2fEpo8JPl55n2bfxV5oPz4OmJwVw9Uv2aGP92rbzm3tKj6FOarasL4bW14mJg8/HrWvtu288t/hWLzNeR7t/MoPfV/8WHws9boKY4uP7Tq//IiPfz4vedKfTPNmsaH4qJin/mnc6qvaVwzJOEjbMQ5NJyYrW8RymJva8T6n8H3SNh/PrJ8ffP9srNR25S32287v8wKvd+lHY1KffK4j3+HloP1CefvjNJbQt0pufl4jruwY2659fBvSs/fnYX+9TkP9ehtV3iAdSyZhrhLagh+fl63PZaUrn6/5uVXMb2i88lnytcXcJuXHH6fY5/sfysL7BNumfM2+ywZ8TmznanQHgBUBPvicH5kWAf65+l0AWwoAaWJrx1355LTy/+7ZK5u3vOWhjvkKiiYtqrTHqkVh0lBVUdLVHZ+QCm4dp6q8vZDJ394mwYefqsqH1XKdI7ben8tvj/VPMgjPGyZYM4lUeruhf4GUxmjjUTv+XGGS5HXg+xoeqz6ordi+doyXUfFcaJoMhcf59v3tt7afb8NfNcn0lbcVHhOOsdgvv+KVPa+bykRXVLTdt6lzh7dk2kuydOtscWU+v5ojhvQWa/ut/e1T/bo2TwrtRWL2XbLScV5fOr/6nLWXj9snxNntyV+fXl20fc44c5I8Mq3q/c5p00VX96TjkMUZOecTF3s+2duD17vfXw7a2tatmDE2QnbVho7zv2NM+XP69tWu5yjGn46RDPzjGtomn6OJkJexP8+M3aV69uzIdiUXPxat82O1AoC/zTbUTSg32XXYt5hd+n3C7378YYLp5aHvmtCGdpnpL5/AFrc+u7tGJI9Q/v4c3s953amPvl3Psm87jCHWvp7Nz+wov6KqdfbbbCVj3CZZuX+wdf6Z/mxs6Xb/4r7MztLn+23btelxZ//vqc3Z3Te2WBsWgOUD9DtrO52w2KeO1zHFVf/0XLJ3ndtedCc/J3sJ37ovv2TrtY/GYmMs3jWgq8/pZ/G+gtR32HbzR56F8HtdAcBkYP6mqg35JO1jx+i7Pzb8br/9vlXnCPfzvz+RytL7D7Hn44nk51lXvPDyFfe+0OPfAaHtXldNvkvXxlwRb3IObdw+LojtWJz29iNb8bYWxj5vZzN2nZ5b9pT9dZmcF41Fsc/freBlE8aGWAzTOo0n9PGSQxiDC1vJ46L8YywX877Mjz2MHfLB3kfG9gn9vo+FknfoZ9UHHx/k87yOvB8M/bPPZZWvhjEkjEPeV5bl1j6G+PNr7LIBySfmc8vG4vWpPEHHq+9ed17eoax8LAn1Ivvwsozl+2pTf3rV68X7BLXn2fZtF37V+EtzcMWZWH4ZO4fXi+fHy9j2UT+9/Wpc0qf9Ftchi2X5jz+P15GXWZm8w31CHxQyFNqE/KvP7fz4YrlTKJew/6EMvc2H4/Cy8jalNkJuQp8Rk5HXcZl8vF+Wzfl5Qzhni8k1ZMn3X37J55ni2MujcQHgYY+4MLnhhTedFgHeni7/XlMI+I90ezrhT146Sf7jRekbevdO32B+7/RlV7ZYJ477qbQwkN6aZy8rsOf77NNuD/xQWhWy35ZY2T52d4F9Zvukn9m6tLJmnzYoa9f2sXbt2Hvfe5L85E/mv/MX7djzntmxdq50H7WXrU/XKWn7tzRRsgBj6z+c3kZt57Tv+rRz2W/rm17Uk41B/UvbUp+zvuR90svn1Hc71o6z7fbd2rQ+SxZ2rG2389p2+2372Ljt+73udWgs1oYde5Xtm8pV++rc/5JW6NX/rI20PdtfcrX9dF5bb8fbebSPP1bHax+Tm2Rv26zPGpvJSM+7262w1o69KEnjsGPtvHaMrbPF+mqLfkvOVlHNkmbbniYj2b7pp50rPEbHSg+2X6bfNGE3/UrHdvXC+vV5u3qQbleb6p+d2xZr3/bJlrQNW/TSLP22T99/9dFvz3hJ5Wptqr1PpuOy8Vs/ivOkbUnvWm/ny7bb+dN+SMZ6oaG9VOzf0yszttg+YXJsx1if7FwzLObsWZ+8DD6T7v/vqY1LVtomXUkvNmZrz7bbNp1DnNh6nU8cyw7Fh7Fkx6nNjCGz75SN7JiUG2vH25xtl57FnefU2lT7slftb9usT9oum9R+x//MVMZ2frN3O7etk8xtnfyW7aN27ZjMV+S2a8dIDhqLZGV6VXvvede0L9K5dCqZ26f6rBf82L6FnFLf48emcxaM5LKUX7A+yL9mPsB8VrqYvRf2n3NhfMo/me2azXh5mh4yved2aTZmS+ZXc19t5/K6yV5Qlft1taXt1pYt0o2dL7PdlA9vxyZr7Vv46Fyvko21bfxavwuby23X2spsIu13Zlv5b/vu7duOl835F/dlz0HnhTKffBXBNZ8wFZOo/HdRxMwLJjOFN9fP4ry5vdtYrB/mA23c1vfMl6X91csJ1W/7bbGrGF/u87Sf/KV9Fi8mTP2HtefHEptg1xUAqiblQ9lmMVK2Jd+RyTePAyaXjOmcY7Fon8ajycnkm7Gec2/2LH14mcqnS0/Fp9OJYpLfR7HOmCsYzeOQ2a/1w/SdFW3yeGJ99j5DPlP2o3xCPlz+2vv9jJl83Nn2vFBlfbD9rK8WFyzOFP1O1yl/8nabHZv7dZ3L5GY+Q/FRtmtjUm6g8fixiH/FQWs7sxGzgzw2Wr/lz8xHK5+ST1Y+oziv/X0szXxtnnNZjiU/rVxVMVwytN+Kx8r3lKNlfs/FoSzPyv2eci/5Vvlj5b6ZrtJjdX7laJl/zvNgfVfuoRgi/684pPhmxyl/NX4Uu7Lc1XJiF29lF1nMtZzTZJJ+Wn8Uh/1x1q72CcdSbMvzH9ma4oKd19qUzjQ+5ZLSqZeV4r/kZL/tsUcda+2Jd80tspxVuW8+f7C+vOed6fr0WMkti495vq08QLmg4pVij/Gc2YTlXRb/cx6MT5NxZqd5vqY+azzqTxjLbbvmNIrHdr53pPOuLL/PdaF5h+2ruZLJMsuL8/GJRZ9jexkVuXI+L/I5leZKkovsSP1W7idZeduRrhTLtc3Hd+0j2Wouob5au8oflU/YeDQ22UrRj1Qu+q680edC8jnKQ00OytmUk8qmivmRm5/YPto/k0Vuh94XzMhP881cX8qRxZD8cpE75/4yW5/HIL34VDmw9T2Us/K5LI/L59SyMZ9j2zafE5s8GhcA7C6A8//grORrL7zZtAjwqnRJk8Pkm0EhwH6nxpe8dnrl/z9efOPk31ID85VDX4GYudKhJCk9fstV1nydKtT69NXwohqbGkRRYcmvdhRXffyVqvS7zu9f8KQ3M9vLkXz1XW9VD2/dnGlb7eef6pOvUvsrUdn2vB+q6vurBv6qt79y5avzvoomuejFVvZbL+3x/S7OlW5XH3RVXG34/virFv5qn38hkG/f7+/b93oN+6VKqq6g+PaKv2mf6iS8wpK9VCtdwisrknPxFm67cuEXp1/fpr/6pz75totnZnO9hVfi9FKtLf3JmTDdFGNL5Z+9oCvd5sfgJwoan5dLyKWN6z//c7pY22GyHY7D322gvngZqD0v99h4YsfO6C3Xi+fY8y9Z27klhy32lMqmeNN6bs+6Whty6eXqt4UynznOfEu6hGORPYgfb6eFPUcYUFtb+pzvK+5DHXqde31psunPOeMfXd91brU1I0u/n/N92tdfsQj9r84d2pkfq/eh3lf5vth6+USdQ22HfHl/IB1ktpWyHtO7H3uhy3Rffx5br5fyhe1rm7Ei32/nEjv+xX223V4sp4Dvrzba+D6bJn2q7Nt3/bZP60+2Lj9eibDvZzhGPx7/3fs2+SWtK37L5+WyK47Jfalkaue08VRN1NehAGAvSQ1jjGTqfXdMBwXjTpaeleIlj267uJqRe64TL/st2yP6Cn2U/fa+bcaH577Xx8fQFnTOGX+T25e1G8ZdH2fCWOrl5eWkPhZ+1Mm/ygeEMdnbrs49I9u039m7LlL7KnyZ/Fx6Tn/XhPo34yfzOKN1vng341fL/KhyqTye+Dwu9Hth/I36W+W8yovzcelYPx7J2MeUos+uP7pTxedeRU6t2BrENMVrH7d9DljkjS739XEnzGvFaxjvvM7COBbqycfrLflqoJ+Z3EMydDE/HJf6Lluz472N+dgjjuzO55n1Zt8uV/UshP0JY7mXp+6Gyfj5wKG7C7xupVOf74bzpDBehvlTyGqRa+SyjPWxkE++j89rYn4mXFe3j+Yu/jzhuNSGzx31fcYWwhwyt62Ztp19xeY+dTLbMj5nv+FYYrlH5tNyZuT7fD8kX8WbLTaR218sj5Lc/DZrp1UBwIoAv33mc5J3Xnj3aRFAixUD0j/xlxUF3Ppr0+dhXvTUB8045PA2oAK03PmEyWHofEIAllkAsBc0eYisrzI232/v7Lxjt772VQDQi63WpgBgfzYrcKoyCPs0XYXgL6sA8I30+UcfQMOAYH2JJZhiw3TjHY+SFj8GHxw1Pt9myKXJ5ptp8c0Wa7uLAoC1tcoCgOSwxZ5C513i6LwDDp11KPOZgEgBYMsjMdGENJV7aGerLgBktrVgAcDa0DjCgKuX8sn32xVYsaPj9Pm+9HlMvdAuLADoz4HaJMK+6xlq+25XOu3TFrt6YC+3s8XWFxO89LyxQG798fv4AoD8UlEsyf1UZsPuzw6GBQDJ1Paz/qx7AcB0UVYA8L67tAAQyNKzouMLmeaTcK0vZG9tpEu2Pv8+bwHA+7ayAoB4jyXd4URb47Z2YwUAxZk2BYCsrTy59cnwjM8OJp6xAoBszxcACtmm/Cr5b1wAyP/0pfI5P4kZWwFgJn66GOkn+EMoAIjXVgWAQE+rLgB4G6MAMFtU9zlAqNMiVqW2v8wCgGdf39e1AKB4s2gBwNppXQDQWwIv+MPTkiufc6fZQkA++f/qxeltGudNksf/j+kJ9MKkz6e3NVinr09v1bLlK2kHvpYmKbbdXipjn7bdXmR2/fXptjQw2vdsW/55fXqbhBZbd8klaUKU7mv7ZO2m2+15TVuXtZW3W7Rl50rPm7WXfs/Wp5/ZC54sUcoXW59tS4/P+mif6W8bg31+61t52/l2O292LvU1P4+NIxtn3tbMufM+6xwaRyaPtH+FbPQ7bSM7T7rN/na19stAT89jf+4tG1cuq2vSK0z2PXtpTz5W9cPGkR2f9i2Tm/Uz/Z31IW8j28eNPZOJ9JXLUG1bG4XM3Lls/0zX0rHkqX7lv3WsXrSl3/aZ6UT6sc90sfX/8e1p//TbH2PfM1lJt06//5E+nmJt6vjsHK7NTEa5zqz/ts0c2UwfU4eWyTTnIvt0fVF72XGOIc9dJkvxLTloX5NXuphedP5inE4n4tKzGysAFH3L++s59eOSLAoZpbLKvufyKcYr28jtJJSfODMZF+xrvM72JGu9WKqwN+Mrl4HXcWFj0k9+/sJWZbdmP+E2jT3cZv1x7Wksdi6zATEpWZuNyG9o3cy5cr/m2xH/kq+3K7VRjC1nTcdnsvE+JLcl8WOcF7an/bRPzrJsPbRRb5c21sL+JSvTg2MmtDH1SzIyVmwp/G1+vPSa2WXu+73sZuQom8rt0hjyfkHti8Wif27sBdOpnRe+z/saZ6/ZxMTxXcSF3J6zWJR+Dyfk4TOm/jlV/6yh7tCKPYuouwSyyUZ6V4B87Iy9OR/jfV0mk7zvslH/osLiu/yn86GFTNPjM9+Qxz09T1lWBFiHOwAsTpbFjJlYkHMslizm23GSnfeL3kcVvjDwmzHd6HxbtqnY7XUnRhWvXFwJfbj66MeT2V7Ocize+n7LnxZxJY+7Pi5kMdTFUvutdrPz5zG2aCtvw3yG942FT3J2b+sUO/SpOOp59fai8yuPMXstfIPlTHnOU8jcfEPg3zJfmx+X5Vh5rM3ysTxXVG7mY45yscy3Wf6qfNDFFeWnyklnctDQ3ypW5n2Zyc/ybcoXJYOZmBLJGZWH+xiUMZHn1EW/Aj0UOUogq0x2eZzO+pKfs/Cf4bZwu4vv1g9rw+elkm/Wr7wt5eLSR7aP5bDpGIr82cV3n0NIJ3aO7LviRZ6DzejTt2Hn9zmtyyuMTbMBuwPA/EPBf277Bec+pxdTynFcXiJZSw6Kx5me0iKanw8pxhb5SD4O5QvZvrmOiridj8XnOzNc+5wpnx9ou87nbUbrPFOSeeg3QxkWMT8fv3JAyVFzF7WjuY8+Q9stbN1zJVnnsdyPdSb/yNkWQ34uVvinIOcs5mluXlTI2bh0ub18nmfE+/xMfhFfLx+m+DIzxmAeIDvxcg9lNzNfSc85dwFAhYBfP/15yWP+9x8ljzv7sck5Zx9IXvPHv5j9SQFbDpwwPYFuk/HVIH+LmP+uWyPsGRq91Ky48ptf+dGLjWaq3XnA9OfI2vKBVLdXaJ2/xS5PgL6qdSoGfD1PsvLfavPbeYBT+9l62zds2xUVfDXdXsrkr94U33U+dyuI3y+8dcTLwAoBvp3it5eBfU/PUbTj5BZeGZoZk8YRyjAy3mxswf6xdTP7xOSUr5uRtduvbL2/OlCw5fSp42LHF+u8LnPuCv3mYy50mO7rv4eT8WKbl5XXcyjb4DYgXZEpXkIWMpoen3FrbaaLPT8UJvCF/HVsfv4ZvQSytTa/nQa1kPWZKz+B3kKZbpGx59rbmG/H22VkrFXnL2XK27Fk5eVewl/hQ8r659eLmdDe9Ntvr+A9Y7Zq30A+M30MuC2VR8T3zfiWmG7CPkX6aPoudB7qLnLOqC6D40KGLNmaiQ2+H17PuT2I8RkbFYeyXb+vt5HcV+oletlzzbakNva7v3tokb3979+bPr9pE2n7tH3s017iZ5/ZOyXS2+z13fa3yb/tl/lrz07gI7L+B2PVukxG2taAs0yG5jfSNtWG2fsmFACyFzrmcXCGv0BuZb5sJn7EbMKYMt8pnYgxf86YrnIGozYb06ljOLSjstg4E/dLfFD02Pz8Fg/82LSveFI/qmJs0dcaXtWm2pL9FjErsO8w55iRSSqrYux19hHzU2FMivm2MG6H41MfwjwgZNHbvT+P2o/kXFvyHLevxl0W64ucORa3ymKXH5uP6b6P4r5su983P08ln553L5fcR8/MKVxs17gVJ4vxlsXKsvgdsRdjVDHP201oQ1vy/TD3CHz9ljw/1HnIY6zPMfsKZZ73YyZHlR+yfUMZhdyXycrtV5oPlMi/8CUlOt7CSMxvevmE9l7hN2cYkk6qcryYHmTPEVnVzVm25EMl8SWaI1bEry25Xd63hQsA4d8NvOzcvVsLAGmlQS8UsxdmFC8sy18mk/12L5bJXnxjBQBbn1Zktc2/lEwv3sgmPqqepJ96MY2t02RebRS32qUK0gvTrM3i+HS9nER2znxbcXy6vXgJTr497HfRXj4mU6ja8m2q3358/kVu6qv6KRlp3MVY8jHbb/tzOH5/yTCDSjIO5Lyl/yZvq9S7dmf6n28vZCP55TqQjopx5/t7uRVj8zLW90BeXn76HspURpP1KTdW+24yzsaStyk5+H1C3RS/c+7Ehl6gVRiok08mK93KmRuW2vEv6cr6kcu2uCXX6cWvk4wyezHu/K2iXpe53LL9csdmt2SFBQA73tuRWFP7Xg4ao3e0oVxK5ebtIvJ9hmttl42HPHjWYnYUWScGCruK2PGM7csXRPjLJkjGkBvHDEOhHvw4xI/66MZSJ7sZv1ciQ+lSdrpFP+6OF6/3Gb+W+wKtK3xpwKQ/ZsYGA70Vso/YddHf0BeFsg30UZzb2bUlCLIj324xTm+7stPcd0dtzNlWYUd5PyVfW2/2UNziGLGx8C28/g3Z/kq//663BGdvb74u918unvmYVcRO+Tnvd9RfJ99ocSWXo5Kswj+lnNv3jSgAfHrWF27x+SV+xbMY2tHM5DPXi2JkER8CHYXxyOs6us3ZgG/bx/aYzr2/Uf4Q2moYO0O78znWlgsrab/EUyyOhHG7+K0cKRLPrJ3Mzp1/kG0qZoUxMsw5ZvqS+4EiP6rQsc9HfZth/A7b97nXjK26/LaIJ2E8CGLHTC6o/CXIh2f07vIvsaHcx+fKsdhj24sLXxFdxOKRl1Hhi11uI18c5quh356J0+nxRV4cywcls/w83gaV64WxzsdH5aB+jrBlfx+vXR9m8mfHpC98xWQrfgq7q8t18rjt95fthXMWH+/EZtiHcH2Ye/vY7+dJ4bwjnIdtYT+YD4m9mVw9zBeCuZ18UGH3PodKv89w7PN6bxfhnC3c5uJ6mCN6Frz9zcg0OO+Mr/BzvpJ8L5x7xOY3VbJVv0KbLHxTiV/z803PxGoKAC5ASAD+zwXaOv0OA1j4ZwX99rJj/DnK2g7Pb/vZS5704hvfdnieLX/qML+aonOVnT9s0/dNjqTsXL7tsNpeJtMqWYbHlP0O+xjTW6iTpjouk3HsHPZyOy8D+x2TVdW5pePsZV7pEtNjKW+xymeekGXn9JVAz3NQcZ3RXX7MzDjKzhOsj/XTngG2F3vYS67CAoD1r0p3MXvIXoaW3x7cRFZN9onpJzaWedeFdhRjrMz3xGywyv9U2UbdeatkVdduzKfV+aQm8vRs1vm/sj6GfSuT3zz9rfOXdboq/FRoY3W/czvX88V6gV/ZbfJve/v0qr592j72aRNr+/Tb/PaZAoD3K5HvMR8S8/Xhuqifzv2TXoy4EQWAtNDi40eZbcT28XHI+4stbOX+tpS5Gh3X6W6GgYr8qY3NNMkjlCNlMdQ9OhLzuzHeQpmV+etS/1ATh8v8aiy/qdq3zP/FfGQsbtTlgHWxMuZH63RZdkzTeFIWm2PHl/WlTM5t5FEXQ5rEaa8/tec/2461TIbmD6ryyfDcTeJwTIZVuq+yodhxTXloaptl7ZXJuG3uUybDuvVNfFITH1CmsyrW5/FDbe3MnyMmizB+xfZZWQFg5oViacDSi2S0PvpimbSi8s30toZwXwk+eowLrAIgtt+WNtNzfSqdONlz8/ZyBH9MeHzYJz+27LtVY63v+UvUsuPdOLZsy1/eZuMqzpVXdG0Mvh3tIxn4zzI5hfIK+1v1u+hToIeZPumKVd7/svNtkWNs3NaGnStfsvOn3+35FunF5Ge/JdPsfDkrVee247+Q3rqrpZCXO5+XodelJvgzL21y1cSZAoDjNnxpUdGmKxporP5lRhpHcb78Thf9Dvtp6z+VsvuFz0//RFU4Oclk5xkMinIhn7a/2cIXPntItjHuZ2SY67PQX8B9jLNwHKE/8PYQ8wVbzp/fBrVFj4HPidm3dFO2zdb7F6bJjmf65e0k7Is4k5xKPqPtun1n/ETu76JydH5IPmjGn5TYtGwu1EVhZ96vBTovOKvQg/qvvoQ+b2Ys8gPhWII+eJmE7clmZj6d7Uqn/iV/1l5he/m+dhu/vajvw+mfInr/+8tflnfkkZPkB39wktin2aF92sTaPv02vz0rAKRtz/iXfMySu48roV/QPhqLt7Xi6q2Ljcasf2Gd+Q1b7GWE6/4SQL0bKGYzkotiThgjfByyfXwst++epcJfaL3Xp48dfrvWB9u9DmXLxR0Dea4R6rxgwfmd0HcUvku3jyp2ObsrfF66zWLnBz6YvuPpo9N4I5spZBHE7hmfoZwo//TxXGOa+YzkTVH7yOXqY5z3LX7SviWehD4w8Ftb5OVejOv5iflkn6tFWauIA2Xn9eMq4kSkTwWXeW5Wdf4wpyyLnTPnLsnhY7l5GPdjvrpKlmU5Qpgbl+0X6qEsZ67KPbb0OefG/IHlSGYXsTygLNevyjG2yDCiw7A/M7+DPC+UbWP5l8TwMD6XzRG87VfmjrJzfz6NIfCx4VjCOV4sZ5k5JpirlNlFlYzK7KVYH5m3luU43obDHD3GY+ncMTLfzOZIzodu8UepbFdSAPjC57enycX25F+/eOjz618/bOale+FLx/xLjbTNBhB+j/3WurBKHju+cAZpRVtvjvUvmdF2vdwq++1ur1Wbvh/+5UvF+rxyrXHN7O/GVazPz+HHEB4T9i32gp6qY2JjK9s/NmYvO+9U237fck6TlY1fck4/w+fUtjwHFFxpD3Vtv2du4U2vAhX91LGBXrPt6kuuv+y8tp+uRKifOjZoq3g5oL/i48ZVnCM9LuPOc5IeU6zL2/X7eDlbv/QnQ2JX8Yp+RwpkRR+0LT1X0V5aFNvydurADmPH+4JIGeutOInod+Z4r49Y/9y4SxmP2HbYR5N/4Qu8zp3sCvZCnhzTlXYZa9fzE4yl0mZ9H/K7Xma4L2ur7EpbzEZkJzk34qVSzkEBagtDXp6yt7Jzl8hG/kM2I59R+HdvU7mt6WV/8hee4+LPzKaTed3e3/Rv29ddWc8KAKmthfa+5V05uQy27JezG4tdW54PzvUleXi/GBvXtm2HJTt3bM8WSxj03dY3Hf+Q9tPboaP+R344jzkzMS7ne+YWeM+kjs1jjR3rX746884f+Zqc7Rm/HsaSmO/zcakkbs30s8yetd5/+hgmm86ZMdkZI3qxZRGXfX/C/obn8Ax7nxvuJ7/ifMEW7p1vkKxN7pY3hXnglhytTK5l/qSD9XU+MczhfI6mcZXGlyDHKHLolvGwrI+xfDq0oZk8uUHMLdvft9ukP3Vy9flgk31nxlWWF+Z2PvPXpoI8wPvetvl5OBcI5zohG2VxvYkso76wJN7OjCPwf1vaidl0zI7kP2Lyq4j7TZis1WWkP01z1ihLuU8q3RbYqfpXlttv8Vsx+aXnnLEl77fTbTbf1jy8+PzsNJ7rnX3h4/z2exJbWbUu9g6A5z9nX2LLCy7KP9Pv//z2Yw69VT2v9tjfLf6P9CUz2ZK/gVdV4uwtiel+tq34bm+ctjfzpuuzt8bmx0lgVv3Qvnobol+XHWvCzK+GWFX7wLlpVTt/y7d/o6Mdp3MVV4ryN4P6beqLfxto9j19zso+df6supP3W+vtt9arX358qgipbb30TYqXzCSjbL17M6kd99evOn4qK3tLqZdbLkd/Pt+/rPKe75/pIXhDcihn9c3W27G+z1p3ffrOAi8T03+2pPKXjLWv/WkPW7T905+ZytTayPZNb1cPjwv1Zcd/8pPT5YlPnB6XHe+PtfNbe7bY9/xtsObIrS96MaKdu3gpn5OL7Ze1l485Oy7fV+Pzsnjd/031kW7PzmOM5PsWenDb/D6hXO0twcbuRz8Wf443k10+roJNx4bGmbVrf1EilW/WXnrV0966msk2H5c4tfGoHzo+O4fb176L+dh5tU5tFe3lvHk9+HN428yOcTKXLyiOzXUhnYQ24Tk3+yh0l+vV3shbjDU9j+xKx2XnlizyftiY1Y7/FK9fz3ny453pdy5HbQ/9inRpYwnlK1v1MlU7dl5xa/0ObbqQjXEnHXg9B7ZcjC23oYwz85/p8Wprxpbd25TV76KN3O96f5HpQz5B/sH1wcu20IfsWj4rtyuzXW9j+i6bkx3aftau2YBetmPbbNLzyfQFfuec074AYMfUTYLN1mb8gPcdpivHjPpe7G8xJreD7DOXcxbbnJ4zP53GPFt3vf1Fm/zdBvKLZz96az+PO/aY5MDZ+7LFEgZ9t/V1Yxri9mvTOy3MX2ZcOZ9ov+3N7/Ilpv8iJuUxxtYZ45lPyO2+aCPnzH5nrOX6KHSQxwbvuzJmdVyup8LW8/UFp9Kxi5Gve/Uhf1XErdx3WD/tXJn/dm81L3yu9zG53yrGn4/Nfmu81o5xYowYz/YnIyUPs3kfS+247LeP57LvdJ1ty/rl5F/8Vvx3x2a5guKj5Jj7KOVWiv/yoz7X8nlG4XOtz+qDWAjkpP6F/tfHfhujtv+txfNcT2HOoz4oLoX7+e2hb1ReKJ9abHd27s+nHC3z4am9h/mmP7ePH7Z/eG6fJ4YxLRyD8ncfV/y4JHt9hvHL542xfMHH9DD3D/NVO9704fsvNjI/6PJvbxN+m+J1uF0+4vzzpzHBfErGXx6jMq5yftWecmbJN5SV9st0l8d1Lw+fz9p36WJL/M/tp+izi9+xXMHHW8UOv055ujj34/C5UjhvKnLB3HfaWDT/2GIDuS0X583nS9am11OoM59nxezNy8D7Gp8rbPHH+VzSjy2UW6HTXA9eXtl5LE8M5l6ZL5ZPtFhj8Vc+PT9G/sizENpnmCurjWweqnlzev4sfuW5ks23bQ5+ybOnc3D7tGUlBYDiTfU22c5v11LleOYqRHoFJHzjvar12UvQ8opt8V0VYn/lyVVHfHXavttxMxVrV52y8+gqjf8bo7Fj/IugtrTnrhKEbx31Y9YYYnIIbyeX/ML2tlxR0JWHoGrvz/H2y3cVLzos9KJKuPv0etEVopn983PF+l9cnc/74f/+p9qwdfqbtGqj+Hu1KQfh37gs/q6vbUsX05W/6p3tnzphf1zxUjzblp9Pf4pLz9zqqrmquMWnHZP3I5SFtet5DH+HfdDxGp9n5n3/PNXH59Pbb2dYMjvJz+P/nqmXd/g3lPVCsdjVRo0zPE8h+3S8xfdUjmrDrvZkxzqdFDpM14mNmb+56vb1thTa48xY8rZ8e3aeTJYRHvyxkl/ImT9W7Ya6DH+bfRRXCFMd6MVoGsfMm9od3357qC//2/PmZV+cU2POxx3aXniM9w1+Wya7VG7ef0ke3i7MHxf2mvvTWDuhngumc27Utljxcp2xZafnkD3J0DOa6SO3ef/3rLccm/Yj9C3WTkw+Zb7X1ksPduxV6aM0kpWdz/uOtncANJkI6++OS2fe35aNxTPvGQ//NnMYQ6QvydGPbd0fAdji88VwHldM1soHPHNaZ8dnd4NEfJPXgbdd6c+z7W3EdK59YsxKTxmjsof0/BY/ZnxvHutsH8VXjTf0mZ4B2Wgxrnxs/k9Yatzhyy5l816uOm5GfooXed+K/XP5R2Nx7vutsO3jRywmlsXrcNyFL8v7UaZHH1dCnRS5V+5ntf1d/zSN534Jjw1tL6aX0L8VPjqPOfIR3s69fJRDKl7F4p5nKnY+H5Ni/j4mVy+X8JyxuKgcp+h7nveUyc/rSueyl19n8wqXe+tc7/zHXcV670/VNx8fve1qXyt4hXlWwU/Krf70a5Ej5bbpfxe6C3LmUFZex2Fu7rdlOk3HGvqSQocub8366vK0qA9wuZ/292OWH7F2xJXaUR+Ub/j2pSv5U9tH84+YDfg8wY9lJnblObE/T8ynbtFrkEP6XMHa8i/DDVkv88c+jwoZsd9fT+8WDeXtudAcxvPkfbXPPbx9+pw6jP+6c7GIX063yqetrUwnqUxWXwDIJ+gxAy8AS5XsBxIaRmE4LQsAIUiCWYLRpOcz10wVlzkW51S8wj+TVle8ImLGnPU7MHpr048nJgffL90aWzhI196MHJxcC+cRJPQzDs5t83330IUOdcYpBeMKnb1vx0PqDc8H9cLx5A40k6+bXKgAYLqx5YMfmsrR2pDj0DE+cNn5tN7asOOKQk/avo63NsNEoKoAEJNZzCF4mVl7YquMAR8sfHted94Z6LuN0YLRO981HWOYxMeSwFC/vl3JyNprWwAoZOkmsTHOZ4KFmxhKn7LLJgWAUD7hsTPsO5sOufXcyfZMnl0WAELf4QNf0e8GBQBrJxaclCDIn4bBw3MVu9Xd75/1J9eNl00YJO2cpndjRYyrb/44z3/IcaxYJJvMmHK+wXMv3XrfoqQlJh/vmwq/ajHHxuoCprXh9112AcBsTbrzXHof4m2myid4Hfg2FZPCBMwYj/mN0I9YwtCkmDHkfeoKAJKryUPxRjZqDOguq7KJY5gMVukv3BZjM/SdiiOFnfsiXKQAoBgXY0ec+PFltpznN2EBwDOiWFNVAJD8vM+z/lufygoAM7E4T9x9suztdEbWbuITs/uZeJP71zIWwn3D9nz89362zN/Ezh3qIxbXw9wp5KWLAkBVHhD6IZ+Txfrv5RLG1vBY8evPH+a7sTaUD4RxrGwcMRtTu6G+fO6Y+YFwMp1yYzm87MX8nNlEZmOKT3kc1O/iXB0XAEr5qSkAaA5ix4cxPTbmqgKAj59h/PYxJuqrXM4nnxtOaMMcps4/lurVcu/Up9nimQrnCp6VkIVQ3p4/7evZiOlHnJiPCwsA1jf5I809Y3w2LQBkeWtJAUB6XkkBwF4u9Pl0cPZnHPQCNrvd3ha9aMy228vLspcRfXa6b7YufeGSfdq6a1Mlarv2yV7AkR6TtWPH2kve0kHbp62zc3wsNc4PpcKw460tW2/r9PIO+7TzvPd904nTXX5setwxx0z3K/qZvyjJ9r3LXdKX4Xxguk39U1/sXLbePq0v+q42i76m7cXkoH5lfbTxpP2zY7Lj0t92Pjsu28+WdJ1ka/tonNmxuWw0but7Jov0Km8ht1yGkrEdn7Xv+mfHSY/2Kf1IxpKzVZaycadtWv9tu12Z1zitbVtnLxL60R89JD9b9+ErpjK1xeRr57Tj7NOuxr0vffGW6caWO995us3a+GRqTNKJfdrvrA9pX+x8asuOt+OkZ/XBPq1N+8zOb5/pYjxa321M2RWaVO76br8zBtNPLZlc0t/WBzvexqQrO7YtG1d6Hmsjs4e8DelT683oM4bz9tWHzBbyOwVkG2LTxmjs7to1HWOYgJv8JE+Nw7Ot/krekpG1Z3KTXKwNk6nJV/zbOq8rG6PpIHthWnpe2YidV3YoHtR/208s2bG22Hne9Y5pG9JrOG4dr36rDTs265cbt15epXGrD+LajjU52rltW2YjqQ5MntaOndvayOwyZ8vGo/NkDOeyMD3Jd/nPjGFj28nFy0++KGM6l4nJUbak8Yl3rZcc1IesHfOn6af4Uj/lQzNdpm3LZ8jXaH8baybHtB0bp7fJTD65jO27bEg2Kn9gn/44+VaNQ/LL9JfLxPvEzJZyu/G+wXMv3cu32DHWj8wvO3vJ7Cv34dJ5aNOyNd0BINu232YTsotl3AFgtmZ9l6/J+pj7FBuj+QXJTf22AC+/kVX1c38lPyN/VPivPA7beSyRsGOsbWM85jfWsQBgbHjfoHhh/Jl+xbPJQ/FGMcGSNos5tp9ihH16buSnZYuSvY8hnjtxqk/FDMVs7Wufskfrl53TGLFPxVTFHrMVG6dipHyf97s2bmvHH2vjy2w591E2TmvHPi2GeEYUa7LYki6KMXZua8fHa+/zbLvJMIsrFmfzHE96USzOfHfuv+38hf2mPi2MiZm/TfMHa0v+THHHPs3P2OLzIOuH77OP29pP/kk5kbUtH2LrpA/zs8rJwtimeOP9sF1ZDvfzvt3HQo1DL+pU/up9ZnZ+85+5z1cunOVteQ6qPnofolzNxiReFacV05UHKjaJFx/XM0Zzf6vcWr8zmblcXu0af4qjRSxOc9YZWefMq0+Ki4qJ6lOW/6ZjUO4tprxOFCvtGJ+jauwal+xM8lV/FWdsXiBWzD+aTRjPRXxKbSpjOec3y9vzOU2YL2vOoHhmfczmOXnOr5xccwzFXMnIx319V65W8JbHb7M1G6v1Xzah2CwZKK+Tv7DfiqXF/CznqfBPeS6kfNCOEUs+R7SxWbuyKW2T7pUHeRnZOTWfyewunwdqH7+vGPHzMG3XnMLGq3bsvMaTHVfMBy3m5vNN+RLZjeSpT59HZf4oPc6zkdlHblcao3FiYzIfZz5SspLPlQ+0djSH8n5C+ZB0nbGZtvfud051anbg45dt1znETmHr6XErKQCElSD7rasp4S0RM/umhqAXL+mWtqLqnlePVKHz1WS/TufxtzIXt/DllTLb3/bzSZ2ugM70M6+u+9ujff90Xr0kJ7ul07Wt43xfY3JQO/42Q10B1/hnzuuuAJjCwyu2vkKvcaoPM/umfdV5dG71L7zlURUkyVL7Wf/8uNW+H6etk6w1jqydNCDber/Nnz9MuiXPa/Nqmr8dS7fTWrta7/8ut26XDz91funwutSoi8p1zktRqc8ZDCv3Xsb2fKKqxTp/yLgYsedS7Xy66mrffUXW2rV9tM7LtO6K24we83H442Uf3l78rZ6Si22X/iQj3/YM4zn7ntXwPGov/LRzGMv/nBYAQhvxv/1xsbZCfsK+hjZmYxbTYlf8mJ4KLlLOJYewP952pNvQxxT24mQkOYXj0LHeNiVnv6/ZgfdtXu4z+s+vfunY0Lf4vqq9mE162w9ty59P8ov1uYwhPy7ftu+Ht20/FvsuH2S2ltlgKufMvnSF1D7Ntp19e1tTjPK27X3TMgoAkpP6of7abxUACv3m/S7G42KZrdMjTnasyaMYW+6zCjbyWFznP7R9He4ACJnzduxjt5eJ93+KGWGc91fRTXfWruktk33gy/2VxYJNF18UI2LxWXakNpQb+f7E+hv6PtlP6Me8jYXxMMZJ2G6ZDLVfaM9iUcf5R9n8MSaTzCZMTjn/hf82jvPCw0wO4/Iv+QTv03z78hs+X1KfZmJC7kNi55HvjMYE5+vDvCn07f583lZNBuGxRdyw8adLwUVu22EM8jHC+8lwfRGjgnY8L7rKXXy6fWdyc5fLe9mE4/G/vR4Ue2PxrfBvee4ZxlavE7WpcYsfyT9kJGTbx7AwBoTxYWacud8Ndedz/TDvCMcvO/exMYx70o0fn7jO1uWxQeuK3MblM9536HvBkMsd/Jws9KExG/P90PeYfGO2Efq60D68D/HzMN8P+S4/h5KMZ2zM/EvOa7i9sLU0psbmYn6u4dnSOLXd7yfZeb+Xxe8gNwx9VSGn1ObfdvmhOB/qVjl3YTvOh6ykAGBVlqeen75MJq2GfCx9YYYtVvF4/B9Nkj85L/2dvvzIFvtt2+ylGvYn+eyYbF26zdZZtVZt2brPpNUg28eOydqxY+3qYf5p+9vxtpgQ7Lftb58mJNsv60/alvXnsY89dOXUjjEl6Pjs2KdOF22z/e27tZmdM2/P1qs926bvch7WV2vHzm3H2/ZsnY0lH6u22XhsnW3X+NVfyc32MVnYp7Vn+2Xb0vbtPJKxfXpZFHLL97Vj7FjJzY6Vnuw4yd7WS/ZextnV0fScNn7pU+f247R1knV2TD6+x587Xe+3Sf726fUj3dinzmXfJUvb1/pp/dO+Or7qU+e3z4yR/Gq0JXF2nuwFUmmV2hIRm3DZZ/bbKte2Lf0tfWcVufRlHLbe2tF5LXkxVmxf6fC9KZ/Whm37gr2sMN1+ddp37WPrTQY6t22381gfTZ51CbyXo2xGOrF+Wt+sHenby9rLRDardWrDt299Ec9aL/vQefz+4tJ/6rtsSeeVT9BvfeoKnelbDIR9k71qjPrM7CS1PcnR98PWix/TlfmRzOZzu/L9MzkW4031be2rv/qUXNU3+YeiL7kvkl3JljVO65vp3Psn9Vdj0Hn1KfvQOTI/lvtW+RX7lK/xfdWYQpu0trzthzYlOdh+kp//rmOlE8+D9xXe7r1vkJ8LfbTnxgKo2Z4VAGRvWdA2+7M7VOzqUm6b5s80uZDNm5y9bdv5lfSFvqjO/ppuz86Z+oWsv7k/sN/yJZKb+m79z8aQ7m/rsliUjs3OZ58WR01WWXzIY521K79rx0ovTfq4DgUA7wd8vBBrsVjj/Z3Jyf+275K/5Cmdmb4UG1SEkZ2ZvmybdJ3Ffospud4VF32eInvM9JvrXLmRxhX6a/XX+z2N27ZZH71MvI9SW/J7MUZC21Vb4QQpjC2yJ7Go49TfMParAGCMi387Vjb8gfQuAfkF+QH5Po1DsjI7877H+mpt2adil/IUH2OUZ8r/h+dRbqa+a3sWM3Kfqz4qZum3bNvHL+/bM27yPNjnZXa8jcvyJ5OBeFGuWuTWeY7t+2wy8Dm0+ullo1zU53TarvzF56JqQzmozwXC+G1jmpFRnrMpvihft7bsnJKR+qL2snw0PXam33ks1b4+h7D9pCvlidK3zun58/IO80nZhLHj46BnwNq0PirHKmJxul560jazccVy9cV06uO7z9Xsu35rDNKr+qC+mS6VJ/uYLq5C36HfkrPmAD5vlw69/1GeEsZ3taccOfQd3tbsu9mp5m3KW+y3mFG+JxuQXjUP8fmA9KQ5phjzLOkcYkPnDnMq5YDK3+zT54qFfQT26uctijPSmfd79t3bivcVaruwm9Tuf//sqe9TvA99uOZ1md5cn1ZSANDE11enfHCIVc7C7b5iFFZKfEXZV5TqzuErUmGwCgNd3XZfnVH/vGOw75JDuL5srDomHJ/k5St1vsLkt4fnUt9CmYdtxo7z/df3KhlXjdNvK5NtnczLxuZ117SNWGJjY7Q3HdunJW+qpOllg1l1MK+I+mqozmnH2RuUVXnTOex4bZPcrYKnKrp0aevseNvHjrHjbR9bF9pDk+Q9Jhdr2+t1Hnk1OcbzOW9fq45rwm8Zj0367+2mzDeE9lHXrrfr8Htsm84b+pGy/vg2Qp8UY8FXjsvOVdWvmH5C/xCz2brjyvQeyjf8LZvUVXB/tdzG6q+oZL9zW5bNax/tVyXDtkyX7a9++HPrbgTdXSU/YH7FbiX2V8UUM8LY4eOTrqbJn9Vx6vu6DgWAJrGnrT4zfaU+WjmOdJb57tRn23p/55bW+6uz8sWKAz6O+FivvhmnOr6JDstst8xGF42jdfbpfWqT/lvcK+5uyWVqx5kNeN9VNZ6yuOnjR52/ifV1Hr+oc4axpUwWVfmqz8dCPx7GgZgPrpJ/2fGh/sRvG/uKxbJQF6GcYn64STuxONlENk39fh3DXkdl+4Yy1LljOVoT+wp1HRtvE/bDfMDrpCwfqcpT6mQV+r4yXxTrh19XlltU2VLML9XZQJXPqOtPk1jTtI0qrrye9Z0CQH7LeVMgqxK3uiAUGkSZMfp2wjZDcOUw/AQrZtB+fGUOtu64cIITOsaYo/b7xGRcBXadTpoEsqZtxPRq41VyPVMAcLcA1hUA7LgtBYD8Njm1aX0sKwBoH5/4aEITCxZNnEmoEwoA9XdQhElaLCBRANgqx9DvxGy2LEjXsVyXAM1bAPC3IGoyZuuaJoJ1/a7a3rYA4IsY9t3aFodhHNFvCgCHdLlIfPB6lN5WWQDwt6c2GYfPN9raZZP2YxOsssQ9nCQ2aV8vCrNjxb0dFxZBysYm24jFzVjuUzaesjymKkbE2grzpVg+GDJW1k8KAPHYU5dflsm8LrbME7MoABzSUZ29a3tYzKqaczSRr46nADC9sLiSAoBenLR796FnvO+avuRARmTf9ds+73b3Q79tH79Obdk6/1372To7PtaGN3a/j7VVB6Tvb8z4w3OG4/OJmR+3+u3X+b7779amwJXMJBuNW+3ZeGJ90HY/Zt+W10XYN+uL+qnvVXqsGmdM96Fc62Qeth/2N/Y7pruydTZGu3XGPj+f3r5l/dFjGFent5e9P332xj6vTp9Vt8V+21Ug77zsrZ9qQ+exY0yPatP2t5eCWBt2NUMvG8te5JWe17brtl7bx9oUF14nbcYW2ltMlk3ba6Inz2fTdtv0STxX8av2pB8vgyZ9CtsO+xfaR51cfD98X0J/GLZTp/NwXOF4y+ws9Jm2X3iuWJ+rZOf9apk/ih1fJ7smtm62YrZn9mL86cWUtt7GZbZ2VfriMLEpW7ZjZIOyST1K1KRfTViq8jnWTzu/zm0+JfudP4Jix9o2i6cao/b3OrN1kr/GY/23YxQfbFx1sc/3dZ3uACiz53n0J/1YDLB2pUNNUE3Odnumyd72zfZJ+bPfFgvsUzmNff9gequmWJNdhhNXO5ftp/bq+l1mu03sch7uw2Nibfjco67/Fgt1J5zJzvgXz2GeFPp6n7fYMaFfUz+qbKEqXmhbmHeVjSkct2exrA/Sc4xbn4/Fct86f1ml37px+7F4uTaxr1gsq5KNl7OXbVU7ZfIM46xvrwm7ZXG0yrdLD2XyLmMzlGudPsv6FtNlGxv0nHn/FBtzVZ5S509C31emG6/DWN/KcgvZSBmjsuMwd4qxVOczmthBne9r2kYVV17P+r6SAoAXUFVFrk4Itj1sKzymShm+ANDmuCb9arJP1S0xTY63fWIVsVAusd+x9tskfk37t277SWf+6lrVC050dU268ndmSDZapzZ9wcA/JmP7+5ff+DbHJudVsNb0HE33W7aMV9WPLs/Ttq22+3cpc9mZfKa/Ymrnyew4nUR5+9MxilP+LqAu+1bVln+hkr1nRD4gvKLv/UE4OVQM8DHPjzP2vcn41qkA0GS8TfeR/CVX6dCeyfYvlPI6DF92JZ1Vxfjwbq02+VSftthUjlX76W4c2a6Pp2XHtR1z2/2XkUeW9WHRvnWhg6G00UYWbfYdyvjoR7O7Mpclp7K5YoylMfO1kgLAHz/hkDLt+yICC9sKAfDby7bF9qk6rivInpS/UGyR9qyNJv1vMp4m+yzS13U4Vi/Iuia/Bdh+20taTA/Gsf22pMw+TZ62n/jWtrDwo0mG2pQerE27UmS/tU7t2TnHXABYBWtNz9F0v2Xzu6p+dHmetm213b9LmZv9mU2ZvVk/zLbMnmTTZlNhAUAv25EN2vGy9y77VtWWnc98iJ3b+muL9Uc+xo7VGPz4wvji/Yj/rpedqZ02OqIAEE9MTYaKCSZX02Gms/TPgZn+jMGnPX1Wh/pzTYoTKgB4PXtOdA6tUy7VVH9N91sV523P86xnTmVpx+mOHPtelVe1HXPb/dvkn03HW9aHRfvW9Pxj2K+NLNrsO4ax08flFwfETMhOjKUx87WSAkAI7CIFAOBfPvzIeOuzSuEzdkrWwis//uqNtpUVAGJ3hIS2ofa0b+yOAvSFTcBA+fsHQtudueIf3AEQu6LaxZ1bbfQTXun3/Vc73k+07Z8fY9tYTAGg2td4thQjvM8O9SZdeB230UmbfdswONR9Y7Yw1L7SL+IyDMDAkBlYSQHg/vfdk/jl1X+5JznqyCNq/3TZkAVH3zbDsMsSOgoAm6F/7Hy8ei6zXQoAh+5SajKBtFit+G0Jg74Tw5sXnWITVxV6VCj2MaWp32miv6ZtjWE/CgDj9cdj4Is+wtc6MuBjuJ+L91IAeOhDKAD0BRlXcNo5uHvcY/bN2pZw3fOes2+Rtt9KxOxFPTrGPu239pfO7beWUB9hQqf21IZe5tUXP+t+XuyjnX0sm4dF9BHarv02O9J6+/7e987+tm3arrG1vcK+qEzCPsr2fb/899C/1J3fjzEca+xYCgDNbcKzZbIMY0CoN+nC67iJTqSnReyjjpMhbo/ZwpD6uWn6GJLsY31BH8191yp0iT760UevBYBVgMU5+gFrU+Redhtu+LKQcALf9gpN3fGxW5Q3RQeMExufh4GqCby9Sb2uzVUXAOr60+d2Erh6XkL9tI0BfeqXc7fXLzJDZjAAA2NkYCV3AIxRMPQZg/YM6KVbPpk7/8mTxBbbT59hsqf1TXkK94/9bttm03OzH8yvIwPPeEa5XptM7quOX0d5VY2JAkB7H4G/bi+zTbMrxgsjMAADq2aAAkA6eVu10Dnf+GQeXukv0yFXe8anW+xxc3XWpAAAH4f4oACwubaCHaB7GIABGFgfBigAUACgANKAAQoA6+P0CGDoUgxQAGjHAgWAdvLC1yAvGIABGICBITJAAaDB5G+IiqNPq3Uox/7E9Hx1V/jrtqO31eoNeSPvKgbspZow0lwGFACaywqukBUMwAAMwMBQGaAAQAGABLgFA3UT/LrtQ3UE9IsgtYkMYK/tuKcA0E5em2hTjBlGYAAGYGD4DFAAaDH5A+jhA71sHV1wQbUM6rYvu3+0D6Mw0JwBCgDNZWVcUQBoJy9sEXnBAAzAAAwMkQEKABQAuAMABmAABjaSAQoA7RIzCgDt5DXEpI8+oUMYgAEYgAEKACT+G5n44/xwfjAAAxQA2jFAAaCdvPAxyAsGYAAGYGCIDFAAoABAAQAGYAAGNpKBn/kZEpM2iQkFAHhpwwv7wgsMwAAMDJMBCgAk/huZ+OOQhumQ0At6gYHhMkABYLi6wW7QDQzAAAzAQFMGVlIAOHD2viRcjjv2GCaePRQf9uzehdx7kHuZQaKPYTlr9IE+mgbPTdnPYrXityUM+k4M799W8Ff968D7AfSBPjYlLswzTuyjH/vwMdzPxVdSANi5Y3sSLtu2HcZEtIeJ6MknHY/ce5B7mbNEH/04RPQxLLmjj+Hqw2K14rclDPpODO9fZ8SP/nXgfRf6QB/zTIw35Rjsox/78DHcz8VXUgDYFLgZZz9wI3fkDgMwAAPLZ4BHAJYvYzhGxjAAAzAAA8tmgALAgK4GL1vZtI9DgQEYgAEYmJcBCgCwMy87HAc7MAADMDAcBigAUADgkQAYgAEYgAEYqGWAAsBwkjcSaXQBAzAAAzAwLwMUAEj6apO+eeHiOBwTDMAADKwPAxQA1keX2CW6hAEYgIHNZYACAAUACgAwAAMwAAMwUMsABYDNTRaZKKB7GIABGFgfBigAkPTVJn0Y/PoYPLpElzAAA/MyQAEAduZlh+NgBwZgAAaGwwAFAAoAFABgAAZgAAZgoJYBCgDDSd5IpNEFDMAADMDAvAxQACDpq0365oWL43BMMAADMLA+DFAAWB9dYpfoEgZgAAY2lwEKABQAKADAAAzAAAzAQC0DFAA2N1lkooDuYQAGYGB9GKAAQNJXm/Rh8Otj8OgSXcIADMzLAAUA2JmXHY6DHRiAARgYDgMrKQDs2b0rCZfbH34rJp4UH2AABmAABmBgwAxYrFb8toRB34nhw0nkSKrRBQzAAAzAQIwBH8P9XHwFBYDTk5NPOn7Lcpc7H0nS10PSd+Dsfci9B7mXOWb0MSyHjT7QB0nULAMWqxXDLWHQd2J4/7aCv+pfB95foA/0QfwoZwD76Mc+fAz38/ELzjs9OXjWJFv27r90yzKJraxad9m5e4sGD5wwSbhlsB+FlzmhnTu2UwAYUAEAfWAfJAzlDGAfw7IP4vmw9IF9oA/iB/FjLAzgr4blr1ZwB8AZTDgHNOE86sgj0Af6gIESBrCPYQUo9DEsfVAAGJY+sA/0MZbJXx/9xD6wjz64G8s5KQAMaDK4CmhI4IblENEH+liF3Y/1HNgH9jFWdlfRb+wD+1gFZ2M9B/aBfYyV3VX0mwIABQCuBvfIAAGKALUKRz/Wc2Af2MdY2V1Fv7EP7GMVnI31HNgH9jFWdlfRbwoAPU7+VqHg8Bw4RBxiH9yN5ZzYB/YxFlb76Cf2gX30wd1Yzol9YB9jYbWPfmIfw7OPUb0EsOtnejatva4NcNPk1/V40cdiDhF9DEt+6AN9tEksu+Zl09ojfgzL3tAH+sD/lTOAfQzPPkZVAOgaINpbDEjkh/zaBDx4gRd4WV2ChL1hb9gb9iYG8Af4A/wB/sD7AwoAHT4GgIPFweJgcbAkXIv5AeSH/Nr4UXiBF3ipZ4D8tF5GVRwhP+TXxs+MgRcKABQA5n4R4BgAb2OwdfsyXgJAHSN+O7zAC7xQEKRAsZgfQH7Ir40fhRd4gZd6Bkb3EkAS6nqlUsE8JCN4gZc2gQBe4AVemLAzgVjMDyA/5NfGj8ILvMBLPQPLyE+5A4A7ALgDoCEDyzDAeRxf2TH0r96JUiCjQNaVzWFv2FsbluAFXuCFAiMFj8X8APLrTn5LLQA844kPT8449cTOlvMP7O+sLevXprV34XlnIr8FeOyaF/SxmG9AH8OSH/pAH23ifde8bFp7xI9h2Rv6QB/4v3IGsI9h2ccFf/LwZGkFgDeeNUn+6Je/N3nCKUewDEQGT//DX0MXA9GF2QX6GJZvQB/og3hVzgD2gX1gH9jHWBjAX+GvxsJqH/3829/73uUUAN5zzqRoWBUGPpEJDMAADMAADMAADMAADMAADMAADPTHgObqe/dfmoTLJLayat1l5+5NmPz3p0wMCdnDAAzAAAzAAAzAAAzAAAzAAAxUMWBz9k4KAG0LBuy/teqCTJAJDMAADMAADMAADMAADMAADMDAqhlofQfAqjvI+TAKGIABGIABGIABGIABGIABGIABGFicgYULAD/1gMcmP/Lje1mQAQzAAAzAAAzAAAzAAAzAAAzAAAz0yIDNz6sKJQsXAGzy3+bvnrJvN3/fETkiRxiAARiAARiAARiAARiAARiAAc+Azc8pAEyAAscAAzAAAzAAAzAAAzAAAzAAAzCw3gz0XgD42Z/92eQpT3lK8trXvjZ55zvfyYIMYAAGGjNgfuPCCy9MTjzxRO40opAJAzAwSAbIc8jtxp7fzhNr4R7ux879GPvf1FZ7KwDc4ha3yBL3Jz7xiclxxx2XHH744YMM3FTA1rsChn7HrV/zG/e6172S3//930+e//zn40eYABJHYGAwDJDnjDu+kB8c0l+bWAv3cI/t9MdAU1vtrQBgk3+rDgJJf5Age2S/Tgz82I/9WPLSl740+e7v/m78CpNAGICB3hkgzyHGrlOM1VjqYi3cw/06cj/GMVXZai8FALtd167YjVGY9BnHBgPDZWDfvn3Jwx/+cHwLkz8YgIFeGSDPGW6cIIYvrpuyWAv3i8sWPpFhlwyU2WovBQCrDtptu10OkLYwGBiAgTve8Y7Jy1/+cnwLkz8YgIFeGSDPIR6tc05SFmvhHu7Xmfsxjq3MVnspALzxjW9M7BmhMQqSPuPcYGDYDNhLW9DRsHWEftDPujNAngPj6854LNbCPdyvO/djHF/MVnspAJCg4yDGaED0eRzc4l/GoSfsCT2tMwNVfuiEE05Ifvu3f7vVYsfwfhNsZkg2E2Oc+AujQ2KUvkx5HH0BYNeuXcl97nOf5MEPfnAni72E8K53vStXC7lVtBcGDhw4kPh/X/rSl5I/+ZM/6aUv6+QkSUBIQNaJZ8YyTp7L/NAnnvI9SfJnk7mWa562szI+DDlHesQjHjET7+yHxUD4HiffZZMK4u949Yktrq/uRlkAuNnNbpb86q/+avJ//s//Sf7f//t/yZvf/Obk3e9+d/Le97534cXaesMb3pC8+tWvTh72sIcl3/M939M4GD3gAQ9ITjvttC377969O7GlzpCOPvrobD/7rNu3brvaKtvvMY95THLzm998y3nsOH9+609sv7rzj317qEuTQUyPknNMv7bN5GyL/VnLJjJRAcD2t0W/73nPezY6PjyH+hxjSttud7vbVbZdxmVZ21o/JG5IQNY3iDWxK/ZB/0NgoMwP2eTfchi/vOQlL2m0zo4Nx2Y50q/8yq9kfwHl9a9/ffKmN70pede73pW85z3vWXixtv7u7/4uedWrXpXs37+/VY7k+3nTm940ue6667ICgN0irsVeTjVPHGuqX8vRmsbjsjbr8qumfVnH/ea9A8B0onxJn2XyMR3aPrF8uyuZvvKVr4zm4uqnncdynDb5XV3fLBfT2OvGViaD2PG+Xc++5bk2zssvvzy5+OKLt9iFcW7b6/o95O1VXPkcPcyRq7YtMt4yrmJtLjuHHl0B4C53uUvylKc8JfnLv/zL5ODBg9nkX8u7331BGjDnX9761r+Zae+1r31tYi8vOf7442sNwCY9V199dWZIXpH229bHtvn9TjnllCwQ2n72z4x4EcjUzpOf/OQt7ZgzsO2xiZ/1V2OwMXXRl0XG0cexMV2aPvTPO2bJ2T59X83IpU/tE7IRG5sm/Nr2wAc+MGvHXtjRVhZ2Ps+UZ8Gcve9fWUJUxWVs7CYb/VuU4bbjrdqfAgATwC55oi14moeBpgUAu6PR2rdPFQWsIGDrwsJAWAAYao4UyktX/62QUCXLqjjWNL9S+4pPi8amqvxqHi7W6Zh5CwBhThLmVJKR5TH2T1zYcV3LzyZ/Zec3drRNueKiPFn/lZdrrmBjLJt8V8kglpf5/FV99bmd7MjO6XNBs5cmeWvX8u+yvTKuvLw1R9OcqGrbIn2r4ips13TfBVdt8+LBvgPglre8ZfLYxz42edGLXpRVtg8ePDP56Ed3J1/+8nd1unziE3dKoX9ocumlf5Gd5/zzz09++Id/uNTJmJHEJnkKNlZlM6Oyf2VVPV8gMMWXOZ8m8HnDjrVj28va9wUAO5c5uLorxE36NJZ9ynQpB2pyk1M2Y9Y/L085Zx+YtK6umho+AmDt250ubeUnBsSbZ0r9tj5ZhdGPKTxPFZdi3vqo6qnOM7TCEQUAJmxtbYj9YaZrBpoWAL7/+78/0eILALYuvFPAFwCGmiPF5Gh3I9i/Y445pjS+VcWxNvmVn2AtGpvq8quumRlbe/MWAMLcs2zcPl+xHMvnXrpj1XJWn7uW3YWr9eEdnOHEV+3pqnB4Ttuuu0R9v9vcKaLc0+YL1kY4Nt9ulQw0mTXONS4/wdekUuvUrs1R7Fg/6bR8zl84qrqjdKiclnGlnN50pAm/xlq1zet0Ea783dbhnd8qLFl/urgjvEw3o7kD4LDDDkse9KAHJX/8x3+cXHTRHyQf/vD3pbeP2S1k8eXXfu3GyT3ucaPk/ve/cfLWtx6W7ffZz06Xl7/8u9NHCG5c/Nb68POaa3ak1fZTkyc96UnJqaeemuzYsSMaqMxoTFHhVf5wIh9ul1I0IZPhCT7B5du37+YY5BzstwUkr2CdV+2E23W8HaNigPoW3gEgh6Cqp2CUwSyj+tqnIynTpWTpdSqHHTpSOeDYZLqusBM+AmB3ANxwww3ZrZZ1crG+qcAQBiMfTJQ4hcEhbL+KS9tXzNinCg0KTIsmWXVjbbudAgCTubbMsD/MdM1AkwKAPdZoE/1HP/rRmc+3K+Sa9Nv7jsoKAEPOkUI56s62uqv/VXGsaX6lcys++kmOT7QVtxfNr7pmZmztzVsA8DloWV4Z3pXqc+UwJ5E+/UUJfzVbeZvuJPAXZ/zE1ybkasvnPHY+359wEqn+1F30KdNv2YXANjLQnELzBp+X6cq4ncfyt9hE046zwkDs7oRlX53uivsyrmJ5u/hoss0XVbyOm3KluZYv2Ih7fwfxvPw0kd9oCgBHHnlk9kz+E57wO8n73ne75GMfu1np8uM/fuPElj/7s5sm/+t/3SS9ffpGxb5Pfeph2W/b/tGP3qx2+fCH/1vyrGf9amK3q5U9x68r5OEEvwoir5wqg9Y2a8u+y2jtM3areuiEfKVQ57S2VBRQn60tTQxjjwCEE37tu8zqVBOAu96nTJcKNH7cenaqqZ4VaKpkFj4CYO+gsBcBXnTRRbUFAF/YCflSALD1YdAM+69jmwYaO17PNekuFwoATJ66tk3ag6mxM9CkAGATf13pt0//GEA4+bffugNgyDlSqLcmV//DY5TvKEluGnetHRXrdQuuJi/LyK/Gzuii/Z+nACC9mE5jF9Pa5CSW61jhyCbu9k+8qF1dzfc5iu3rL5Rp4mvnFWfWpu6Y1IWcMEfyk3bd9RtegGsiX91lEptkN83LlJ/6foR5mS+O6JGD8CKfckYvky7eo9FEDovuU8VVk0m+zu/ndsrj9aiEbyfUTR1XJnN/x4e/m9YXKheVQ9nxoykA2HNtv/Vbv5Xekr8n+eAHt29ZPvCB7Yktf/VXN0/ucIcbJf/wD7fIftvyspfdrPh+97vfOPmlX/quxD613T7f//6y5b+lL9E5OgsgdS+OWWYBIHZ3gHdOUrBuNTcHYjAKTn8bv/Uz5gR9BTWsbtpv79ya3q61LHCX3W6oSz9p9ncJ2PqmiUjZRNuPJfYIwHe+853sJU62n70LwP594hOfyH7bi5TsDgErUMVkotu6fOW76wKA7g5RgA2d4LJ11aR97gBg8tiEE/aBk2Uy0KQAYLfE25V+e9bfPmO3/ftCgAoAY8iRTLZNr/57PcTiWNO4q0mAv0stLAB0mV8tk58xtD1PAcDG5XPUMEdpUwCIXcDSJDa8Ld5+K9fTRF0Xu2KTP1unPCeWI2vibrzO+yivxr7oXRAqeunuz7K8zMZr/fZ3BNjYbJ1kKRuSvGxsdfOhobBaxtUiBQB/J2/YjgoEdVyFx0k//uLssu+yGE0B4N73vnfykIc8JPmbv7lj8o537ChdXvjC7cn3fd+Niu3/9E87knB52MO2pX/q7yZb1k/325kt//iPh5a3vvWWyUMf+pDkF37hF5Ib3ehGpVdiw0lj01vU6h4B8FW7usmb9SH2T8+2KJDGnJcKCmUO1L/HwM4xT2VzKE6hrh9VBQB/648vsqjN8HEJW6/KceyljL4vNsHXXwDQ53Of+9xiwm+PAtiE3/7ZvpYs2r/Yc5TSl5/827m6fgRAjsvfTcIdAEyk6myM7TCyaQzUFQB0+38oF/8YQNkjAGPIkWxcba/+l8WxpvmVf3+P8iPdGVl3NTU2SajKrzaN59h45ykAhI96lBUAqp7Vtr74vK1Ot3ZOTXzFheXifuIbtmm//eOUsUm12NKFojZMKDererS2qQz8O6rMVsK+xi7ied6tDz5ftfNa/2R3fhLcZoyr3LeKq/AdC/5u6aptsQm/l0VTrsJ25OdUWOEOAPe36O3PoO3duzd5zWu+L/1zMbdKr/DHlz/90x3JEUfcOP0rAd+b/P3f3ypbzjjj5sV3+/2bv3mz5Ed/9Ltm1r3hDbdK//yfllun32eXU075n9lfA7jJTW7SuABQ9ZIa/WkK/ZkH77h8YKtzYh4iAWRGq/cH6LY5AWrb/DMlHvrwkYIy52bHjMH4F3E0VQUAn1CoaOLl4eWoSbz0NE/V1P4skv277W1vmz0Pai8FtCKArbcr//aIgCb2usrhn9myc4oH26/qJYBNuQwDowKoyYY7AJjYLWJ7HAs/68pAXQFAt//b1X8tdY8B6A6AMeRIba/+V8WxpvlV+GfAlPPY8V3nV+vKbZtxzVMAUO6qR1t9XqsX8unWdG3TxRd/gaNpAUAXwpQv+Ysi4aOUysftVm3/PoCyi2i6C1d32jaVnWSgiZ/lUroCPK8MlJfFWNdz5pov+PdcKb/TRT5d1FL+Ou/dDU1l0dV+VVz5F4xK/xpv1baqAkAbrnSnQMi8fwzZti3zMevR3AHwgz/4g8nP/uzPpi/ku3Py6lcfni2velV82bXru5N73vOm6Z8LvFVy3/v+1/TWoptk+77yldPl5JO3J7aPfuvzFa84PNm63D553vN+KH2Z4P2TH/uxH6t8DjucNPrJYThpDiucZX9urU2AklGGb+33jwUYdP4vEYTV8SoHauOpuz2pK8Ptu52qAoB/bjAsAGibrhKoyuqvGtg+bcan2/7t7zrbZN8m/vY3k5///OdnxQC9SMlXdKVzf15fpAj/NIoce1MuwwKAnJkKDdwBwCSuDePsCy+bwEBdAcDu5LLFX+W3xwDCdbFHAMaQI7W9+l8Xx5SM1+VXni1/Za3r/GoTGK4b4zwFAGtTt9brNnOfk5jOlDfpAov20zPUykl0gUv7+cc7fDs6n9jR1W777e9utXza39Yd3gEQXqlV0arty9v8i73VJ+VsmoC3lYHmBHpzfdhX/w4AfzFQY/BzCX/lP5RRHRN9bi/jyvrkZR7qq2xbWPwIfzflSr7Ly9VzJ+bactRG1qMpANift7nHPe6RvtTvHskll9wx+Yu/uEO2vOAF8eUnf/LmaeXksNRp/NfkvPMOL/Z7/vPvkBr3zsS22/eq5ZJL7pCe6w7Jb//2Mcl//+//PX204PsqJ25mnLFqja4Ce8WU/ckQAyBsw9rVnQLhcU3+JIUqlXasORK1pf7oticzdv+nKfxxvu9tJ7BtgBzKvqEuQ7nbdjnH8E+9+LsvJE+/bp4x2jP/b3/724tb/+1dAbbOFvtubXrdqU/+vKHe7Lfx5p18Wy79C2N8+57Zecbb9TG8A4AJZtdM0R5MtWWgrgBgV/3tMQA/wX/LW96S3Q0QewGgfwng0HOktlf/FdPCGBbGsab5lXQVxqYu86u2PKzj/vMWAHw+2kQu4YWuJsfE9onlRbH9ujrfvP1cZp9iOX1Znr/MK9JdyiZsa9X9ruPK30lQxtay+zyYAsDb3va25Lu/+7tLJ9jf9V3flRx11FFZJfwXf/HHkqc//YeSCy44tDzzmT+UNF2e8YwfSpou+/b9SHK3u90tvWNgV3Kzm92s1ZXbZcJM25uVfNqVfvtnV1BM93r239bN81jBpvFDAWCz7GXT+Ga84+C7rgBQNsmvWq9HAIaWI1lcsuK0liuvvLL0fTXwOw5+m+hp0QJAk3Owz/rwsqm6DB8l6EMOgykA2O3MdbfYb9u2LX3D/x3yQsBRyYMe9MNpcLlT8kd/NLs8/vG7kjbLuefuSsLlN37jTsm97nV0dq4f+IEfSLZv387k372ToQ9YN/mc9qy//Xv6059ecGiPA9i7AOwvAWyybOrG/r3f+73pX/J4PTLCfmEABnplYJkFAPODQ8qRYn/RRo+r1flsto93gkcBYLy6w+5Wpzt7FHvZb/mv0+dgCgAPf/jDs2eb6zpsV+FvfetbZ7ctH3744dlyzDHfny33u98PLbTc4x72VvU7pLf6T9u1xc7F5H91RlGn/03d/j3f8z3ZlX57EaBkYHcB2IufNlUmTcdt7w554hOfiJyY/MEADPTKQNmdjnYVf56r//4RAPnDoeRIsb9o4+NXU//NfuPKvygAjEtf2Nfm6mswBQC7/f/lL395NumuA/LGN75xdtXTnle+xS1ukS02Se9iUXvWtlXT7Vx1/WH75hoQuh+27tv4FXQ5bF2iH/QzdgbK7nT88jP+S2JFgHmWf3vm1j9NTI6ErfRhK2V32/EIHjz2wSPnrOZuMAUAU5S98MCKACeeeGI2qW+ivP/yX/5LYsuNbnSjTha1Z59Nzs8+ODYYGB4DNvG3OyZe+tKXpo/y3Atb5sovDMBA7ww0vdOxy5hCjjS8+NSlfofUVtnddhQAYHBInNKXKY+DKgBYh2zi//u///vZnzmzzlUtdjvdP/zDPySvec1rkr/8y7/Mkv1FlksvvTRry97C++Y3v7n2/HX9Y3u1/pAP8lkWA+YbnvKUpyR2GyrOnuQDBmBgCAxwRxIcDoHDZfShim0KAHC/DOZoczGuBlcAQKGLKRT5IT8YgAEYgAEYGCYD89zpiC6HqUv0Msn+elfd3XYUAOAXWxkeAxQAuC2SK6QwAAMwAAMwAAMrYqDNnY7LukuKdrkDrwsGmtxtRwFgeJM/JuTohALAigI+xoaxwQAMwAAMwAAMwAAMbBIDFADgfZN4H8tYKQBQAOCqDwzAAAzAAAzAAAzAAAx0zgAFAAoAY5kUb1I/KQDg7Dt39ptkQIyVwAYDMAADMAADMAADcQYoAGAb2MbwGKAAQAGAAgAMwAAMwAAMwAAMwAAMdM5AowLA7nSCFC63G96kaawTWXtR42Me85hssReRrnocN7/5zZPdu3ev/LyrHueYzkcBAGePQcIADMAADMAADMAADMBA5wzUFgBs4m//r3aLfj+AIsCik8pXvvKVif27+uqrs8X+PfnJT+5cz1X9tMKD/aMIMByeKQDg7FfqBBZ1ZBw/HOeBLtAFDMAADMAADMBAFQONCwCPcXK0ib8VBC5HtovYl13t9xN+uxJ/+eWXZ4WARdpteywFgOFxTAGAAsBKnUBbp8H+w3Ma6ASdwAAMwAAMwAAMNGFgrgKA5ea6I8C+210C9ltFgvD3K/PtF7vjnox+VACwSb89BmD6ut3tbjfzGIBNznV3gH1efPHF2X52td5+290C2m7bbNHvU045pXRfu/NAfIQFAH9O6xt3BqyeVQoAFAAoAMAADMAADMAADMAADMBA5ww0LgDoir9d9bfv9v+UfGKkxwR8AcC267cdY/9Pc8UCawN9ZhN2/bOJu03MVQzQHQG2j03CNbm3IoH9tn+aoKsd7Wtt2TYVC7SvtX3aaadlx6qY4AsAtt3+2T52DmtD7aCv1TFLAQDngIOEARiAARiAARiAARiAgc4ZaF0A0PP/x7nJUJMCgJ/wq4iAPjN92p0ANgnX7f82ebdJvibcekmg3hFgE3MVAOw42y+8iu8fJQj3tf39xN4fq6v/dmeBfbeCRNgfCgHLLwRQAMA5dO7sMdzlGy4yRsYwAAMwAAMwAANDZ6BxAUBX8+2qv/33z/9TAJgrV7eJvU2w/Zv/7bZ9XYHXRN0m4DYZ11X+rgoAetdArACgv0qgT7sbYegsr1P/KABQAMDgYAAGYAAGYAAGYAAGYKBzBloXAEwH9iy/v8X/6Py3nuu3W/3DRwC4A2CL7nS7vU3sdcVfk3zbpiv3epbfrsrrbf3z3AFgV/31J//0uEF494AeD3jAAx6Q9Vd3AqzT5HoMY6EAgLPv3NmPAXz6yFUTGIABGIABGIABGFguA3MVAG6e9kkvAbxd3j8952+fusXfvwOAAkA0n9eE3/8ZQD2bb0UBrdct+4sUAPzLBO277jwoe3zAztnHnyXE5icJBQAKABQAYAAGYAAGYAAGYAAGYKBzBmoLACZzu8XfJv1e/jbxD9fb4wF6N4DfZncI2G8dH/7ecL3aRNyuvNviHwcweVkRwO4A0Jv47VO34/vvurIvGVs7/hibyNtE39Zbe/4dA+GxenFgrD9MzpdbkJN8KQBsuFPA0FZjaMgZOcMADMAADMAADGwaA40KAOTinRdeVslZ7CWAqzw/52rvVykA4HRG7XQw+vZGj8yQGQzAAAzAAAzAwCoYoACw/pzZVX+7nd+u6K+CKc6xOFMUACgAYKwwAAMwAAMwAAMwAAMw0DkDFAAWn6wx4UWGXTNAAQBn37mz7xpS2sPxwQAMwAAMwAAMwMD4GKAAMD6dYWfrrzMKABQAKADAAAzAAAzAAAzAAAzAQOcMUABY/8kkBYPx6ZgCAM6+c2ePIxifI0Bn6AwGYAAGYAAGYKBrBigAwFTXTNHe4kxRAKAAQAEABmAABmAABmAABmAABjpngALA4pM1JrzIsGsGKADg7Dt39l1DSns4PhiAARiAARiAARgYHwMUAManM+xs/XVGAYACAAUAGIABGIABGIABGIABGOicAQoA6z+ZpGAwPh1TAMDZd+7scQTjcwToDJ3BAAzAAAzAAAx0zQAFAJjqminaW5wpCgAUACgAwAAMwAAMwAAMwAAMwEDnDFAAWHyyxoQXGXbNAAUAnH3nzr5rSGkPxwcDMAADMAADMAAD42OgTQHgyU9+cnLxxRfP5KXHHXdc8pjHPCZbjj766MbbYGV8rDTR2c1vfvOCB3Fhn6eccsoMG7butNNOazXHud3tbpdcfvnlWzh7wAMeUJzTzu/7aeeInWue8zcZf1f7UACgANDKOLoCj3bW0zGjV/QKAzAAAzAAAzAgBpoWAGwCZ/9sAqZjbfJv/66++upiURGgahv8rS9/u3fvLpgwVmwxPuyfTbqle1vnWapjwib2tr/9s3Nof5v8i8uwTStYaZt9+uJV2/PX9a/r7RQAKABQAIABGIABGIABGIABGICBzhloUgCwiZP++UmbTehe+cpXZn3SxE+TvKptscmSHa8l3G5FhbJtfr2fGKpPZcd1PWGjvWlRI+TA1tnkXUWipgUAr0srJun4sACgAoO1qyKV7W+/7RjxaQzb79j57c4CO19490CfOqUAgLPv3Nn3CTTnXt+qL7pFtzAAAzAAAzAwLgaaFABskqVJWOyqrU2cdLVVky9xULVN+2gSpyvF1pa2qfigbf4qrq4I62qunxyqTe2jiSB8LpfPWAHAJtjhFfeqK/BqQ0UAKyYZE2LMFwd8O/7csYKU50PHqTjR5m6EVTBEAYACAAUAGIABGIABGIABGIABGOicgSYFgLqrtjYx81db/QSpapvtZ1f3bR9N6vwVXT1G4O8qsO02odRkUM+Wq1CgK/7+lnO7TTx8Bn0Vk7hNPId/BMA/GmLfyybuoZz0HoHwirxxEN4BsGgBQLyFd4/0rTsKADj7zp1931Bz/uVWX5Ev8oUBGIABGIABGGjCQBcFADuPrvLGrrRXbbNjbYJuE3h/Rd/WxyZ84V0D+h1eNQ7vDqAAsBp7kB6MA9OfigDhBHueZ/C7LgDosZYh3h1CAYACAAUAGIABGIABGIABGIABGOicgUUKAHb13k+s/dX7qm2+MKHntnUXgG8jNuHTRNImbf6Zbt0toO129dja1rPfNtkL/0pBkwIJ+7QrHIS33ttvFQH8Ff1lFgDszf8qOulxErEkBtSn8E6SoeibAgDOvnNnPxS46Uc7p4q8kBcMwAAMwAAMwECXDCxSANBt9zbhssm2Tar0jH7VNt9/XSW2iaImbZrY22TN/tlk37arTRUXbJud27b5N8TrfQX6M3P2Gd463qUMaeuQTcbeAaDJd/gWftOz/1OBetTD9Bv7c3+xgpAKPLqLxNo0jkwn/vZ+/UUC6coXIMJtQ9AnBQAKABQAYAAGYAAGYAAGYAAGYKBzBtoWAMLbpXUlPvYOgKptmmTZZM8/Kx6+rV2FBZvA237+jgPta+vDF8Tp3QP+Su8QJnbr3gdd8fd/8i+cjNvv8P0A/q8EqI3wsQFfLPJy9C+R9C+QVDtix4oEvgAgllUwCvvcp64oAODsO3f2fQLNublyAQMwAAMwAAMwAAPDYKBNAWCZOtNV27JzlG3X+vAdAGpnaC93W6YMN7ntKn7q2Bqi3CgAUACgAAADMAADMAADMAADMAADnTMwlALAopOwsgLAou1y/DAKVZumBwoAOPvOnf2mGRHjxXnDAAzAAAzAAAzAwFYG1qUAUPan49A5dj9GBigAUACgAAADMAADMAADMAADMAADnTOwLgWAMU7y6DPFiTIGKADg7Dt39jgcHA4MwAAMwAAMwAAMwAAFABjADwyPAQoAFAAoAMAADMAADMAADMAADMBA5wxQABje5I8JOTqhAICz79zZ41hwLDAAAzAAAzAAAzAAAxQAYAA/MDwGKABQAKAAAAMwAAMwAAMwAAMwAAOdM0ABYHiTPybk6IQCAM6+c2ePY8GxwAAMwAAMwAAMwAAMUACAAfzA8BigAEABgAIADMAADMAADMAADMAADHTOAAWA4U3+mJCjEwoAOPvOnT2OBccCAzAAAzAAAzAAAzBAAQAG8APDY4ACAAUACgAwAAMwAAMwAAMwAAMw0DkDFACGN/ljQo5OKADg7Dt39jgWHAsMwAAMwAAMwAAMwECbAsDRRx+d7N69eyGtIx4AAAjVSURBVPB56SmnnJI85jGPSU477bTkdre73dL6a7L4/9s7f9Y4jjCMq3IamRQuQtxElYqASZFAcHeVIY0auQzBpSFqUzhtwI38BQICdyaFUe/KhcAfQl9mk8fSc37zanZn9nal+6PfwXG6/TMzO/PbOT3PvDO7v79/q+n31be26z3m+nSsz8v3vttWn337htpe9X2bdVHrq45+2Ot+X9y8n3/8bq/T+9uv2+51pbE47E+nVg7t78tTZfC+WjoYABgAt9ax1OBjf1tnQT1RTzAAAzAAAzAAA9vIwBgD4PLystPr9PR01P+mEpUXFxejzlmlLiVQXUZ9+i1x2pLemHIqL71a027JPx6j+nL5Y92pjPHa9PfR0VH1+mSK5PNsHmifXq67eE1nZ2f/21dqRx+zLnNIovryr73u4o8vfdDhN1fb4lsmwVA7/PrzXtf9vdf9+cuX4yTaczpKu5TOUJ7K2+koj/OXw2XBAMAAqN7UYzsVjuefFBiAARiAARiAARiAgVYDIIpECcUx7EhQjj1nTPo+1qJZZdU2CVxt02uxWFTLPKact2kAKHJBLwl7lVsvbdM1SWyrLh19oL9bzBWLf43SO00L/ZjG+fn5sq1Uf9qnPJW3jtcrCn2V0a91GAAasZewlqiOBsDZb1fbZQ7sf3XTIMh8nR5fpZENAJkBOZ1oEMR0hvJU2Vw+56Wy9XGOAYABUO2wVukkOYcffRiAARiAARiAARi43wy0GgAWhhaBFtnixyPvFpTxex6Vt0i0kLX4nCoeLWpzdIJFrMpv1n0tUfiOLacNgDhSH/OIYl355Px1ns/NYfdRhCudWM48DaPVAFB5nY/rRO2lbTGSIYv8OM3BJpDbSmaCry0bA3fVr0icS1CXIgCiwM779d1C3hEEFuZR4NtgcOi+zvNUA5/nfBQBMJSn68TlHZqWgAGAAYABAAMwAAMwAAMwAAMwAAOzM9BiAFgwWlxnQZtHw/N3nedRawtjj2pLuFsITxGNpdFpp1ca4dbItd5xhHtMOaMBoL89ah9Hyx2en/NxVIKO9ch+vPZcH30i33lGM6alDm2+eE2AIQMglytGGygdfXddTDVxWsqej7GIzgI/HifBrpF9hfgvTaD/QvDzmgES7zkC4DOv19EEJZNBo/qlKQGlPJWWQv+j+UAEAJ367J36KjcS59zvkQDan/aHARiAARiAgfvDQIsBIGGsl4SmRJ4FqueQ1wyAHFqfBa1HlscK2cipDYBSqH/Mb2jEfEw5S1MAYtquI6XpdD0NomZ4tBgA2XBovWc9X991na+jZKR4KkU0cZS/v6/TAFiaPGkNAG+3EJeIr9VRyQDQ3H2bAk6rbwpAS57Kw5EGQ2sSEAGAMVAFtgY0++s3PXVEHcEADMAADMAADNw3BloMAC8Ot5zsff2HIwKmGgB5nvsqbeA0PALvNLzdIfhTDIBYzpIB4LB+5Z0NABsBcV/fdQ5NAdA5Fun5Wmv1pnRt5PjY2hQAh/lH8e9r8MKB5kOft7UoYu3aShEAEuoS7y3iX+mXDACN8Ctt55+/53IN5am1CKJhMbQQIAYABgAGAAzAAAzAAAzAAAzAAAzMzkDNAIhz6/0IOc+X94i2RaQNAY9OWwx6BNyPibPAzesBjHmkXUkQOrTeYfWeXhAXAYzRC3EOu4W1rqmlnDYAbCy4Tvzd1+i0JNY96l6LABhaBNCL7jn0Ps7t13l9AtxRHPp0O7psfYsARrNCafs8bXdeyi+m3bLYYk3Mr7I/GwAeuZdg9/z9GKovoZ4f91cyAByyX1pMUIJe6VjYD+Xp8ulYH1d6bKGvHQOAzn72zn6VG4tzGBWBARiAARiAARiAgd1ioGYAWMhmcR6nBcQR4bi4ncWoBa1HkUuPspsS/m8mPT0hPtJOeZYWLPSq+Dms3edaWMfjYlqlRQC13wvtDT2ur2YAROHt/Jcj0NdPNYjRGJ6XP5RuKYrD7dP3GECbPznyI8/138QpABL+XtXfn/EpAaV5+CUDYOjRfj7eC/8N5an1B+JjAGNZSn0qBgAGAAYADMAADMAADMAADMAADMzOQM0AiKO+WajEFeK1T0LSI8B5n7Znke9tU0f+S+WS6TA0Gq19eue8x5TTQlhiv8/AKF1jXsm/z1RzGeP+GIXhv206OAqhlF7pPEcA6HhfQ3wigfaXzutLf53moER4HOH3qH/8zPtjSP7SRLp+bGC+Fgl4vfPK/XHV/1qeOldpDD3+jwgAOvnZO/l13pjkvVsjBrQn7QkDMAADMAAD289AzQCgjbenjRWVsa45+HAyLydEAGAEYATAAAzAAAzAAAzAAAzAwOwMYADMK9zWKYTjiP46y0He05nCAKCzn72z58acfmNSh9QhDMAADMAADMDAtjOAAQDD287wLpYfAwADAAMABmAABmAABmAABmAABmZnAAMAA2AXBfS2XxMGAJ397J39tt8UlJ8fKxiAARiAARiAARiYzgAGwPQ6hEPqcG4GMAAwADAAYAAGYAAGYAAGYAAGYGB2BjAAEK9zi1fSm84UBgCd/eydPTfm9BuTOqQOYQAGYAAGYAAGtp2BT58+dQ8ePOB/TfQGDGwQAxgAG9QY297JU37+UYEBGIABGIABGIABGDADb9++7Z48eYL4Q2/AwIYw8OjRo+7Dhw832uP7n553z1/+0/veG9rZsk8Z8OPAjwMMwAAMwAAMwAAMwAAM7C4DJycn3YsXL/i/f0PEH/fa7t5rrW377Nmz7vXr1xgArRXGcdw0MAADMAADMAADMAADMNDGgML/379/3z1+/BgTABMABtbMwND9SATAmhuHH5W2HxXqiXqCARiAARiAARiAgc1m4PDw8LMJcHx83D18+BARiM6AgTtmQMJ/sVh07969654+fVqsfwyAO24Ufrg2+4eL9qF9YAAGYAAGYAAGYGB1BiT8X7161X38+LHTAmS8qQMYuDsGtBjnmzdvuoODg17zBQMAAwBnDgZgAAZgAAZgAAZgAAZgAAZg4B4wUDMA/gUXJaNjSI8QUwAAAABJRU5ErkJggg==;" vertex="1" parent="1">
          <mxGeometry x="-120" y="-30" width="1024" height="768" as="geometry" />
        </mxCell>
        <mxCell id="Q5ADVEXTwDyle6d0Oa31-2" value="" style="edgeStyle=none;orthogonalLoop=1;jettySize=auto;html=1;rounded=0;strokeColor=#FFFFFF;" edge="1" parent="1">
          <mxGeometry width="80" relative="1" as="geometry">
            <mxPoint x="487" y="263" as="sourcePoint" />
            <mxPoint x="402" y="350" as="targetPoint" />
            <Array as="points" />
          </mxGeometry>
        </mxCell>
        <mxCell id="Q5ADVEXTwDyle6d0Oa31-3" value="&lt;font style=&quot;font-size: 24px;&quot; color=&quot;#ffffff&quot;&gt;VCSEL pulse&lt;/font&gt;" style="text;html=1;align=center;verticalAlign=middle;resizable=0;points=[];autosize=1;" vertex="1" parent="1">
          <mxGeometry x="420" y="225" width="170" height="40" as="geometry" />
        </mxCell>
        <mxCell id="Q5ADVEXTwDyle6d0Oa31-4" value="" style="edgeStyle=none;orthogonalLoop=1;jettySize=auto;html=1;rounded=0;strokeColor=#FFFFFF;" edge="1" parent="1">
          <mxGeometry width="80" relative="1" as="geometry">
            <mxPoint x="515" y="460" as="sourcePoint" />
            <mxPoint x="430" y="547" as="targetPoint" />
            <Array as="points" />
          </mxGeometry>
        </mxCell>
        <mxCell id="Q5ADVEXTwDyle6d0Oa31-5" value="&lt;font style=&quot;font-size: 24px;&quot; color=&quot;#ffffff&quot;&gt;Algortihm calculating&lt;/font&gt;" style="text;html=1;align=center;verticalAlign=middle;resizable=0;points=[];autosize=1;" vertex="1" parent="1">
          <mxGeometry x="425" y="410" width="240" height="40" as="geometry" />
        </mxCell>
      </root>
    </mxGraphModel>
  </diagram>
</mxfile>
